<svg xmlns="http://www.w3.org/2000/svg" xmlns:xlink="http://www.w3.org/1999/xlink" width="500" zoomAndPan="magnify" viewBox="0 0 375 374.999991" height="500" preserveAspectRatio="xMidYMid meet" version="1.0"><defs><g/><clipPath id="44f151f7de"><path d="M 59.34375 72.75 L 315 72.75 L 315 344 L 59.34375 344 Z M 59.34375 72.75 " clip-rule="nonzero"/></clipPath></defs><rect x="-37.5" width="450" fill="#ffffff" y="-37.499999" height="449.999989" fill-opacity="1"/><rect x="-37.5" width="450" fill="#ffde59" y="-37.499999" height="449.999989" fill-opacity="1"/><path fill="#ffbb7f" d="M 188.222656 340.816406 C 186.375 340.710938 184.503906 340.4375 182.621094 339.964844 C 179.230469 339.113281 176.011719 337.640625 173.046875 335.792969 C 170.828125 334.414062 168.757812 332.808594 166.828125 331.046875 C 165.167969 329.527344 163.964844 328.980469 163.332031 326.761719 C 162.25 322.929688 164.972656 319.289062 166.785156 316.035156 C 169.15625 311.769531 171.582031 306.890625 173.421875 302.351562 C 178.894531 288.84375 175.371094 274.039062 167.410156 262.191406 C 163.582031 256.496094 158.625 251.625 154.164062 246.433594 C 148.511719 239.863281 143.128906 233.0625 138.253906 225.890625 C 138.253906 225.890625 137.226562 224.46875 136.4375 223.496094 C 135.617188 222.488281 134.832031 222.003906 133.734375 221.140625 C 130.875 218.894531 127.496094 217.367188 123.925781 216.699219 C 120.175781 216 116.292969 215.457031 112.574219 216.238281 C 110.382812 216.699219 108.234375 217.390625 106.046875 217.863281 C 101.839844 218.765625 97.484375 219.589844 93.179688 219.3125 C 89.9375 219.105469 86.75 218.832031 83.726562 217.625 C 68.011719 211.367188 63.566406 192.984375 62.410156 177.695312 L 62.410156 157.308594 C 62.636719 154.15625 62.914062 151.007812 63.375 147.886719 C 63.839844 144.742188 64.414062 141.632812 65.152344 138.539062 C 65.734375 136.113281 66.417969 133.6875 67.199219 131.316406 C 70.855469 120.242188 77.714844 107.765625 90.023438 104.902344 C 92.164062 104.40625 94.316406 104.289062 96.507812 104.363281 C 100.933594 104.515625 104.996094 106.042969 109.058594 107.644531 C 116.65625 110.644531 125.042969 112.417969 133.195312 111.082031 C 135.964844 110.628906 138.707031 109.820312 141.226562 108.574219 C 142.042969 108.171875 142.65625 107.898438 143.699219 107.296875 C 144.742188 106.699219 145.355469 106.195312 145.398438 106.179688 C 157.734375 94.871094 173.171875 87.519531 189.535156 84.167969 C 200.230469 81.976562 211.121094 81.402344 222.011719 81.734375 C 228.921875 76.816406 238.695312 76.160156 246.878906 75.824219 C 254.386719 75.519531 261.90625 75.800781 269.355469 76.792969 C 274.878906 77.527344 280.644531 78.878906 285.109375 82.390625 C 286.519531 83.5 287.746094 84.832031 288.742188 86.328125 C 292.726562 92.328125 294.539062 103.195312 288.46875 108.378906 C 292.476562 109.609375 296.378906 111.195312 299.554688 113.941406 C 305.570312 119.144531 308.09375 127.828125 307.238281 135.605469 C 306.761719 139.917969 304.832031 144.121094 301.097656 146.496094 C 303.421875 147.4375 305.558594 148.769531 307.238281 150.742188 C 309.777344 153.734375 311.070312 157.617188 311.679688 161.441406 C 313.175781 170.820312 311.246094 183.109375 302.023438 187.972656 C 301.414062 188.292969 300.699219 188.316406 300.054688 188.550781 C 302.132812 189.632812 304.109375 190.917969 305.769531 192.71875 C 311.53125 198.984375 312.386719 207.972656 309.980469 215.851562 C 308.71875 219.972656 306.40625 223.808594 302.875 226.355469 C 298.125 229.78125 292.042969 230.042969 286.347656 229.917969 C 281.65625 229.816406 276.976562 229.40625 272.292969 229.144531 C 270.4375 229.042969 268.585938 228.90625 266.730469 228.796875 C 266.480469 228.773438 266.070312 228.761719 265.996094 228.757812 C 259.8125 228.34375 254.21875 229.394531 248.269531 231.183594 C 237.460938 234.429688 227.597656 241.667969 223.75 252.613281 C 222.816406 255.277344 221.820312 257.6875 221.605469 260.5 C 221.570312 261.003906 221.546875 261.503906 221.53125 262.007812 C 221.519531 262.351562 221.527344 262.703125 221.53125 263.046875 C 221.554688 263.097656 221.582031 263.152344 221.605469 263.203125 C 221.863281 263.722656 222.027344 264.859375 222.265625 265.386719 C 222.824219 266.628906 223.332031 267.894531 223.8125 269.171875 C 225.539062 273.765625 227.332031 278.273438 228.113281 283.121094 C 230.335938 296.863281 228.289062 311.335938 220.3125 322.972656 C 213.019531 333.617188 201.152344 341.535156 188.222656 340.816406 Z M 188.222656 340.816406 " fill-opacity="1" fill-rule="nonzero"/><path fill="#f2933e" d="M 295.113281 186.429688 C 295.113281 186.429688 308.765625 187.527344 311.503906 172.054688 C 315.558594 149.167969 298.730469 147.25 298.730469 147.25 C 298.730469 147.25 303.765625 150.027344 305.789062 155.15625 C 308.558594 162.175781 306.359375 172.003906 300.074219 174.742188 C 293.804688 177.472656 282.433594 176.90625 270.574219 176.171875 C 236.796875 174.085938 235.328125 150.519531 235.269531 146.832031 C 235.390625 145.4375 235.289062 144.101562 235.523438 143.214844 C 240.5 142.992188 251.777344 142.597656 263.847656 142.878906 C 275.960938 143.160156 286.710938 144.308594 286.710938 144.308594 C 286.710938 144.308594 305.429688 149.449219 306.207031 133.210938 C 306.921875 118.394531 295.199219 113.199219 295.199219 113.199219 C 295.199219 113.199219 300.160156 118.109375 301.671875 123.878906 C 303.304688 130.125 300.804688 137.789062 294.441406 137.5 C 282.023438 136.933594 283.605469 135.679688 261.328125 135.734375 C 234.933594 135.796875 233.003906 110.699219 232.917969 109.417969 C 233.699219 107.761719 234.042969 106.78125 234.597656 105.886719 C 239.671875 105.089844 245.886719 103.988281 254.769531 103.867188 C 269.515625 103.667969 278.160156 106.6875 285.113281 105.632812 C 292.140625 104.570312 292.722656 94.714844 289.988281 88.734375 C 287.195312 82.632812 280.492188 81.503906 280.492188 81.503906 C 280.492188 81.503906 283.445312 83.230469 285.363281 86.296875 C 287.417969 89.574219 288.351562 94.246094 286.542969 96.972656 C 283.566406 101.460938 269.773438 99.195312 252.335938 97.648438 C 231.226562 95.773438 231.65625 78.644531 231.65625 78.644531 C 231.65625 78.644531 230.007812 78.542969 224.515625 81.09375 C 221.371094 82.558594 220.730469 82.765625 220.730469 82.765625 C 179.597656 80.410156 155.214844 96.117188 141.910156 109.980469 C 141.8125 110.085938 140.378906 110.257812 140.378906 110.257812 C 140.378906 110.257812 139.8125 110.507812 138.664062 110.804688 C 134.597656 111.863281 123.246094 113.523438 104.070312 106.8125 C 99.796875 105.316406 96.015625 104.703125 92.554688 104.792969 C 68.328125 105.429688 62.953125 141.554688 62.042969 166.503906 C 60.441406 210.445312 83.941406 222.5 101.632812 216.277344 C 123.855469 208.457031 134.082031 219.605469 134.082031 219.605469 C 134.082031 219.605469 137.808594 224.753906 140.460938 228.804688 C 144.546875 235.039062 149.632812 240.800781 154.5 246.460938 C 159.050781 251.753906 164.460938 257.628906 168.367188 263.445312 C 176.492188 275.535156 178.742188 290.433594 173.15625 304.21875 C 171.28125 308.855469 168.683594 312.816406 166.265625 317.167969 C 164.421875 320.488281 162.21875 323.851562 163.324219 327.761719 C 163.445312 328.1875 163.660156 329.359375 163.660156 329.359375 C 164.453125 331 165.648438 332.136719 167.023438 333.394531 C 168.988281 335.195312 170.894531 336.773438 173.15625 338.1875 C 176.183594 340.070312 179.195312 341.523438 182.65625 342.390625 C 184.574219 342.871094 186.484375 343.042969 188.371094 343.148438 C 192.324219 343.367188 195.96875 342.921875 199.632812 341.71875 C 204.613281 340.140625 208.625 336.421875 208.625 336.421875 C 240.828125 307.050781 220.140625 263.949219 220.140625 263.949219 C 220.0625 258.15625 221.144531 253.082031 223.335938 248.730469 C 231.398438 232.703125 250.734375 226.171875 251.15625 226.027344 C 253.761719 225.585938 254.265625 225.730469 255.777344 225.691406 C 263.097656 226.269531 269.929688 226.796875 273.007812 226.953125 C 276.226562 227.117188 292.523438 228.695312 298.558594 226.28125 C 308.222656 222.417969 309.972656 217.984375 310.410156 208.625 C 311.1875 191.988281 294.019531 189.542969 294.019531 189.542969 C 294.019531 189.542969 303.054688 193.539062 305.367188 200.722656 C 307.585938 207.605469 304.308594 214.285156 298.726562 215.941406 C 286.351562 219.613281 261.664062 217.179688 252.417969 212.242188 C 236.414062 203.691406 237.527344 189.453125 236.953125 185.253906 C 237.972656 185.175781 295.113281 186.429688 295.113281 186.429688 Z M 213.335938 258.148438 C 210.675781 257.304688 207.449219 256.464844 207.449219 256.464844 C 223.582031 277.703125 225.671875 302.898438 213.921875 319.859375 C 206.679688 330.316406 189.921875 329.917969 181.648438 320.277344 C 184.6875 316.011719 185.582031 312.996094 189.632812 300.855469 C 192.015625 293.710938 195.210938 275.140625 171.226562 247.636719 C 127.335938 197.304688 137.378906 162.683594 174 159.273438 C 174 159.273438 129.3125 161.84375 129.03125 137.667969 C 129.03125 137.667969 124.289062 154.980469 133.824219 164.570312 C 133.824219 164.570312 133.742188 164.902344 133.738281 164.90625 C 132.753906 167.203125 130.457031 172.554688 128.277344 178.695312 C 125.683594 186.003906 124.460938 193.449219 126.390625 202.945312 C 126.390625 202.945312 115.066406 199.644531 101.96875 203.582031 C 73.625 212.101562 70.953125 181.6875 69.441406 167.765625 C 67.769531 152.363281 72.316406 123.746094 82.636719 113.453125 C 89.414062 106.691406 98.199219 109.4375 102.386719 111.265625 C 116.792969 117.558594 131.890625 115.386719 131.890625 115.386719 C 131.890625 115.386719 128.582031 121.882812 127.433594 126.738281 C 127.277344 127.402344 126.804688 128.183594 126.761719 128.753906 C 126.757812 128.828125 127.894531 129.304688 128.316406 129.527344 C 128.308594 129.558594 128.292969 129.589844 128.285156 129.609375 C 128.269531 129.65625 131.132812 130.351562 131.132812 130.351562 C 139.542969 115.363281 152.363281 103.195312 167.527344 95.964844 C 191.222656 84.667969 213.585938 86.96875 213.585938 86.96875 C 213.574219 86.988281 211.132812 91.460938 211.316406 96.808594 C 211.5 102.152344 215.6875 107.398438 215.6875 107.398438 C 207.980469 113.71875 204.964844 120.644531 204.425781 126.90625 C 203.351562 139.355469 210.140625 144.8125 210.140625 144.8125 C 203.28125 150.109375 200.953125 161.429688 200.894531 167.429688 C 200.785156 178.273438 206.945312 184.582031 206.945312 184.582031 C 201.992188 189.636719 200.128906 198.402344 200.054688 204.171875 C 199.75 227.621094 226.699219 229.394531 226.699219 229.394531 C 214.507812 238.769531 213.332031 258.148438 213.332031 258.148438 Z M 213.335938 258.148438 " fill-opacity="1" fill-rule="nonzero"/><g clip-path="url(#44f151f7de)"><path fill="#9a4a04" d="M 223 187.507812 C 247.675781 188.640625 242.394531 188.570312 251.996094 188.855469 C 260.3125 189.101562 268.640625 189.199219 276.960938 189.359375 C 280.675781 189.429688 284.421875 189.605469 288.136719 189.695312 C 288.179688 189.699219 288.175781 189.695312 288.222656 189.695312 C 294.105469 189.9375 300.296875 191.242188 304.441406 195.75 C 308.882812 200.574219 309.492188 207.457031 307.890625 213.574219 C 306.96875 217.085938 305.261719 220.488281 302.257812 222.652344 C 298.316406 225.492188 293.164062 225.785156 288.472656 225.679688 C 284.675781 225.597656 280.921875 225.300781 277.128906 225.089844 C 267.359375 224.558594 257.554688 223.953125 247.792969 223.324219 C 242.328125 222.976562 236.917969 222.746094 231.488281 221.980469 C 226.929688 221.335938 222.179688 220.378906 218.039062 218.28125 C 214.253906 216.363281 211.066406 213.234375 209.71875 209.117188 C 207.433594 202.117188 210.355469 191.621094 217.621094 188.519531 C 219.324219 187.789062 221.078125 187.570312 222.914062 187.59375 C 222.945312 187.59375 222.96875 187.511719 223 187.507812 Z M 244.9375 146.144531 C 250.808594 145.996094 256.632812 146.117188 262.503906 146.230469 C 270.914062 146.390625 279.339844 146.804688 287.71875 147.574219 C 290.113281 147.792969 292.472656 147.9375 294.863281 148.246094 C 298.765625 148.75 303.1875 149.628906 305.871094 152.785156 C 307.308594 154.476562 308.171875 156.628906 308.730469 158.757812 C 309.058594 160.011719 309.257812 161.246094 309.402344 162.539062 C 310.210938 169.746094 308.914062 180.308594 301.25 183.472656 C 298.285156 184.699219 294.90625 184.75 291.75 184.734375 C 286.867188 184.710938 281.929688 184.492188 277.042969 184.398438 C 268.742188 184.242188 260.464844 184.140625 252.164062 183.894531 C 242.011719 183.59375 231.878906 183.050781 221.738281 182.464844 C 215.597656 182.148438 211.816406 177.773438 210.476562 172.210938 C 208.535156 164.167969 211.03125 153.890625 219.046875 150.179688 C 222.246094 148.703125 225.757812 147.957031 229.21875 147.40625 C 234.398438 146.585938 239.699219 146.277344 244.9375 146.144531 Z M 257.460938 107.554688 C 262.046875 107.585938 266.722656 107.730469 271.328125 108.058594 C 271.359375 108.0625 271.378906 108.054688 271.414062 108.058594 C 271.820312 108.089844 272.179688 108.191406 272.589844 108.226562 C 275.777344 108.484375 278.953125 108.699219 282.085938 109.234375 C 287.589844 110.175781 293.503906 111.75 297.972656 115.289062 C 302.9375 119.222656 304.917969 125.75 304.78125 131.9375 C 304.703125 135.433594 303.679688 139.347656 300.410156 141.183594 C 298.492188 142.261719 296.183594 142.570312 294.023438 142.613281 C 289.9375 142.691406 286.324219 142.582031 282.253906 142.277344 C 281.972656 142.257812 281.554688 142.214844 281.078125 142.191406 C 275.621094 141.8125 270.175781 141.382812 264.6875 141.269531 C 258.0625 141.128906 251.394531 141.015625 244.769531 141.183594 C 241.511719 141.265625 238.273438 141.40625 235.019531 141.6875 C 234.960938 141.6875 234.65625 141.769531 234.597656 141.773438 C 229.292969 142.132812 223.605469 143.179688 218.714844 140.429688 C 215.816406 138.796875 214.21875 135.875 213.585938 132.691406 C 212.308594 126.273438 214.332031 120.589844 219.386719 116.382812 C 223.042969 113.339844 227.617188 111.503906 232.160156 110.246094 C 240.386719 107.964844 248.964844 107.496094 257.460938 107.554688 Z M 217.871094 84.097656 C 216.582031 86.074219 215.566406 88.316406 215.183594 90.65625 C 214.097656 97.289062 216.921875 105.160156 223.167969 108.3125 C 220.015625 109.792969 216.996094 111.570312 214.511719 114.027344 C 212.207031 116.304688 210.371094 119.035156 209.300781 122.097656 C 206.5625 129.910156 208.660156 140.511719 216.277344 144.800781 C 216.808594 145.101562 217.324219 145.238281 217.871094 145.472656 C 217.121094 145.796875 216.320312 146.003906 215.601562 146.398438 C 206.339844 151.449219 203.339844 163.664062 205.683594 173.382812 C 206.824219 178.109375 209.480469 182.390625 213.585938 184.988281 C 205.816406 189.734375 202.492188 200.628906 204.507812 209.199219 C 205.679688 214.183594 209.011719 218.441406 213.25 221.222656 C 216.648438 223.453125 220.566406 224.863281 224.511719 225.765625 C 230.734375 227.179688 237.066406 227.640625 243.421875 228.035156 C 243.816406 228.058594 244.207031 228.09375 244.601562 228.117188 C 235.394531 231.542969 227.253906 237.433594 222.328125 246.195312 C 221.046875 248.472656 219.96875 250.921875 219.21875 253.425781 C 218.417969 256.085938 217.917969 258.808594 217.703125 261.578125 C 217.613281 262.75 217.507812 263.945312 217.621094 265.109375 C 217.742188 266.410156 218.625 267.644531 219.132812 268.8125 C 220.15625 271.152344 221.070312 273.597656 221.824219 276.042969 C 224.023438 283.191406 225.136719 290.667969 224.765625 298.152344 C 224.53125 302.867188 223.703125 307.640625 222.160156 312.109375 C 217.78125 324.789062 206.289062 337.082031 192.488281 338.425781 C 190.519531 338.617188 188.578125 338.628906 186.523438 338.339844 C 183.640625 337.9375 180.808594 337.109375 178.203125 335.820312 C 176.214844 334.835938 174.328125 333.546875 172.570312 332.203125 C 171.578125 331.445312 170.714844 330.777344 169.796875 329.933594 C 169.058594 329.257812 168.128906 328.414062 167.609375 327.496094 C 166.257812 325.09375 168.539062 321.382812 169.628906 319.425781 C 170.53125 317.800781 171.472656 316.15625 172.402344 314.546875 C 175.3125 309.5 177.832031 304.289062 179.125 298.574219 C 182.253906 284.769531 178.3125 270.78125 170.300781 259.394531 C 166.933594 254.609375 162.792969 250.339844 158.953125 245.941406 C 153.277344 239.433594 147.804688 232.734375 142.816406 225.679688 C 139.933594 221.605469 137.277344 217.429688 135 212.984375 C 134.742188 212.484375 134 211.054688 133.15625 208.871094 C 132.308594 206.6875 132.101562 205.910156 131.609375 204.246094 C 128.042969 192.183594 132.15625 185.472656 129.199219 184.820312 C 124.417969 183.765625 124.898438 196.746094 125.902344 201.363281 C 126.703125 205.03125 127.480469 208.113281 128.5 210.5 C 128.789062 211.175781 129.800781 213.582031 130.125 214.246094 C 125.164062 211.976562 119.667969 211.050781 114.070312 211.640625 C 109.789062 212.089844 105.769531 213.484375 101.546875 214.246094 C 93.882812 215.628906 85.523438 215.40625 78.9375 210.796875 C 71.625 205.683594 68.191406 196.679688 66.414062 188.265625 C 64.753906 180.40625 64.351562 172.316406 64.480469 164.304688 C 64.664062 153.164062 65.9375 141.960938 69.441406 131.347656 C 72.464844 122.183594 77.988281 111.070312 87.933594 107.972656 C 92.335938 106.601562 97.070312 107.121094 101.378906 108.5625 C 104.488281 109.601562 107.402344 111.035156 110.542969 112.007812 C 118.582031 114.507812 127.34375 115.273438 135.585938 113.269531 C 133.964844 115.316406 132.4375 117.445312 131.050781 119.660156 C 129.410156 122.269531 127.851562 125.085938 126.761719 127.984375 C 126.277344 129.273438 126.902344 130.695312 128.191406 131.179688 C 129.484375 131.664062 130.984375 130.957031 131.46875 129.664062 C 132.269531 127.476562 133.472656 125.429688 134.664062 123.441406 C 137.503906 118.707031 140.886719 114.359375 144.75 110.410156 C 159.347656 95.488281 179.335938 87.554688 199.800781 85.019531 C 205.792969 84.277344 211.847656 84.058594 217.871094 84.09375 Z M 249.726562 78.042969 C 256.3125 77.835938 262.855469 78.097656 269.394531 78.886719 C 274.140625 79.457031 279.15625 80.425781 283.179688 83.171875 C 287.351562 86.019531 289.550781 91.332031 289.652344 96.289062 C 289.703125 98.859375 288.882812 101.921875 286.457031 103.265625 C 284.992188 104.078125 283.125 104.101562 281.496094 104.023438 C 279.164062 103.910156 276.84375 103.585938 274.523438 103.351562 C 268.855469 102.824219 263.1875 102.546875 257.542969 102.511719 C 250.324219 102.460938 242.984375 102.789062 235.859375 104.191406 C 233.550781 104.636719 231.199219 105.136719 228.882812 104.949219 C 227.878906 104.867188 226.828125 104.652344 225.855469 104.277344 C 223.648438 103.414062 222.128906 101.550781 221.234375 99.398438 C 219.246094 94.625 219.625 89.082031 223.25 85.191406 C 225.53125 82.742188 228.585938 81.21875 231.738281 80.230469 C 237.433594 78.445312 243.730469 78.230469 249.726562 78.042969 Z M 248.046875 73.082031 C 239.695312 73.425781 229.796875 74.117188 222.746094 79.136719 C 211.632812 78.796875 200.460938 79.339844 189.546875 81.574219 C 172.851562 84.996094 157.085938 92.566406 144.496094 104.105469 C 144.453125 104.125 143.878906 104.589844 142.816406 105.199219 C 141.75 105.8125 141.125 106.132812 140.292969 106.546875 C 137.722656 107.816406 134.882812 108.605469 132.058594 109.066406 C 123.738281 110.429688 115.179688 108.597656 107.429688 105.535156 C 103.285156 103.898438 99.171875 102.410156 94.65625 102.257812 C 92.417969 102.179688 90.203125 102.253906 88.015625 102.761719 C 75.460938 105.679688 68.464844 118.445312 64.734375 129.75 C 63.933594 132.167969 63.226562 134.589844 62.632812 137.066406 C 61.878906 140.21875 61.34375 143.441406 60.867188 146.648438 C 60.300781 150.476562 59.902344 154.304688 59.691406 158.167969 C 59.507812 161.507812 59.410156 164.910156 59.4375 168.257812 C 59.460938 170.789062 59.527344 173.296875 59.691406 175.824219 C 60.722656 191.652344 65.171875 211.304688 81.628906 217.859375 C 84.710938 219.089844 87.984375 219.75 91.292969 219.964844 C 95.6875 220.246094 100.113281 219.707031 104.40625 218.785156 C 106.640625 218.308594 108.8125 217.660156 111.046875 217.1875 C 114.84375 216.390625 118.816406 216.136719 122.644531 216.851562 C 126.289062 217.535156 129.730469 219.101562 132.644531 221.390625 C 133.765625 222.273438 134.582031 222.800781 135.421875 223.828125 C 136.226562 224.820312 137.269531 226.265625 137.269531 226.269531 C 142.242188 233.585938 147.726562 240.496094 153.492188 247.203125 C 158.042969 252.5 163.117188 257.449219 167.023438 263.261719 C 175.148438 275.351562 177.816406 290 172.234375 303.785156 C 170.355469 308.417969 167.675781 312.632812 165.257812 316.984375 C 163.410156 320.308594 161.375 324.257812 162.484375 328.167969 C 163.125 330.433594 164.742188 332 166.433594 333.546875 C 168.402344 335.351562 170.472656 337.011719 172.738281 338.425781 C 175.761719 340.308594 179.023438 341.84375 182.488281 342.710938 C 184.40625 343.195312 186.316406 343.449219 188.203125 343.554688 C 201.394531 344.289062 213.539062 336.171875 220.980469 325.308594 C 229.121094 313.429688 231.234375 298.726562 228.96875 284.699219 C 228.167969 279.75 226.867188 274.847656 225.101562 270.15625 C 224.609375 268.855469 224.070312 267.558594 223.503906 266.289062 C 223.261719 265.746094 223.007812 265.222656 222.746094 264.691406 C 222.722656 264.636719 222.6875 264.570312 222.664062 264.523438 C 222.664062 264.167969 222.652344 263.867188 222.664062 263.511719 C 222.679688 263 222.707031 262.511719 222.746094 262 C 222.96875 259.128906 223.558594 256.222656 224.511719 253.507812 C 228.4375 242.335938 238.445312 234.964844 249.476562 231.648438 C 255.542969 229.824219 261.320312 229.121094 267.628906 229.546875 C 267.707031 229.550781 268.128906 229.523438 268.386719 229.546875 C 270.277344 229.65625 272.128906 229.777344 274.019531 229.882812 C 278.800781 230.148438 283.601562 230.617188 288.390625 230.722656 C 294.203125 230.851562 300.355469 230.183594 305.199219 226.6875 C 308.804688 224.085938 311.144531 220.214844 312.429688 216.011719 C 314.886719 207.96875 314.019531 198.777344 308.140625 192.386719 C 306.449219 190.542969 304.464844 189.285156 302.34375 188.179688 C 303 187.941406 303.738281 187.835938 304.359375 187.507812 C 313.765625 182.546875 315.71875 170.007812 314.195312 160.4375 C 313.570312 156.535156 312.246094 152.640625 309.65625 149.589844 C 307.941406 147.574219 305.808594 146.179688 303.433594 145.21875 C 307.242188 142.796875 309.171875 138.519531 309.65625 134.121094 C 310.527344 126.183594 307.976562 117.316406 301.839844 112.007812 C 298.597656 109.207031 294.578125 107.546875 290.492188 106.292969 C 296.683594 101 294.894531 89.96875 290.828125 83.84375 C 289.8125 82.316406 288.570312 80.941406 287.128906 79.808594 C 282.570312 76.222656 276.625 74.84375 270.992188 74.09375 C 263.390625 73.078125 255.707031 72.769531 248.046875 73.082031 Z M 248.046875 73.082031 " fill-opacity="1" fill-rule="nonzero"/></g><path stroke-linecap="butt" transform="matrix(0.75, 0, 0, 0.75, 143.980454, 27.500025)" fill="none" stroke-linejoin="miter" d="M 11.572937 20.109344 L 11.572937 43.99997 L 2.802103 43.99997 L 2.802103 5.505176 L 11.572937 5.505176 L 26.875021 29.395803 L 26.963563 29.395803 L 26.963563 5.505176 L 35.744813 5.505176 L 35.744813 43.99997 L 26.963563 43.99997 L 11.666687 20.109344 Z M 56.411481 -0.520866 C 55.16669 -1.104199 53.97919 -1.395866 52.859398 -1.395866 C 52.421898 -1.395866 52.031273 -1.218783 51.671898 -0.859408 C 51.317731 -0.505241 51.078148 -0.140658 50.953148 0.234342 L 50.760439 0.744759 L 46.046897 0.744759 C 46.083356 0.526009 46.140647 0.239551 46.213564 -0.119824 C 46.291689 -0.479199 46.494814 -1.114616 46.817731 -2.031283 C 47.145856 -2.953158 47.520856 -3.770866 47.937522 -4.484408 C 48.359398 -5.19795 48.968773 -5.838575 49.760439 -6.406283 C 50.557314 -6.984408 51.437523 -7.276075 52.401064 -7.276075 C 52.927106 -7.276075 53.588565 -7.171908 54.395856 -6.963575 C 55.208356 -6.770866 55.895856 -6.562533 56.458356 -6.348991 L 57.244815 -6.020866 C 58.489607 -5.427116 59.671898 -5.130241 60.796898 -5.130241 C 61.22919 -5.130241 61.625023 -5.312533 61.984398 -5.6667 C 62.338565 -6.026075 62.583357 -6.390658 62.708357 -6.76045 L 62.890648 -7.276075 L 67.609399 -7.276075 C 67.578149 -7.062533 67.520857 -6.776075 67.437524 -6.4167 C 67.364607 -6.062533 67.161482 -5.421908 66.833357 -4.505241 C 66.51044 -3.588575 66.13544 -2.770866 65.718774 -2.057324 C 65.302107 -1.343783 64.692732 -0.697949 63.895857 -0.119824 C 63.10419 0.458301 62.22919 0.744759 61.265648 0.744759 C 60.734398 0.744759 60.062523 0.645801 59.250023 0.447884 C 58.442732 0.244759 57.76044 0.0312173 57.19794 -0.187533 Z M 60.890648 5.505176 L 76.427108 43.99997 L 67.005232 43.99997 L 64.156274 36.296845 L 49.510439 36.296845 L 46.661481 43.99997 L 37.229188 43.99997 L 52.765648 5.505176 Z M 61.171898 28.598928 L 56.880231 17.40101 L 56.786481 17.40101 L 52.494814 28.598928 Z M 76.187524 24.723927 C 76.187524 19.156219 78.083358 14.447885 81.885441 10.58851 C 85.682317 6.729134 90.250025 4.802051 95.598984 4.802051 C 100.984401 4.802051 105.557318 6.723926 109.312527 10.567676 C 113.08336 14.406218 114.963569 19.130177 114.963569 24.723927 C 114.963569 30.359344 113.109402 35.098928 109.406277 38.942678 C 105.70836 42.776012 101.104193 44.692679 95.598984 44.692679 C 89.968775 44.692679 85.32815 42.791637 81.666691 38.989553 C 78.015649 35.177053 76.187524 30.421844 76.187524 24.723927 Z M 85.666692 24.723927 C 85.666692 26.755177 85.973983 28.598928 86.598983 30.260386 C 87.223983 31.927053 88.307317 33.333303 89.8594 34.489553 C 91.411484 35.635386 93.32815 36.208303 95.598984 36.208303 C 98.864609 36.208303 101.328151 35.088511 102.989609 32.848928 C 104.656276 30.609344 105.484401 27.901011 105.484401 24.723927 C 105.484401 21.58851 104.640651 18.890594 102.947943 16.635385 C 101.250026 14.380177 98.802109 13.255177 95.598984 13.255177 C 92.4219 13.255177 89.973984 14.380177 88.250025 16.635385 C 86.526067 18.890594 85.666692 21.58851 85.666692 24.723927 Z M 85.666692 24.723927 " stroke="#ffffff" stroke-width="3.49995" stroke-opacity="1" stroke-miterlimit="4"/><g fill="#000000" fill-opacity="1"><g transform="translate(143.980454, 60.500022)"><g><path d="M 8.6875 -17.921875 L 8.6875 0 L 2.09375 0 L 2.09375 -28.875 L 8.6875 -28.875 L 20.15625 -10.953125 L 20.234375 -10.953125 L 20.234375 -28.875 L 26.8125 -28.875 L 26.8125 0 L 20.234375 0 L 8.75 -17.921875 Z M 8.6875 -17.921875 "/></g></g></g><g fill="#000000" fill-opacity="1"><g transform="translate(172.883925, 60.500022)"><g><path d="M 13.40625 -33.390625 C 12.46875 -33.835938 11.582031 -34.0625 10.75 -34.0625 C 10.414062 -34.0625 10.113281 -33.925781 9.84375 -33.65625 C 9.582031 -33.382812 9.40625 -33.109375 9.3125 -32.828125 L 9.171875 -32.4375 L 5.640625 -32.4375 C 5.660156 -32.601562 5.695312 -32.820312 5.75 -33.09375 C 5.8125 -33.363281 5.960938 -33.84375 6.203125 -34.53125 C 6.453125 -35.21875 6.734375 -35.828125 7.046875 -36.359375 C 7.367188 -36.898438 7.828125 -37.382812 8.421875 -37.8125 C 9.015625 -38.25 9.671875 -38.46875 10.390625 -38.46875 C 10.785156 -38.46875 11.285156 -38.390625 11.890625 -38.234375 C 12.503906 -38.085938 13.019531 -37.929688 13.4375 -37.765625 L 14.03125 -37.515625 C 14.96875 -37.078125 15.851562 -36.859375 16.6875 -36.859375 C 17.019531 -36.859375 17.316406 -36.988281 17.578125 -37.25 C 17.847656 -37.519531 18.03125 -37.796875 18.125 -38.078125 L 18.265625 -38.46875 L 21.8125 -38.46875 C 21.78125 -38.300781 21.734375 -38.082031 21.671875 -37.8125 C 21.617188 -37.550781 21.46875 -37.070312 21.21875 -36.375 C 20.976562 -35.6875 20.703125 -35.070312 20.390625 -34.53125 C 20.078125 -34 19.617188 -33.515625 19.015625 -33.078125 C 18.421875 -32.648438 17.765625 -32.4375 17.046875 -32.4375 C 16.648438 -32.4375 16.144531 -32.515625 15.53125 -32.671875 C 14.925781 -32.828125 14.414062 -32.984375 14 -33.140625 Z M 16.765625 -28.875 L 28.421875 0 L 21.34375 0 L 19.21875 -5.78125 L 8.21875 -5.78125 L 6.09375 0 L -0.984375 0 L 10.671875 -28.875 Z M 16.96875 -11.546875 L 13.75 -19.953125 L 13.6875 -19.953125 L 10.46875 -11.546875 Z M 16.96875 -11.546875 "/></g></g></g><g fill="#000000" fill-opacity="1"><g transform="translate(200.317735, 60.500022)"><g><path d="M 0.8125 -14.453125 C 0.8125 -18.628906 2.234375 -22.164062 5.078125 -25.0625 C 7.921875 -27.957031 11.347656 -29.40625 15.359375 -29.40625 C 19.398438 -29.40625 22.832031 -27.960938 25.65625 -25.078125 C 28.476562 -22.191406 29.890625 -18.648438 29.890625 -14.453125 C 29.890625 -10.234375 28.5 -6.679688 25.71875 -3.796875 C 22.945312 -0.910156 19.492188 0.53125 15.359375 0.53125 C 11.140625 0.53125 7.660156 -0.894531 4.921875 -3.75 C 2.179688 -6.613281 0.8125 -10.179688 0.8125 -14.453125 Z M 7.90625 -14.453125 C 7.90625 -12.941406 8.140625 -11.5625 8.609375 -10.3125 C 9.078125 -9.0625 9.894531 -8.003906 11.0625 -7.140625 C 12.226562 -6.273438 13.660156 -5.84375 15.359375 -5.84375 C 17.816406 -5.84375 19.664062 -6.679688 20.90625 -8.359375 C 22.15625 -10.046875 22.78125 -12.078125 22.78125 -14.453125 C 22.78125 -16.804688 22.144531 -18.828125 20.875 -20.515625 C 19.601562 -22.210938 17.765625 -23.0625 15.359375 -23.0625 C 12.984375 -23.0625 11.144531 -22.210938 9.84375 -20.515625 C 8.550781 -18.828125 7.90625 -16.804688 7.90625 -14.453125 Z M 7.90625 -14.453125 "/></g></g></g></svg>