<svg xmlns="http://www.w3.org/2000/svg" xmlns:xlink="http://www.w3.org/1999/xlink" width="500" zoomAndPan="magnify" viewBox="0 0 375 374.999991" height="500" preserveAspectRatio="xMidYMid meet" version="1.0"><defs><g/><clipPath id="3a698ac173"><path d="M 122.0625 71 L 252 71 L 252 336 L 122.0625 336 Z M 122.0625 71 " clip-rule="nonzero"/></clipPath></defs><rect x="-37.5" width="450" fill="#ffffff" y="-37.499999" height="449.999989" fill-opacity="1"/><rect x="-37.5" width="450" fill="#ffde59" y="-37.499999" height="449.999989" fill-opacity="1"/><g clip-path="url(#3a698ac173)"><path fill="#000000" d="M 186.761719 71.5 C 185.851562 71.5 184.949219 71.546875 184.042969 71.632812 C 183.140625 71.722656 182.242188 71.855469 181.351562 72.03125 C 180.460938 72.207031 179.582031 72.429688 178.710938 72.691406 C 177.84375 72.953125 176.988281 73.257812 176.148438 73.605469 C 175.3125 73.953125 174.492188 74.339844 173.691406 74.765625 C 172.890625 75.191406 172.109375 75.65625 171.355469 76.160156 C 170.601562 76.664062 169.871094 77.203125 169.171875 77.777344 C 168.46875 78.351562 167.796875 78.957031 167.152344 79.597656 C 166.511719 80.238281 165.902344 80.910156 165.328125 81.609375 C 164.75 82.308594 164.210938 83.035156 163.707031 83.789062 C 163.203125 84.539062 162.734375 85.316406 162.308594 86.113281 C 161.878906 86.914062 161.492188 87.730469 161.144531 88.566406 C 160.796875 89.402344 160.488281 90.253906 160.226562 91.121094 C 159.964844 91.988281 159.742188 92.867188 159.566406 93.753906 C 159.386719 94.640625 159.253906 95.535156 159.167969 96.4375 C 159.078125 97.339844 159.03125 98.242188 159.03125 99.148438 C 159.03125 100.054688 159.078125 100.957031 159.167969 101.859375 C 159.253906 102.757812 159.386719 103.652344 159.566406 104.542969 C 159.742188 105.429688 159.964844 106.308594 160.226562 107.171875 C 160.488281 108.039062 160.796875 108.890625 161.144531 109.726562 C 161.492188 110.566406 161.878906 111.382812 162.308594 112.179688 C 162.734375 112.980469 163.203125 113.753906 163.707031 114.507812 C 164.210938 115.261719 164.75 115.988281 165.328125 116.6875 C 165.902344 117.386719 166.511719 118.058594 167.152344 118.699219 C 167.796875 119.335938 168.46875 119.945312 169.171875 120.519531 C 169.871094 121.09375 170.601562 121.632812 171.355469 122.136719 C 172.109375 122.636719 172.890625 123.105469 173.691406 123.53125 C 174.492188 123.957031 175.3125 124.34375 176.148438 124.691406 C 176.988281 125.035156 177.84375 125.339844 178.710938 125.605469 C 179.582031 125.867188 180.460938 126.085938 181.351562 126.265625 C 182.242188 126.441406 183.140625 126.574219 184.042969 126.660156 C 184.949219 126.75 185.851562 126.796875 186.761719 126.796875 C 187.667969 126.796875 188.574219 126.75 189.480469 126.660156 C 190.382812 126.574219 191.28125 126.441406 192.171875 126.265625 C 193.0625 126.085938 193.941406 125.867188 194.8125 125.605469 C 195.679688 125.339844 196.535156 125.035156 197.371094 124.691406 C 198.210938 124.34375 199.03125 123.957031 199.832031 123.53125 C 200.632812 123.105469 201.410156 122.636719 202.167969 122.136719 C 202.921875 121.632812 203.652344 121.09375 204.351562 120.519531 C 205.054688 119.945312 205.726562 119.335938 206.367188 118.699219 C 207.011719 118.058594 207.621094 117.386719 208.195312 116.6875 C 208.773438 115.988281 209.3125 115.261719 209.816406 114.507812 C 210.320312 113.753906 210.789062 112.980469 211.214844 112.179688 C 211.644531 111.382812 212.03125 110.566406 212.378906 109.726562 C 212.726562 108.890625 213.03125 108.039062 213.296875 107.171875 C 213.558594 106.308594 213.78125 105.429688 213.957031 104.542969 C 214.132812 103.652344 214.269531 102.757812 214.355469 101.859375 C 214.445312 100.957031 214.492188 100.054688 214.492188 99.148438 C 214.492188 98.242188 214.445312 97.339844 214.355469 96.4375 C 214.269531 95.535156 214.132812 94.640625 213.957031 93.753906 C 213.78125 92.867188 213.558594 91.988281 213.296875 91.121094 C 213.03125 90.253906 212.726562 89.402344 212.378906 88.566406 C 212.03125 87.730469 211.644531 86.914062 211.214844 86.113281 C 210.789062 85.316406 210.320312 84.539062 209.816406 83.789062 C 209.3125 83.035156 208.773438 82.308594 208.195312 81.609375 C 207.621094 80.910156 207.011719 80.238281 206.367188 79.597656 C 205.726562 78.957031 205.054688 78.351562 204.351562 77.777344 C 203.652344 77.203125 202.921875 76.664062 202.167969 76.160156 C 201.410156 75.65625 200.632812 75.191406 199.832031 74.765625 C 199.03125 74.339844 198.210938 73.953125 197.371094 73.605469 C 196.535156 73.257812 195.679688 72.953125 194.8125 72.691406 C 193.941406 72.429688 193.0625 72.207031 192.171875 72.03125 C 191.28125 71.855469 190.382812 71.722656 189.480469 71.632812 C 188.574219 71.546875 187.667969 71.5 186.761719 71.5 Z M 122.214844 163.65625 C 123.78125 146.46875 138.304688 132.9375 155.953125 132.9375 L 211.410156 132.9375 C 224.664062 132.9375 235.6875 139.554688 238.847656 149.410156 C 238.875 149.496094 238.855469 149.582031 238.878906 149.664062 C 238.890625 149.699219 238.917969 149.722656 238.929688 149.753906 L 250.890625 193.472656 C 253.519531 204.445312 244.75 214.457031 228.605469 209.582031 C 228.5625 209.566406 228.535156 209.527344 228.484375 209.515625 L 183.53125 195.054688 C 178.78125 193.523438 176.003906 188.539062 177.214844 183.707031 C 177.863281 181.105469 179.519531 178.96875 181.875 177.683594 C 184.234375 176.386719 186.933594 176.15625 189.472656 177.003906 L 213.527344 185 C 215.15625 185.546875 216.886719 184.65625 217.421875 183.058594 C 217.960938 181.449219 217.089844 179.710938 215.476562 179.171875 L 191.417969 171.171875 C 187.292969 169.800781 182.730469 170.214844 178.910156 172.300781 C 175.089844 174.398438 172.292969 178.011719 171.238281 182.226562 C 169.242188 190.1875 173.816406 198.390625 181.640625 200.902344 L 220.652344 213.453125 L 220.652344 320.324219 C 220.652344 328.808594 213.757812 335.683594 205.246094 335.683594 C 196.738281 335.683594 189.84375 328.804688 189.84375 320.324219 L 189.84375 240.457031 C 189.84375 238.761719 188.460938 237.382812 186.761719 237.382812 C 185.0625 237.382812 183.679688 238.761719 183.679688 240.457031 L 183.679688 320.324219 C 183.679688 328.808594 176.785156 335.683594 168.277344 335.683594 C 159.765625 335.683594 152.871094 328.804688 152.871094 320.324219 L 152.871094 179.015625 C 152.871094 177.320312 151.492188 175.945312 149.789062 175.945312 C 148.089844 175.945312 146.707031 177.320312 146.707031 179.015625 L 146.707031 243.527344 C 146.707031 250.316406 141.195312 255.816406 134.382812 255.816406 C 127.574219 255.816406 122.0625 250.316406 122.0625 243.527344 L 122.0625 163.65625 Z M 122.214844 163.65625 " fill-opacity="1" fill-rule="nonzero"/></g><path stroke-linecap="butt" transform="matrix(0.75, 0, 0, 0.75, 164.332026, 13.124999)" fill="none" stroke-linejoin="miter" d="M 24.822926 5.50521 L 24.822926 13.208335 L 11.572925 13.208335 L 11.572925 20.854169 L 24.265634 20.854169 L 24.265634 28.552086 L 11.572925 28.552086 L 11.572925 36.296879 L 24.822926 36.296879 L 24.822926 44.000004 L 2.802091 44.000004 L 2.802091 5.50521 Z M 59.447928 5.50521 L 59.447928 30.328128 C 59.447928 35.052087 58.171886 38.630212 55.619803 41.062504 C 53.067719 43.484379 49.333344 44.692712 44.421885 44.692712 C 39.505218 44.692712 35.776051 43.484379 33.223968 41.062504 C 30.671884 38.630212 29.395843 35.052087 29.395843 30.328128 L 29.395843 5.50521 L 38.166677 5.50521 L 38.166677 27.765628 C 38.166677 30.875003 38.65626 33.031253 39.635427 34.250003 C 40.614593 35.463545 42.213552 36.07292 44.421885 36.07292 C 46.630219 36.07292 48.223969 35.463545 49.208344 34.250003 C 50.187511 33.031253 50.677094 30.875003 50.677094 27.765628 L 50.677094 5.50521 Z M 59.447928 5.50521 " stroke="#ffffff" stroke-width="3.49995" stroke-opacity="1" stroke-miterlimit="4"/><g fill="#000000" fill-opacity="1"><g transform="translate(164.332026, 46.124997)"><g><path d="M 18.625 -28.875 L 18.625 -23.09375 L 8.6875 -23.09375 L 8.6875 -17.359375 L 18.203125 -17.359375 L 18.203125 -11.578125 L 8.6875 -11.578125 L 8.6875 -5.78125 L 18.625 -5.78125 L 18.625 0 L 2.09375 0 L 2.09375 -28.875 Z M 18.625 -28.875 "/></g></g></g><g fill="#000000" fill-opacity="1"><g transform="translate(184.627446, 46.124997)"><g><path d="M 24.296875 -28.875 L 24.296875 -10.25 C 24.296875 -6.707031 23.335938 -4.023438 21.421875 -2.203125 C 19.503906 -0.378906 16.703125 0.53125 13.015625 0.53125 C 9.328125 0.53125 6.523438 -0.378906 4.609375 -2.203125 C 2.703125 -4.023438 1.75 -6.707031 1.75 -10.25 L 1.75 -28.875 L 8.328125 -28.875 L 8.328125 -12.1875 C 8.328125 -9.851562 8.691406 -8.226562 9.421875 -7.3125 C 10.160156 -6.40625 11.359375 -5.953125 13.015625 -5.953125 C 14.671875 -5.953125 15.863281 -6.40625 16.59375 -7.3125 C 17.332031 -8.226562 17.703125 -9.851562 17.703125 -12.1875 L 17.703125 -28.875 Z M 24.296875 -28.875 "/></g></g></g></svg>