<svg xmlns="http://www.w3.org/2000/svg" xmlns:xlink="http://www.w3.org/1999/xlink" width="500" zoomAndPan="magnify" viewBox="0 0 375 374.999991" height="500" preserveAspectRatio="xMidYMid meet" version="1.0"><defs><g/><clipPath id="acf1614b1f"><path d="M 259 149 L 306.5625 149 L 306.5625 246 L 259 246 Z M 259 149 " clip-rule="nonzero"/></clipPath><clipPath id="99ea0534c9"><path d="M 68.0625 149 L 115 149 L 115 246 L 68.0625 246 Z M 68.0625 149 " clip-rule="nonzero"/></clipPath><clipPath id="8a4000f11b"><path d="M 142 268 L 151 268 L 151 290.433594 L 142 290.433594 Z M 142 268 " clip-rule="nonzero"/></clipPath><clipPath id="7cb0c159ab"><path d="M 224 268 L 232 268 L 232 290.433594 L 224 290.433594 Z M 224 268 " clip-rule="nonzero"/></clipPath><clipPath id="3f4fd6efe1"><path d="M 105 84.933594 L 173 84.933594 L 173 156 L 105 156 Z M 105 84.933594 " clip-rule="nonzero"/></clipPath><clipPath id="8940ba107e"><path d="M 202 84.933594 L 270 84.933594 L 270 156 L 202 156 Z M 202 84.933594 " clip-rule="nonzero"/></clipPath><clipPath id="396912d67d"><path d="M 116 194 L 164 194 L 164 290.433594 L 116 290.433594 Z M 116 194 " clip-rule="nonzero"/></clipPath><clipPath id="289393a83a"><path d="M 211 194 L 259 194 L 259 290.433594 L 211 290.433594 Z M 211 194 " clip-rule="nonzero"/></clipPath></defs><rect x="-37.5" width="450" fill="#ffffff" y="-37.499999" height="449.999989" fill-opacity="1"/><rect x="-37.5" width="450" fill="#ffde59" y="-37.499999" height="449.999989" fill-opacity="1"/><g clip-path="url(#acf1614b1f)"><path fill="#000000" d="M 267.375 149.386719 C 265.140625 151.816406 262.535156 154.054688 259.742188 155.925781 C 281.527344 156.859375 299.03125 174.980469 299.03125 197.023438 L 299.03125 241.859375 C 299.03125 243.917969 300.707031 245.597656 302.753906 245.597656 C 304.800781 245.597656 306.476562 243.917969 306.476562 241.859375 L 306.476562 197.023438 C 306.476562 173.484375 289.535156 153.683594 267.375 149.386719 Z M 267.375 149.386719 " fill-opacity="1" fill-rule="nonzero"/></g><path fill="#000000" d="M 276.6875 223.179688 C 274.636719 223.179688 272.960938 224.859375 272.960938 226.914062 L 272.960938 241.859375 C 272.960938 243.917969 274.636719 245.597656 276.6875 245.597656 C 278.734375 245.597656 280.410156 243.917969 280.410156 241.859375 L 280.410156 226.914062 C 280.410156 224.859375 278.734375 223.179688 276.6875 223.179688 Z M 276.6875 223.179688 " fill-opacity="1" fill-rule="nonzero"/><g clip-path="url(#99ea0534c9)"><path fill="#000000" d="M 107.25 149.386719 C 85.09375 153.683594 68.148438 173.484375 68.148438 197.023438 L 68.148438 241.859375 C 68.148438 243.917969 69.824219 245.597656 71.875 245.597656 C 73.921875 245.597656 75.597656 243.917969 75.597656 241.859375 L 75.597656 197.023438 C 75.597656 174.980469 93.097656 156.859375 114.882812 155.925781 C 112.089844 154.054688 109.484375 151.816406 107.25 149.386719 Z M 107.25 149.386719 " fill-opacity="1" fill-rule="nonzero"/></g><path fill="#000000" d="M 97.941406 223.179688 C 95.890625 223.179688 94.214844 224.859375 94.214844 226.914062 L 94.214844 241.859375 C 94.214844 243.917969 95.890625 245.597656 97.941406 245.597656 C 99.988281 245.597656 101.664062 243.917969 101.664062 241.859375 L 101.664062 226.914062 C 101.664062 224.859375 99.988281 223.179688 97.941406 223.179688 Z M 97.941406 223.179688 " fill-opacity="1" fill-rule="nonzero"/><path fill="#000000" d="M 187.3125 129.769531 C 168.878906 129.769531 153.796875 145.648438 153.796875 165.265625 C 153.796875 184.882812 168.878906 200.761719 187.3125 200.761719 C 205.746094 200.761719 220.828125 184.882812 220.828125 165.265625 C 220.828125 145.648438 205.746094 129.769531 187.3125 129.769531 Z M 187.3125 193.289062 C 172.976562 193.289062 161.246094 180.773438 161.246094 165.265625 C 161.246094 149.757812 172.976562 137.242188 187.3125 137.242188 C 201.648438 137.242188 213.378906 149.757812 213.378906 165.265625 C 213.378906 180.773438 201.648438 193.289062 187.3125 193.289062 Z M 187.3125 193.289062 " fill-opacity="1" fill-rule="nonzero"/><g clip-path="url(#8a4000f11b)"><path fill="#000000" d="M 146.351562 268.015625 C 144.300781 268.015625 142.625 269.695312 142.625 271.753906 L 142.625 286.699219 C 142.625 288.753906 144.300781 290.433594 146.351562 290.433594 C 148.398438 290.433594 150.074219 288.753906 150.074219 286.699219 L 150.074219 271.753906 C 150.074219 269.695312 148.398438 268.015625 146.351562 268.015625 Z M 146.351562 268.015625 " fill-opacity="1" fill-rule="nonzero"/></g><g clip-path="url(#7cb0c159ab)"><path fill="#000000" d="M 228.277344 268.015625 C 226.226562 268.015625 224.550781 269.695312 224.550781 271.753906 L 224.550781 286.699219 C 224.550781 288.753906 226.226562 290.433594 228.277344 290.433594 C 230.324219 290.433594 232 288.753906 232 286.699219 L 232 271.753906 C 232 269.695312 230.324219 268.015625 228.277344 268.015625 Z M 228.277344 268.015625 " fill-opacity="1" fill-rule="nonzero"/></g><g clip-path="url(#3f4fd6efe1)"><path fill="#000000" d="M 145.605469 155.175781 C 146.351562 152 147.46875 149.011719 148.769531 146.210938 C 145.792969 147.703125 142.441406 148.453125 138.902344 148.453125 C 124.566406 148.453125 112.835938 135.933594 112.835938 120.429688 C 112.835938 104.921875 124.566406 92.40625 138.902344 92.40625 C 153.238281 92.40625 164.96875 104.921875 164.96875 120.429688 C 164.96875 123.605469 164.410156 126.78125 163.480469 129.582031 C 166.085938 127.714844 169.066406 126.21875 172.046875 125.101562 C 172.230469 123.605469 172.417969 121.921875 172.417969 120.429688 C 172.417969 100.8125 157.335938 84.933594 138.902344 84.933594 C 120.46875 84.933594 105.386719 100.8125 105.386719 120.429688 C 105.386719 140.046875 120.46875 155.925781 138.902344 155.925781 C 141.136719 155.925781 143.558594 155.738281 145.605469 155.175781 Z M 145.605469 155.175781 " fill-opacity="1" fill-rule="nonzero"/></g><g clip-path="url(#8940ba107e)"><path fill="#000000" d="M 235.722656 84.933594 C 217.289062 84.933594 202.207031 100.8125 202.207031 120.429688 C 202.207031 122.109375 202.394531 123.605469 202.582031 125.101562 C 205.558594 126.21875 208.539062 127.714844 211.144531 129.582031 C 210.214844 126.78125 209.65625 123.605469 209.65625 120.429688 C 209.65625 104.921875 221.386719 92.40625 235.722656 92.40625 C 250.0625 92.40625 261.789062 104.921875 261.789062 120.429688 C 261.789062 135.933594 250.0625 148.453125 235.722656 148.453125 C 232.1875 148.453125 228.835938 147.703125 225.667969 146.210938 C 226.972656 149.011719 228.089844 152 228.835938 155.175781 C 231.070312 155.738281 233.304688 155.925781 235.539062 155.925781 C 253.96875 155.925781 269.050781 140.046875 269.050781 120.429688 C 269.050781 100.8125 254.15625 84.933594 235.722656 84.933594 Z M 235.722656 84.933594 " fill-opacity="1" fill-rule="nonzero"/></g><g clip-path="url(#396912d67d)"><path fill="#000000" d="M 155.660156 194.222656 C 133.316406 198.519531 116.558594 218.320312 116.558594 241.859375 L 116.558594 286.699219 C 116.558594 288.753906 118.234375 290.433594 120.285156 290.433594 C 122.332031 290.433594 124.007812 288.753906 124.007812 286.699219 L 124.007812 241.859375 C 124.007812 219.816406 141.507812 201.695312 163.292969 200.761719 C 160.5 198.894531 157.894531 196.652344 155.660156 194.222656 Z M 155.660156 194.222656 " fill-opacity="1" fill-rule="nonzero"/></g><g clip-path="url(#289393a83a)"><path fill="#000000" d="M 218.964844 194.222656 C 216.730469 196.652344 214.125 198.894531 211.332031 200.761719 C 233.117188 201.695312 250.621094 219.816406 250.621094 241.859375 L 250.621094 286.699219 C 250.621094 288.753906 252.296875 290.433594 254.34375 290.433594 C 256.390625 290.433594 258.066406 288.753906 258.066406 286.699219 L 258.066406 241.859375 C 258.066406 218.320312 241.125 198.519531 218.964844 194.222656 Z M 218.964844 194.222656 " fill-opacity="1" fill-rule="nonzero"/></g><path stroke-linecap="butt" transform="matrix(0.75, 0, 0, 0.75, 145.941396, 34.000047)" fill="none" stroke-linejoin="miter" d="M 11.572931 20.109314 L 11.572931 43.999941 L 2.802098 43.999941 L 2.802098 5.510355 L 11.572931 5.510355 L 26.875016 29.395773 L 26.963557 29.395773 L 26.963557 5.510355 L 35.744808 5.510355 L 35.744808 43.999941 L 26.963557 43.999941 L 11.666681 20.109314 Z M 54.406268 -1.541729 L 63.875018 -9.755271 L 68.11981 -4.390687 L 57.015643 2.05723 Z M 39.609392 24.723898 C 39.609392 19.156189 41.505225 14.447856 45.3021 10.58848 C 49.104184 6.729105 53.671893 4.802022 59.020851 4.802022 C 64.406268 4.802022 68.973977 6.723897 72.734394 10.567647 C 76.500019 14.406189 78.385436 19.130147 78.385436 24.723898 C 78.385436 30.359315 76.531269 35.098899 72.828144 38.942649 C 69.130227 42.775982 64.52606 44.692649 59.020851 44.692649 C 53.390643 44.692649 48.750017 42.791607 45.088559 38.989524 C 41.437517 35.177024 39.609392 30.421815 39.609392 24.723898 Z M 49.088559 24.723898 C 49.088559 26.755148 49.395851 28.598898 50.020851 30.260357 C 50.645851 31.927023 51.729184 33.333273 53.281268 34.489524 C 54.833351 35.635357 56.750018 36.208274 59.020851 36.208274 C 62.286476 36.208274 64.750018 35.088482 66.411477 32.848898 C 68.078144 30.609315 68.906269 27.900981 68.906269 24.723898 C 68.906269 21.588481 68.062519 18.890564 66.36981 16.635356 C 64.671893 14.380147 62.223976 13.255147 59.020851 13.255147 C 55.843768 13.255147 53.395851 14.380147 51.671892 16.635356 C 49.947934 18.890564 49.088559 21.588481 49.088559 24.723898 Z M 96.442729 4.802022 C 98.520854 4.802022 100.557312 5.104105 102.546896 5.71348 C 104.541688 6.322855 106.026063 6.921813 106.989604 7.510355 L 108.390646 8.447855 L 104.833354 15.442647 C 104.557313 15.260356 104.161479 15.020772 103.661479 14.723897 C 103.166687 14.427022 102.239604 14.031189 100.869812 13.536397 C 99.505229 13.036397 98.229187 12.786397 97.041687 12.786397 C 95.583354 12.786397 94.458354 13.098897 93.661479 13.718689 C 92.869812 14.343689 92.473978 15.182231 92.473978 16.239522 C 92.473978 16.770772 92.661478 17.260356 93.036478 17.708272 C 93.40627 18.156189 94.041687 18.640564 94.947937 19.156189 C 95.854187 19.661398 96.645854 20.072856 97.328145 20.385356 C 98.010437 20.697856 99.067729 21.161398 100.494812 21.786398 C 102.984396 22.848898 105.109396 24.291606 106.864604 26.114523 C 108.625021 27.932231 109.50523 29.989523 109.50523 32.291607 C 109.50523 34.49994 109.109396 36.427024 108.312521 38.078065 C 107.520854 39.723899 106.432313 41.015566 105.041688 41.947857 C 103.656271 42.885357 102.130229 43.572857 100.447937 44.020774 C 98.770854 44.468691 96.953145 44.692649 94.994812 44.692649 C 93.317729 44.692649 91.666687 44.525983 90.052103 44.182232 C 88.432312 43.838482 87.078145 43.416607 85.984395 42.906191 C 84.895853 42.390566 83.916686 41.885357 83.041686 41.390566 C 82.177103 40.890566 81.541686 40.468691 81.130228 40.124941 L 80.526061 39.614524 L 84.911478 32.244732 C 85.286478 32.557232 85.796895 32.953065 86.447936 33.43744 C 87.104186 33.916607 88.260437 34.56244 89.921895 35.37494 C 91.59377 36.182232 93.067728 36.583274 94.34377 36.583274 C 98.041687 36.583274 99.890646 35.322857 99.890646 32.802023 C 99.890646 32.270773 99.760437 31.78119 99.494812 31.333273 C 99.229187 30.885357 98.760437 30.43744 98.09377 29.989523 C 97.421895 29.53119 96.833354 29.171815 96.31252 28.90619 C 95.807312 28.640565 94.96877 28.239523 93.796895 27.697856 C 92.635437 27.150981 91.776062 26.739523 91.213562 26.458273 C 88.880228 25.302023 87.078145 23.864523 85.802103 22.140564 C 84.526061 20.416606 83.885436 18.557231 83.885436 16.567647 C 83.885436 13.114522 85.161478 10.286397 87.713561 8.093688 C 90.265645 5.90098 93.177103 4.802022 96.442729 4.802022 Z M 96.442729 4.802022 " stroke="#ffffff" stroke-width="3.49995" stroke-opacity="1" stroke-miterlimit="4"/><g fill="#000000" fill-opacity="1"><g transform="translate(145.941396, 67.000044)"><g><path d="M 8.6875 -17.921875 L 8.6875 0 L 2.09375 0 L 2.09375 -28.875 L 8.6875 -28.875 L 20.15625 -10.953125 L 20.234375 -10.953125 L 20.234375 -28.875 L 26.8125 -28.875 L 26.8125 0 L 20.234375 0 L 8.75 -17.921875 Z M 8.6875 -17.921875 "/></g></g></g><g fill="#000000" fill-opacity="1"><g transform="translate(174.844867, 67.000044)"><g><path d="M 11.90625 -34.15625 L 19 -40.3125 L 22.1875 -36.296875 L 13.859375 -31.46875 Z M 0.8125 -14.453125 C 0.8125 -18.628906 2.234375 -22.164062 5.078125 -25.0625 C 7.921875 -27.957031 11.347656 -29.40625 15.359375 -29.40625 C 19.398438 -29.40625 22.832031 -27.960938 25.65625 -25.078125 C 28.476562 -22.191406 29.890625 -18.648438 29.890625 -14.453125 C 29.890625 -10.234375 28.5 -6.679688 25.71875 -3.796875 C 22.945312 -0.910156 19.492188 0.53125 15.359375 0.53125 C 11.140625 0.53125 7.660156 -0.894531 4.921875 -3.75 C 2.179688 -6.613281 0.8125 -10.179688 0.8125 -14.453125 Z M 7.90625 -14.453125 C 7.90625 -12.941406 8.140625 -11.5625 8.609375 -10.3125 C 9.078125 -9.0625 9.894531 -8.003906 11.0625 -7.140625 C 12.226562 -6.273438 13.660156 -5.84375 15.359375 -5.84375 C 17.816406 -5.84375 19.664062 -6.679688 20.90625 -8.359375 C 22.15625 -10.046875 22.78125 -12.078125 22.78125 -14.453125 C 22.78125 -16.804688 22.144531 -18.828125 20.875 -20.515625 C 19.601562 -22.210938 17.765625 -23.0625 15.359375 -23.0625 C 12.984375 -23.0625 11.144531 -22.210938 9.84375 -20.515625 C 8.550781 -18.828125 7.90625 -16.804688 7.90625 -14.453125 Z M 7.90625 -14.453125 "/></g></g></g><g fill="#000000" fill-opacity="1"><g transform="translate(205.532941, 67.000044)"><g><path d="M 12.734375 -29.40625 C 14.296875 -29.40625 15.820312 -29.175781 17.3125 -28.71875 C 18.8125 -28.257812 19.925781 -27.8125 20.65625 -27.375 L 21.703125 -26.671875 L 19.046875 -21.421875 C 18.828125 -21.554688 18.53125 -21.734375 18.15625 -21.953125 C 17.789062 -22.179688 17.09375 -22.484375 16.0625 -22.859375 C 15.039062 -23.234375 14.082031 -23.421875 13.1875 -23.421875 C 12.09375 -23.421875 11.25 -23.1875 10.65625 -22.71875 C 10.0625 -22.25 9.765625 -21.617188 9.765625 -20.828125 C 9.765625 -20.429688 9.90625 -20.0625 10.1875 -19.71875 C 10.46875 -19.382812 10.945312 -19.023438 11.625 -18.640625 C 12.300781 -18.253906 12.894531 -17.941406 13.40625 -17.703125 C 13.914062 -17.472656 14.707031 -17.125 15.78125 -16.65625 C 17.644531 -15.863281 19.238281 -14.785156 20.5625 -13.421875 C 21.882812 -12.054688 22.546875 -10.507812 22.546875 -8.78125 C 22.546875 -7.125 22.242188 -5.675781 21.640625 -4.4375 C 21.046875 -3.207031 20.226562 -2.238281 19.1875 -1.53125 C 18.15625 -0.832031 17.007812 -0.316406 15.75 0.015625 C 14.488281 0.359375 13.125 0.53125 11.65625 0.53125 C 10.394531 0.53125 9.15625 0.398438 7.9375 0.140625 C 6.726562 -0.117188 5.710938 -0.441406 4.890625 -0.828125 C 4.078125 -1.210938 3.34375 -1.585938 2.6875 -1.953125 C 2.039062 -2.328125 1.566406 -2.644531 1.265625 -2.90625 L 0.8125 -3.296875 L 4.09375 -8.8125 C 4.375 -8.582031 4.757812 -8.285156 5.25 -7.921875 C 5.738281 -7.566406 6.609375 -7.082031 7.859375 -6.46875 C 9.109375 -5.863281 10.210938 -5.5625 11.171875 -5.5625 C 13.941406 -5.5625 15.328125 -6.507812 15.328125 -8.40625 C 15.328125 -8.800781 15.226562 -9.164062 15.03125 -9.5 C 14.832031 -9.84375 14.484375 -10.179688 13.984375 -10.515625 C 13.484375 -10.859375 13.039062 -11.128906 12.65625 -11.328125 C 12.269531 -11.523438 11.640625 -11.828125 10.765625 -12.234375 C 9.890625 -12.640625 9.238281 -12.945312 8.8125 -13.15625 C 7.0625 -14.019531 5.707031 -15.097656 4.75 -16.390625 C 3.800781 -17.691406 3.328125 -19.085938 3.328125 -20.578125 C 3.328125 -23.171875 4.28125 -25.289062 6.1875 -26.9375 C 8.101562 -28.582031 10.285156 -29.40625 12.734375 -29.40625 Z M 12.734375 -29.40625 "/></g></g></g></svg>