<svg xmlns="http://www.w3.org/2000/svg" xmlns:xlink="http://www.w3.org/1999/xlink" width="500" zoomAndPan="magnify" viewBox="0 0 375 374.999991" height="500" preserveAspectRatio="xMidYMid meet" version="1.0"><defs><g/><clipPath id="e6fc6b77eb"><path d="M 0 332.050781 L 375 332.050781 L 375 375 L 0 375 Z M 0 332.050781 " clip-rule="nonzero"/></clipPath><clipPath id="629f3f09c7"><path d="M 30.679688 332.050781 L 344.320312 332.050781 L 385.949219 375 L -10.949219 375 Z M 30.679688 332.050781 " clip-rule="nonzero"/></clipPath><clipPath id="8214516af3"><path d="M 97.617188 316.117188 L 116.699219 316.117188 L 116.699219 344.261719 L 97.617188 344.261719 Z M 97.617188 316.117188 " clip-rule="nonzero"/></clipPath><clipPath id="f872954f92"><path d="M 116.699219 316.117188 L 116.699219 340.828125 L 107.160156 344.261719 L 97.617188 340.828125 L 97.617188 316.117188 Z M 116.699219 316.117188 " clip-rule="nonzero"/></clipPath><clipPath id="df439934c3"><path d="M 249.5 319.839844 L 268.582031 319.839844 L 268.582031 344.261719 L 249.5 344.261719 Z M 249.5 319.839844 " clip-rule="nonzero"/></clipPath><clipPath id="830632f2e7"><path d="M 268.582031 319.839844 L 268.582031 340.828125 L 259.039062 344.261719 L 249.5 340.828125 L 249.5 319.839844 Z M 268.582031 319.839844 " clip-rule="nonzero"/></clipPath><clipPath id="01e1183b51"><path d="M 37.5 289.480469 L 337.5 289.480469 L 337.5 319.839844 L 37.5 319.839844 Z M 37.5 289.480469 " clip-rule="nonzero"/></clipPath><clipPath id="94f8b259ce"><path d="M 52.679688 289.480469 L 322.320312 289.480469 C 326.347656 289.480469 330.207031 291.082031 333.054688 293.925781 C 335.902344 296.773438 337.5 300.632812 337.5 304.660156 C 337.5 308.683594 335.902344 312.546875 333.054688 315.394531 C 330.207031 318.238281 326.347656 319.839844 322.320312 319.839844 L 52.679688 319.839844 C 48.652344 319.839844 44.792969 318.238281 41.945312 315.394531 C 39.097656 312.546875 37.5 308.683594 37.5 304.660156 C 37.5 300.632812 39.097656 296.773438 41.945312 293.925781 C 44.792969 291.082031 48.652344 289.480469 52.679688 289.480469 Z M 52.679688 289.480469 " clip-rule="nonzero"/></clipPath><clipPath id="ee62a610bb"><path d="M 196.632812 289.480469 L 337.5 289.480469 L 337.5 319.839844 L 196.632812 319.839844 Z M 196.632812 289.480469 " clip-rule="nonzero"/></clipPath><clipPath id="f146a8998d"><path d="M 211.808594 289.480469 L 322.320312 289.480469 C 326.347656 289.480469 330.207031 291.082031 333.054688 293.925781 C 335.902344 296.773438 337.5 300.632812 337.5 304.660156 C 337.5 308.683594 335.902344 312.546875 333.054688 315.394531 C 330.207031 318.238281 326.347656 319.839844 322.320312 319.839844 L 211.808594 319.839844 C 207.785156 319.839844 203.921875 318.238281 201.078125 315.394531 C 198.230469 312.546875 196.632812 308.683594 196.632812 304.660156 C 196.632812 300.632812 198.230469 296.773438 201.078125 293.925781 C 203.921875 291.082031 207.785156 289.480469 211.808594 289.480469 Z M 211.808594 289.480469 " clip-rule="nonzero"/></clipPath><clipPath id="14125cce45"><path d="M 129.035156 289.480469 L 237.164062 289.480469 L 237.164062 319.839844 L 129.035156 319.839844 Z M 129.035156 289.480469 " clip-rule="nonzero"/></clipPath><clipPath id="2adf0c938e"><path d="M 144.214844 289.480469 L 221.988281 289.480469 C 226.011719 289.480469 229.875 291.082031 232.71875 293.925781 C 235.566406 296.773438 237.164062 300.632812 237.164062 304.660156 C 237.164062 308.683594 235.566406 312.546875 232.71875 315.394531 C 229.875 318.238281 226.011719 319.839844 221.988281 319.839844 L 144.214844 319.839844 C 140.1875 319.839844 136.328125 318.238281 133.480469 315.394531 C 130.632812 312.546875 129.035156 308.683594 129.035156 304.660156 C 129.035156 300.632812 130.632812 296.773438 133.480469 293.925781 C 136.328125 291.082031 140.1875 289.480469 144.214844 289.480469 Z M 144.214844 289.480469 " clip-rule="nonzero"/></clipPath><clipPath id="5567d92db7"><path d="M 0 242 L 27 242 L 27 291 L 0 291 Z M 0 242 " clip-rule="nonzero"/></clipPath><clipPath id="aa66c31fd9"><path d="M -33.792969 240.128906 L 28.566406 287.1875 L 23.710938 293.621094 L -38.648438 246.5625 Z M -33.792969 240.128906 " clip-rule="nonzero"/></clipPath><clipPath id="9120beb05d"><path d="M 12.976562 275.421875 C 21.585938 281.921875 27.480469 288.628906 26.140625 290.40625 C 24.800781 292.183594 16.730469 288.355469 8.121094 281.859375 L -23.058594 258.328125 C -31.667969 251.828125 -37.5625 245.121094 -36.21875 243.34375 C -34.878906 241.566406 -26.8125 245.394531 -18.203125 251.894531 Z M 12.976562 275.421875 " clip-rule="nonzero"/></clipPath><clipPath id="1d422c0439"><path d="M 0 218 L 34 218 L 34 280 L 0 280 Z M 0 218 " clip-rule="nonzero"/></clipPath><clipPath id="b04e594855"><path d="M -13.707031 216.585938 L 36.496094 276.441406 L 30.320312 281.621094 L -19.882812 221.765625 Z M -13.707031 216.585938 " clip-rule="nonzero"/></clipPath><clipPath id="b3d0c96ba1"><path d="M 23.945312 261.476562 C 30.878906 269.742188 35.113281 277.601562 33.410156 279.03125 C 31.703125 280.464844 24.703125 274.921875 17.769531 266.660156 L -7.332031 236.730469 C -14.265625 228.464844 -18.5 220.605469 -16.796875 219.175781 C -15.089844 217.746094 -8.089844 223.285156 -1.15625 231.550781 Z M 23.945312 261.476562 " clip-rule="nonzero"/></clipPath><clipPath id="6d5c0afe1c"><path d="M 9 205 L 48 205 L 48 275 L 9 275 Z M 9 205 " clip-rule="nonzero"/></clipPath><clipPath id="5c1e8d845b"><path d="M 13.667969 203.792969 L 50.566406 272.65625 L 43.460938 276.460938 L 6.5625 207.597656 Z M 13.667969 203.792969 " clip-rule="nonzero"/></clipPath><clipPath id="999b1f822c"><path d="M 41.34375 255.4375 C 46.4375 264.945312 48.976562 273.507812 47.015625 274.558594 C 45.050781 275.609375 39.332031 268.753906 34.238281 259.246094 L 15.789062 224.816406 C 10.695312 215.308594 8.152344 206.746094 10.117188 205.695312 C 12.078125 204.644531 17.796875 211.5 22.894531 221.007812 Z M 41.34375 255.4375 " clip-rule="nonzero"/></clipPath><clipPath id="c7d4d7e1a1"><path d="M 354 242 L 375 242 L 375 290 L 354 290 Z M 354 242 " clip-rule="nonzero"/></clipPath><clipPath id="e486bca0dd"><path d="M 352.34375 285.296875 L 415.910156 239.875 L 420.597656 246.433594 L 357.03125 291.851562 Z M 352.34375 285.296875 " clip-rule="nonzero"/></clipPath><clipPath id="63279e4b22"><path d="M 400.019531 251.230469 C 408.796875 244.957031 416.957031 241.34375 418.253906 243.152344 C 419.546875 244.964844 413.480469 251.515625 404.703125 257.789062 L 372.921875 280.5 C 364.144531 286.769531 355.980469 290.386719 354.6875 288.574219 C 353.394531 286.761719 359.460938 280.210938 368.234375 273.941406 Z M 400.019531 251.230469 " clip-rule="nonzero"/></clipPath><clipPath id="fa0499e455"><path d="M 341 218 L 375 218 L 375 280 L 341 280 Z M 341 218 " clip-rule="nonzero"/></clipPath><clipPath id="9e1db554cc"><path d="M 338.972656 276.539062 L 388.101562 215.796875 L 394.367188 220.863281 L 345.238281 281.609375 Z M 338.972656 276.539062 " clip-rule="nonzero"/></clipPath><clipPath id="3a39616040"><path d="M 375.820312 230.980469 C 382.601562 222.59375 389.503906 216.929688 391.234375 218.328125 C 392.964844 219.730469 388.871094 227.664062 382.085938 236.050781 L 357.519531 266.421875 C 350.738281 274.808594 343.835938 280.472656 342.105469 279.074219 C 340.375 277.671875 344.46875 269.738281 351.253906 261.351562 Z M 375.820312 230.980469 " clip-rule="nonzero"/></clipPath><clipPath id="cfe9017606"><path d="M 331 201 L 364 201 L 364 274 L 331 274 Z M 331 201 " clip-rule="nonzero"/></clipPath><clipPath id="32a5073743"><path d="M 328.667969 271.535156 L 359.253906 199.644531 L 366.667969 202.800781 L 336.085938 274.6875 Z M 328.667969 271.535156 " clip-rule="nonzero"/></clipPath><clipPath id="6cb334a484"><path d="M 351.605469 217.617188 C 355.828125 207.691406 360.914062 200.351562 362.960938 201.222656 C 365.007812 202.09375 363.246094 210.847656 359.023438 220.773438 L 343.730469 256.71875 C 339.507812 266.644531 334.425781 273.984375 332.375 273.113281 C 330.328125 272.238281 332.089844 263.488281 336.3125 253.5625 Z M 351.605469 217.617188 " clip-rule="nonzero"/></clipPath><clipPath id="6b1e7a3fab"><path d="M 70.359375 223.664062 L 297.890625 223.664062 L 297.890625 265.867188 L 70.359375 265.867188 Z M 70.359375 223.664062 " clip-rule="nonzero"/></clipPath><clipPath id="4ac9afe199"><path d="M 107.050781 265.867188 L 261.199219 265.867188 L 297.890625 223.664062 L 70.359375 223.664062 Z M 107.050781 265.867188 " clip-rule="nonzero"/></clipPath><clipPath id="b8ba5818ae"><path d="M 70.359375 167.742188 L 297.890625 167.742188 L 297.890625 225.980469 L 70.359375 225.980469 Z M 70.359375 167.742188 " clip-rule="nonzero"/></clipPath><clipPath id="5a21c07128"><path d="M 146.242188 170.382812 C 157.871094 168.789062 171.171875 167.742188 184.1875 167.742188 C 197.203125 167.742188 209.726562 168.640625 221.269531 170.234375 C 221.515625 170.285156 221.757812 170.285156 222.003906 170.332031 C 265.351562 176.707031 297.277344 193.539062 297.890625 212.007812 L 297.890625 225.980469 L 70.359375 225.980469 L 70.359375 212.015625 C 70.972656 193.441406 102.40625 176.609375 146.242188 170.382812 Z M 146.242188 170.382812 " clip-rule="nonzero"/></clipPath><clipPath id="c6c5317999"><path d="M 58.148438 170.375 L 304.648438 170.375 L 304.648438 217.042969 L 58.148438 217.042969 Z M 58.148438 170.375 " clip-rule="nonzero"/></clipPath><clipPath id="cf9c33ff76"><path d="M 181.398438 170.375 C 113.328125 170.375 58.148438 180.824219 58.148438 193.710938 C 58.148438 206.597656 113.328125 217.042969 181.398438 217.042969 C 249.464844 217.042969 304.648438 206.597656 304.648438 193.710938 C 304.648438 180.824219 249.464844 170.375 181.398438 170.375 Z M 181.398438 170.375 " clip-rule="nonzero"/></clipPath><clipPath id="d3bf6535aa"><path d="M 47.078125 98.855469 L 316.894531 98.855469 L 316.894531 211.355469 L 47.078125 211.355469 Z M 47.078125 98.855469 " clip-rule="nonzero"/></clipPath><clipPath id="054b177b1b"><path d="M 137.066406 101.496094 C 150.855469 99.902344 166.625 98.855469 182.058594 98.855469 C 197.496094 98.855469 212.347656 99.753906 226.035156 101.347656 C 226.324219 101.398438 226.617188 101.398438 226.90625 101.445312 C 278.308594 107.820312 316.167969 124.652344 316.894531 144.324219 L 316.894531 184.355469 C 316.894531 191.519531 314.050781 198.386719 308.988281 203.449219 C 303.921875 208.511719 297.054688 211.355469 289.894531 211.355469 L 74.078125 211.355469 C 59.167969 211.355469 47.078125 199.269531 47.078125 184.355469 L 47.078125 144.375 C 47.808594 124.554688 85.082031 107.722656 137.066406 101.496094 Z M 137.066406 101.496094 " clip-rule="nonzero"/></clipPath><clipPath id="a100fa8b6e"><path d="M 54.65625 98.855469 L 308.730469 98.855469 L 308.730469 175.875 L 54.65625 175.875 Z M 54.65625 98.855469 " clip-rule="nonzero"/></clipPath><clipPath id="c5e94ea6e2"><path d="M 181.691406 98.855469 C 111.53125 98.855469 54.65625 116.097656 54.65625 137.367188 C 54.65625 158.632812 111.53125 175.875 181.691406 175.875 C 251.851562 175.875 308.730469 158.632812 308.730469 137.367188 C 308.730469 116.097656 251.851562 98.855469 181.691406 98.855469 Z M 181.691406 98.855469 " clip-rule="nonzero"/></clipPath><clipPath id="2c194a4fd9"><path d="M 63.75 101.613281 L 299.636719 101.613281 L 299.636719 173.117188 L 63.75 173.117188 Z M 63.75 101.613281 " clip-rule="nonzero"/></clipPath><clipPath id="665c602028"><path d="M 181.691406 101.613281 C 116.554688 101.613281 63.75 117.621094 63.75 137.367188 C 63.75 157.109375 116.554688 173.117188 181.691406 173.117188 C 246.832031 173.117188 299.636719 157.109375 299.636719 137.367188 C 299.636719 117.621094 246.832031 101.613281 181.691406 101.613281 Z M 181.691406 101.613281 " clip-rule="nonzero"/></clipPath><clipPath id="1c4dfa28e9"><path d="M 156.675781 163.671875 L 206.707031 163.671875 L 206.707031 211.355469 L 156.675781 211.355469 Z M 156.675781 163.671875 " clip-rule="nonzero"/></clipPath><clipPath id="440564a720"><path d="M 181.691406 163.671875 L 187.597656 181.886719 L 206.707031 181.886719 L 191.246094 193.144531 L 197.152344 211.355469 L 181.691406 200.101562 L 166.234375 211.355469 L 172.136719 193.144531 L 156.675781 181.886719 L 175.789062 181.886719 Z M 181.691406 163.671875 " clip-rule="nonzero"/></clipPath></defs><rect x="-37.5" width="450" fill="#ffffff" y="-37.499999" height="449.999989" fill-opacity="1"/><rect x="-37.5" width="450" fill="#ff7676" y="-37.499999" height="449.999989" fill-opacity="1"/><g clip-path="url(#e6fc6b77eb)"><g clip-path="url(#629f3f09c7)"><path fill="#140074" d="M -10.949219 332.050781 L 385.949219 332.050781 L 385.949219 375 L -10.949219 375 Z M -10.949219 332.050781 " fill-opacity="1" fill-rule="nonzero"/></g></g><g clip-path="url(#8214516af3)"><g clip-path="url(#f872954f92)"><path fill="#393939" d="M 97.617188 316.117188 L 116.699219 316.117188 L 116.699219 344.261719 L 97.617188 344.261719 Z M 97.617188 316.117188 " fill-opacity="1" fill-rule="nonzero"/></g></g><g clip-path="url(#df439934c3)"><g clip-path="url(#830632f2e7)"><path fill="#393939" d="M 249.5 319.839844 L 268.582031 319.839844 L 268.582031 344.261719 L 249.5 344.261719 Z M 249.5 319.839844 " fill-opacity="1" fill-rule="nonzero"/></g></g><g clip-path="url(#01e1183b51)"><g clip-path="url(#94f8b259ce)"><path fill="#150175" d="M 37.5 289.480469 L 337.5 289.480469 L 337.5 319.839844 L 37.5 319.839844 Z M 37.5 289.480469 " fill-opacity="1" fill-rule="nonzero"/></g></g><g clip-path="url(#ee62a610bb)"><g clip-path="url(#f146a8998d)"><path fill="#ff0000" d="M 196.632812 289.480469 L 337.5 289.480469 L 337.5 319.839844 L 196.632812 319.839844 Z M 196.632812 289.480469 " fill-opacity="1" fill-rule="nonzero"/></g></g><g clip-path="url(#14125cce45)"><g clip-path="url(#2adf0c938e)"><path fill="#fafafa" d="M 129.035156 289.480469 L 237.164062 289.480469 L 237.164062 319.839844 L 129.035156 319.839844 Z M 129.035156 289.480469 " fill-opacity="1" fill-rule="nonzero"/></g></g><g clip-path="url(#5567d92db7)"><g clip-path="url(#aa66c31fd9)"><g clip-path="url(#9120beb05d)"><path fill="#150175" d="M -33.792969 240.128906 L 28.566406 287.1875 L 23.710938 293.621094 L -38.648438 246.5625 Z M -33.792969 240.128906 " fill-opacity="1" fill-rule="nonzero"/></g></g></g><g clip-path="url(#1d422c0439)"><g clip-path="url(#b04e594855)"><g clip-path="url(#b3d0c96ba1)"><path fill="#150175" d="M -13.707031 216.585938 L 36.496094 276.441406 L 30.320312 281.621094 L -19.882812 221.765625 Z M -13.707031 216.585938 " fill-opacity="1" fill-rule="nonzero"/></g></g></g><g clip-path="url(#6d5c0afe1c)"><g clip-path="url(#5c1e8d845b)"><g clip-path="url(#999b1f822c)"><path fill="#150175" d="M 13.667969 203.792969 L 50.566406 272.65625 L 43.460938 276.460938 L 6.5625 207.597656 Z M 13.667969 203.792969 " fill-opacity="1" fill-rule="nonzero"/></g></g></g><g clip-path="url(#c7d4d7e1a1)"><g clip-path="url(#e486bca0dd)"><g clip-path="url(#63279e4b22)"><path fill="#ff0000" d="M 352.34375 285.296875 L 415.910156 239.875 L 420.597656 246.433594 L 357.03125 291.851562 Z M 352.34375 285.296875 " fill-opacity="1" fill-rule="nonzero"/></g></g></g><g clip-path="url(#fa0499e455)"><g clip-path="url(#9e1db554cc)"><g clip-path="url(#3a39616040)"><path fill="#ff0000" d="M 338.972656 276.539062 L 388.101562 215.796875 L 394.367188 220.863281 L 345.238281 281.609375 Z M 338.972656 276.539062 " fill-opacity="1" fill-rule="nonzero"/></g></g></g><g clip-path="url(#cfe9017606)"><g clip-path="url(#32a5073743)"><g clip-path="url(#6cb334a484)"><path fill="#ff0000" d="M 328.667969 271.535156 L 359.253906 199.644531 L 366.667969 202.800781 L 336.085938 274.6875 Z M 328.667969 271.535156 " fill-opacity="1" fill-rule="nonzero"/></g></g></g><g clip-path="url(#6b1e7a3fab)"><g clip-path="url(#4ac9afe199)"><path fill="#393939" d="M 70.359375 223.664062 L 297.890625 223.664062 L 297.890625 265.867188 L 70.359375 265.867188 Z M 70.359375 223.664062 " fill-opacity="1" fill-rule="nonzero"/></g></g><g clip-path="url(#b8ba5818ae)"><g clip-path="url(#5a21c07128)"><path fill="#150175" d="M 70.359375 167.742188 L 297.890625 167.742188 L 297.890625 225.980469 L 70.359375 225.980469 Z M 70.359375 167.742188 " fill-opacity="1" fill-rule="nonzero"/></g></g><g clip-path="url(#c6c5317999)"><g clip-path="url(#cf9c33ff76)"><path fill="#393939" d="M 58.148438 170.375 L 304.648438 170.375 L 304.648438 217.042969 L 58.148438 217.042969 Z M 58.148438 170.375 " fill-opacity="1" fill-rule="nonzero"/></g></g><g clip-path="url(#d3bf6535aa)"><g clip-path="url(#054b177b1b)"><path fill="#150175" d="M 47.078125 98.855469 L 316.894531 98.855469 L 316.894531 211.355469 L 47.078125 211.355469 Z M 47.078125 98.855469 " fill-opacity="1" fill-rule="nonzero"/></g></g><g clip-path="url(#a100fa8b6e)"><g clip-path="url(#c5e94ea6e2)"><path fill="#393939" d="M 54.65625 98.855469 L 308.730469 98.855469 L 308.730469 175.875 L 54.65625 175.875 Z M 54.65625 98.855469 " fill-opacity="1" fill-rule="nonzero"/></g></g><g clip-path="url(#2c194a4fd9)"><g clip-path="url(#665c602028)"><path fill="#150464" d="M 63.75 101.613281 L 299.636719 101.613281 L 299.636719 173.117188 L 63.75 173.117188 Z M 63.75 101.613281 " fill-opacity="1" fill-rule="nonzero"/></g></g><g clip-path="url(#1c4dfa28e9)"><g clip-path="url(#440564a720)"><path fill="#ffde59" d="M 156.675781 163.671875 L 206.707031 163.671875 L 206.707031 211.355469 L 156.675781 211.355469 Z M 156.675781 163.671875 " fill-opacity="1" fill-rule="nonzero"/></g></g><path stroke-linecap="butt" transform="matrix(0.75, 0, 0, 0.75, 94.25685, 24.107349)" fill="none" stroke-linejoin="miter" d="M 3.220034 7.00791 L 19.272119 7.00791 C 23.751286 7.00791 27.376286 8.158951 30.141911 10.466243 C 32.923161 12.778743 34.308578 16.138118 34.308578 20.544369 C 34.308578 24.955827 32.902328 28.414161 30.089828 30.924578 C 27.287744 33.429786 23.683577 34.684995 19.272119 34.684995 L 13.246077 34.684995 L 13.246077 50.997496 L 3.220034 50.997496 Z M 13.246077 26.679786 L 16.068993 26.679786 C 18.308577 26.679786 20.147119 26.226661 21.589827 25.325619 C 23.032535 24.414161 23.751286 22.929786 23.751286 20.872494 C 23.751286 18.773535 23.032535 17.268327 21.589827 16.367285 C 20.147119 15.455827 18.308577 14.997493 16.068993 14.997493 L 13.246077 14.997493 Z M 36.756495 28.971453 C 36.756495 22.606869 38.92837 17.221452 43.266912 12.809993 C 47.605454 8.403743 52.829412 6.200618 58.943996 6.200618 C 65.095038 6.200618 70.324205 8.393326 74.615872 12.783952 C 78.923164 17.179785 81.074206 22.570411 81.074206 28.971453 C 81.074206 35.408953 78.959623 40.82562 74.720039 45.221454 C 70.49608 49.601662 65.235663 51.794371 58.943996 51.794371 C 52.511704 51.794371 47.204412 49.617287 43.016912 45.273537 C 38.845037 40.914162 36.756495 35.48187 36.756495 28.971453 Z M 47.589829 28.971453 C 47.589829 31.289161 47.943995 33.398536 48.657537 35.299578 C 49.365871 37.20062 50.610662 38.809995 52.381496 40.127703 C 54.157538 41.440203 56.345038 42.096453 58.943996 42.096453 C 62.673163 42.096453 65.490872 40.815203 67.391913 38.252703 C 69.292955 35.690203 70.24608 32.596453 70.24608 28.971453 C 70.24608 25.382911 69.27733 22.304786 67.33983 19.72666 C 65.40233 17.148535 62.605455 15.856868 58.943996 15.856868 C 55.313788 15.856868 52.516912 17.148535 50.542954 19.72666 C 48.574204 22.304786 47.589829 25.382911 47.589829 28.971453 Z M 95.527332 7.00791 L 95.527332 42.20062 L 110.673166 42.20062 L 110.673166 50.997496 L 85.50129 50.997496 L 85.50129 7.00791 Z M 115.41275 -1.054591 L 126.246084 -10.440008 L 131.100251 -4.3098 L 118.407542 3.059993 Z M 125.657542 7.00791 L 125.657542 50.997496 L 115.6315 50.997496 L 115.6315 7.00791 Z M 155.470044 41.940203 C 156.996086 41.940203 158.480461 41.705828 159.923169 41.247495 C 161.36067 40.778745 162.42317 40.330828 163.100253 39.908953 L 164.100253 39.216245 L 168.371087 47.747496 C 168.230462 47.851662 168.037753 47.992287 167.787753 48.174579 C 167.532545 48.346454 166.959628 48.679787 166.053378 49.164162 C 165.152336 49.643329 164.183586 50.059996 163.152336 50.414162 C 162.115878 50.768329 160.761711 51.086037 159.089836 51.362079 C 157.423169 51.648537 155.699211 51.794371 153.917961 51.794371 C 149.829419 51.794371 145.954419 50.789162 142.29296 48.789162 C 138.631501 46.783954 135.678376 44.023537 133.438793 40.507912 C 131.199209 36.98187 130.079418 33.174578 130.079418 29.086036 C 130.079418 25.987077 130.735668 23.018327 132.048168 20.179785 C 133.365876 17.336035 135.121085 14.898535 137.308585 12.877702 C 139.496085 10.846451 142.04296 9.22666 144.959627 8.018326 C 147.876294 6.804785 150.865877 6.200618 153.917961 6.200618 C 156.766919 6.200618 159.386711 6.539159 161.782545 7.216243 C 164.188795 7.888118 165.886712 8.565201 166.876295 9.242285 L 168.371087 10.25791 L 164.100253 18.78916 C 163.86067 18.57041 163.48567 18.315202 162.980461 18.018327 C 162.48567 17.716244 161.490878 17.315202 160.001294 16.82041 C 158.506503 16.32041 156.996086 16.065202 155.470044 16.065202 C 153.048169 16.065202 150.876294 16.455827 148.959627 17.237077 C 147.04296 18.018327 145.522127 19.054785 144.402335 20.336035 C 143.282543 21.612077 142.428377 22.987077 141.834627 24.466244 C 141.256502 25.940202 140.964835 27.440203 140.964835 28.971453 C 140.964835 32.309995 142.214835 35.309995 144.714835 37.966245 C 147.225252 40.612078 150.808586 41.940203 155.470044 41.940203 Z M 182.240879 7.00791 L 182.240879 50.997496 L 172.214837 50.997496 L 172.214837 7.00791 Z M 210.980465 7.00791 L 228.740882 50.997496 L 217.975257 50.997496 L 214.720048 42.20062 L 197.975255 42.20062 L 194.720047 50.997496 L 183.938796 50.997496 L 201.699214 7.00791 Z M 211.30859 33.398536 L 206.397131 20.596452 L 206.292964 20.596452 L 201.386714 33.398536 Z M 211.30859 33.398536 " stroke="#000000" stroke-width="3.999998" stroke-opacity="1" stroke-miterlimit="4"/><g fill="#ffffff" fill-opacity="1"><g transform="translate(94.268568, 62.357347)"><g><path d="M 2.40625 -33 L 14.4375 -33 C 17.800781 -33 20.519531 -32.128906 22.59375 -30.390625 C 24.675781 -28.660156 25.71875 -26.140625 25.71875 -22.828125 C 25.71875 -19.523438 24.664062 -16.929688 22.5625 -15.046875 C 20.457031 -13.171875 17.75 -12.234375 14.4375 -12.234375 L 9.921875 -12.234375 L 9.921875 0 L 2.40625 0 Z M 9.921875 -18.234375 L 12.046875 -18.234375 C 13.722656 -18.234375 15.097656 -18.570312 16.171875 -19.25 C 17.253906 -19.9375 17.796875 -21.050781 17.796875 -22.59375 C 17.796875 -24.164062 17.253906 -25.289062 16.171875 -25.96875 C 15.097656 -26.65625 13.722656 -27 12.046875 -27 L 9.921875 -27 Z M 9.921875 -18.234375 "/></g></g></g><g fill="#ffffff" fill-opacity="1"><g transform="translate(120.905926, 62.357347)"><g><path d="M 0.921875 -16.515625 C 0.921875 -21.296875 2.546875 -25.335938 5.796875 -28.640625 C 9.054688 -31.941406 12.976562 -33.59375 17.5625 -33.59375 C 22.175781 -33.59375 26.09375 -31.945312 29.3125 -28.65625 C 32.539062 -25.363281 34.15625 -21.316406 34.15625 -16.515625 C 34.15625 -11.691406 32.566406 -7.632812 29.390625 -4.34375 C 26.222656 -1.050781 22.28125 0.59375 17.5625 0.59375 C 12.726562 0.59375 8.742188 -1.035156 5.609375 -4.296875 C 2.484375 -7.566406 0.921875 -11.640625 0.921875 -16.515625 Z M 9.046875 -16.515625 C 9.046875 -14.785156 9.3125 -13.207031 9.84375 -11.78125 C 10.375 -10.351562 11.304688 -9.144531 12.640625 -8.15625 C 13.972656 -7.175781 15.613281 -6.6875 17.5625 -6.6875 C 20.363281 -6.6875 22.476562 -7.644531 23.90625 -9.5625 C 25.332031 -11.476562 26.046875 -13.796875 26.046875 -16.515625 C 26.046875 -19.210938 25.316406 -21.523438 23.859375 -23.453125 C 22.410156 -25.390625 20.3125 -26.359375 17.5625 -26.359375 C 14.84375 -26.359375 12.742188 -25.390625 11.265625 -23.453125 C 9.785156 -21.523438 9.046875 -19.210938 9.046875 -16.515625 Z M 9.046875 -16.515625 "/></g></g></g><g fill="#ffffff" fill-opacity="1"><g transform="translate(155.982442, 62.357347)"><g><path d="M 9.921875 -33 L 9.921875 -6.59375 L 21.28125 -6.59375 L 21.28125 0 L 2.40625 0 L 2.40625 -33 Z M 9.921875 -33 "/></g></g></g><g fill="#ffffff" fill-opacity="1"><g transform="translate(178.580197, 62.357347)"><g><path d="M 2.234375 -39.046875 L 10.359375 -46.078125 L 14 -41.484375 L 4.484375 -35.953125 Z M 9.921875 -33 L 9.921875 0 L 2.40625 0 L 2.40625 -33 Z M 9.921875 -33 "/></g></g></g><g fill="#ffffff" fill-opacity="1"><g transform="translate(190.898971, 62.357347)"><g><path d="M 19.953125 -6.796875 C 21.109375 -6.796875 22.222656 -6.96875 23.296875 -7.3125 C 24.378906 -7.664062 25.175781 -8 25.6875 -8.3125 L 26.4375 -8.84375 L 29.640625 -2.4375 C 29.535156 -2.351562 29.390625 -2.242188 29.203125 -2.109375 C 29.015625 -1.984375 28.578125 -1.738281 27.890625 -1.375 C 27.210938 -1.019531 26.488281 -0.707031 25.71875 -0.4375 C 24.945312 -0.175781 23.929688 0.0546875 22.671875 0.265625 C 21.421875 0.484375 20.128906 0.59375 18.796875 0.59375 C 15.734375 0.59375 12.828125 -0.15625 10.078125 -1.65625 C 7.328125 -3.164062 5.113281 -5.238281 3.4375 -7.875 C 1.757812 -10.519531 0.921875 -13.375 0.921875 -16.4375 C 0.921875 -18.757812 1.410156 -20.984375 2.390625 -23.109375 C 3.378906 -25.242188 4.691406 -27.070312 6.328125 -28.59375 C 7.972656 -30.113281 9.890625 -31.328125 12.078125 -32.234375 C 14.265625 -33.140625 16.503906 -33.59375 18.796875 -33.59375 C 20.929688 -33.59375 22.898438 -33.335938 24.703125 -32.828125 C 26.503906 -32.328125 27.773438 -31.820312 28.515625 -31.3125 L 29.640625 -30.5625 L 26.4375 -24.15625 C 26.25 -24.320312 25.96875 -24.515625 25.59375 -24.734375 C 25.226562 -24.960938 24.484375 -25.265625 23.359375 -25.640625 C 22.242188 -26.015625 21.109375 -26.203125 19.953125 -26.203125 C 18.140625 -26.203125 16.515625 -25.90625 15.078125 -25.3125 C 13.640625 -24.726562 12.5 -23.957031 11.65625 -23 C 10.820312 -22.039062 10.179688 -21.003906 9.734375 -19.890625 C 9.296875 -18.785156 9.078125 -17.660156 9.078125 -16.515625 C 9.078125 -14.015625 10.015625 -11.769531 11.890625 -9.78125 C 13.773438 -7.789062 16.460938 -6.796875 19.953125 -6.796875 Z M 19.953125 -6.796875 "/></g></g></g><g fill="#ffffff" fill-opacity="1"><g transform="translate(221.015974, 62.357347)"><g><path d="M 9.921875 -33 L 9.921875 0 L 2.40625 0 L 2.40625 -33 Z M 9.921875 -33 "/></g></g></g><g fill="#ffffff" fill-opacity="1"><g transform="translate(233.334748, 62.357347)"><g><path d="M 19.15625 -33 L 32.484375 0 L 24.40625 0 L 21.953125 -6.59375 L 9.40625 -6.59375 L 6.953125 0 L -1.125 0 L 12.203125 -33 Z M 19.40625 -13.203125 L 15.71875 -22.796875 L 15.640625 -22.796875 L 11.953125 -13.203125 Z M 19.40625 -13.203125 "/></g></g></g></svg>