<svg xmlns="http://www.w3.org/2000/svg" xmlns:xlink="http://www.w3.org/1999/xlink" width="500" zoomAndPan="magnify" viewBox="0 0 375 374.999991" height="500" preserveAspectRatio="xMidYMid meet" version="1.0"><defs><g/><clipPath id="e5dddb0f1c"><path d="M 51.488281 103.433594 L 323.511719 103.433594 L 323.511719 180.070312 L 51.488281 180.070312 Z M 51.488281 103.433594 " clip-rule="nonzero"/></clipPath><clipPath id="6e0b04cd38"><path d="M 79.613281 103.433594 L 295.386719 103.433594 L 323.511719 180.070312 L 51.488281 180.070312 Z M 79.613281 103.433594 " clip-rule="nonzero"/></clipPath><clipPath id="2768632603"><path d="M 62.796875 119.792969 L 312.203125 119.792969 L 312.203125 187.5 L 62.796875 187.5 Z M 62.796875 119.792969 " clip-rule="nonzero"/></clipPath><clipPath id="2c21dcc7f6"><path d="M 90.921875 119.792969 L 284.078125 119.792969 L 312.203125 187.5 L 62.796875 187.5 Z M 90.921875 119.792969 " clip-rule="nonzero"/></clipPath><clipPath id="d4dd346319"><path d="M 29.800781 175.894531 L 345.195312 175.894531 L 345.195312 363.96875 L 29.800781 363.96875 Z M 29.800781 175.894531 " clip-rule="nonzero"/></clipPath><clipPath id="652d110aaf"><path d="M 42.078125 363.96875 L 29.800781 269.933594 L 42.078125 175.894531 L 332.917969 175.894531 L 345.195312 269.933594 L 332.917969 363.96875 Z M 42.078125 363.96875 " clip-rule="nonzero"/></clipPath><clipPath id="717dd55e5d"><path d="M 105.058594 187.5 L 269.941406 187.5 L 269.941406 352.382812 L 105.058594 352.382812 Z M 105.058594 187.5 " clip-rule="nonzero"/></clipPath><clipPath id="f5768be894"><path d="M 187.5 187.5 C 141.96875 187.5 105.058594 224.410156 105.058594 269.941406 C 105.058594 315.472656 141.96875 352.382812 187.5 352.382812 C 233.03125 352.382812 269.941406 315.472656 269.941406 269.941406 C 269.941406 224.410156 233.03125 187.5 187.5 187.5 Z M 187.5 187.5 " clip-rule="nonzero"/></clipPath><clipPath id="40d1186bb9"><path d="M 173.109375 206.003906 L 201.890625 206.003906 L 201.890625 333.878906 L 173.109375 333.878906 Z M 173.109375 206.003906 " clip-rule="nonzero"/></clipPath><clipPath id="993264058d"><path d="M 123.5625 255.546875 L 251.4375 255.546875 L 251.4375 284.332031 L 123.5625 284.332031 Z M 123.5625 255.546875 " clip-rule="nonzero"/></clipPath><clipPath id="cbeead37c9"><path d="M 187.5 269.941406 L 251.4375 269.941406 L 251.4375 284.332031 L 187.5 284.332031 Z M 187.5 269.941406 " clip-rule="nonzero"/></clipPath><clipPath id="a1a7d07ba7"><path d="M 187.5 269.941406 L 201.890625 269.941406 L 201.890625 333.878906 L 187.5 333.878906 Z M 187.5 269.941406 " clip-rule="nonzero"/></clipPath></defs><rect x="-37.5" width="450" fill="#ffffff" y="-37.499999" height="449.999989" fill-opacity="1"/><rect x="-37.5" width="450" fill="#ff7676" y="-37.499999" height="449.999989" fill-opacity="1"/><g clip-path="url(#e5dddb0f1c)"><g clip-path="url(#6e0b04cd38)"><path fill="#393939" d="M 51.488281 103.433594 L 323.511719 103.433594 L 323.511719 180.070312 L 51.488281 180.070312 Z M 51.488281 103.433594 " fill-opacity="1" fill-rule="nonzero"/></g></g><g clip-path="url(#2768632603)"><g clip-path="url(#2c21dcc7f6)"><path fill="#ff7676" d="M 62.796875 119.792969 L 312.203125 119.792969 L 312.203125 187.5 L 62.796875 187.5 Z M 62.796875 119.792969 " fill-opacity="1" fill-rule="nonzero"/></g></g><g clip-path="url(#d4dd346319)"><g clip-path="url(#652d110aaf)"><path fill="#d1d1d1" d="M 29.800781 363.96875 L 29.800781 175.894531 L 345.195312 175.894531 L 345.195312 363.96875 Z M 29.800781 363.96875 " fill-opacity="1" fill-rule="nonzero"/></g></g><g clip-path="url(#717dd55e5d)"><g clip-path="url(#f5768be894)"><path fill="#ededed" d="M 105.058594 187.5 L 269.941406 187.5 L 269.941406 352.382812 L 105.058594 352.382812 Z M 105.058594 187.5 " fill-opacity="1" fill-rule="nonzero"/></g></g><g clip-path="url(#40d1186bb9)"><path fill="#ff0000" d="M 173.109375 206.003906 L 201.890625 206.003906 L 201.890625 333.878906 L 173.109375 333.878906 Z M 173.109375 206.003906 " fill-opacity="1" fill-rule="nonzero"/></g><g clip-path="url(#993264058d)"><path fill="#ff0000" d="M 123.5625 284.332031 L 123.5625 255.546875 L 251.4375 255.546875 L 251.4375 284.332031 Z M 123.5625 284.332031 " fill-opacity="1" fill-rule="nonzero"/></g><g clip-path="url(#cbeead37c9)"><path fill="#a80000" d="M 187.5 284.332031 L 187.5 269.941406 L 251.4375 269.941406 L 251.4375 284.332031 Z M 187.5 284.332031 " fill-opacity="1" fill-rule="nonzero"/></g><g clip-path="url(#a1a7d07ba7)"><path fill="#a80000" d="M 187.5 269.941406 L 201.890625 269.941406 L 201.890625 333.878906 L 187.5 333.878906 Z M 187.5 269.941406 " fill-opacity="1" fill-rule="nonzero"/></g><path stroke-linecap="butt" transform="matrix(0.75, 0, 0, 0.75, 105.050923, 25.683514)" fill="none" stroke-linejoin="miter" d="M 39.567522 51.00011 L 37.484188 24.921983 L 37.223772 24.921983 L 28.213354 50.739693 L 22.239396 50.739693 L 13.228978 24.921983 L 12.952937 24.921983 L 10.885228 51.00011 L 0.859186 51.00011 L 4.801894 7.005315 L 15.468562 7.005315 L 25.218562 32.380317 L 34.984188 7.005315 L 45.645647 7.005315 L 49.593564 51.00011 Z M 59.630023 -1.051977 L 70.447732 -10.442602 L 75.301899 -4.307185 L 62.60919 3.062607 Z M 78.817524 7.005315 L 78.817524 15.807399 L 63.676898 15.807399 L 63.676898 24.541775 L 78.182108 24.541775 L 78.182108 33.343859 L 63.676898 33.343859 L 63.676898 42.198026 L 78.817524 42.198026 L 78.817524 51.00011 L 53.650856 51.00011 L 53.650856 7.005315 Z M 84.58315 7.005315 L 97.327942 7.005315 C 103.437318 7.005315 108.666485 9.093857 113.005026 13.265732 C 117.343568 17.442816 119.515444 22.677191 119.515444 28.968858 C 119.515444 35.296984 117.353985 40.552193 113.031068 44.739693 C 108.708151 48.911568 103.473776 51.00011 97.327942 51.00011 L 84.58315 51.00011 Z M 94.609192 42.041776 L 96.156067 42.041776 C 99.812317 42.041776 102.801901 40.807401 105.124818 38.343859 C 107.463359 35.869901 108.645651 32.765734 108.68211 29.020942 C 108.68211 25.291775 107.520651 22.1824 105.192526 19.698025 C 102.864401 17.208441 99.853984 15.963649 96.156067 15.963649 L 94.609192 15.963649 Z M 133.963361 7.005315 L 133.963361 51.00011 L 123.937319 51.00011 L 123.937319 7.005315 Z M 163.770655 41.937609 C 165.301905 41.937609 166.78628 41.708443 168.22378 41.250109 C 169.666489 40.781359 170.72378 40.333443 171.400864 39.906359 L 172.406072 39.218859 L 176.676906 47.744901 C 176.536281 47.849068 176.343572 47.994901 176.088364 48.177193 C 175.838364 48.349068 175.260239 48.677193 174.359197 49.166776 C 173.452947 49.640735 172.489405 50.057402 171.452947 50.411568 C 170.421697 50.770943 169.06753 51.088652 167.390447 51.364693 C 165.72378 51.651152 164.00503 51.791777 162.22378 51.791777 C 158.135238 51.791777 154.260238 50.791777 150.598779 48.786568 C 146.932112 46.78136 143.984195 44.020943 141.744612 40.505318 C 139.505028 36.979276 138.385236 33.177192 138.385236 29.08865 C 138.385236 25.989692 139.041487 23.020941 140.348778 20.1824 C 141.666487 17.333441 143.421695 14.901149 145.609195 12.875107 C 147.796695 10.843857 150.348779 9.229274 153.265446 8.02094 C 156.182113 6.807399 159.166488 6.198024 162.22378 6.198024 C 165.072738 6.198024 167.69253 6.536565 170.088364 7.213649 C 172.489405 7.890732 174.187322 8.567815 175.176906 9.244899 L 176.676906 10.260524 L 172.406072 18.786566 C 172.16128 18.573024 171.78628 18.317816 171.28628 18.020941 C 170.791489 17.718858 169.796697 17.317816 168.301905 16.823024 C 166.812322 16.317816 165.301905 16.067816 163.770655 16.067816 C 161.34878 16.067816 159.182113 16.458441 157.260238 17.239691 C 155.343571 18.020941 153.822737 19.052191 152.708154 20.33865 C 151.588362 21.614691 150.728987 22.989691 150.140446 24.46365 C 149.557112 25.942817 149.270654 27.442817 149.270654 28.968858 C 149.270654 32.312609 150.520654 35.312609 153.020654 37.968859 C 155.525863 40.614693 159.109196 41.937609 163.770655 41.937609 Z M 178.541489 28.968858 C 178.541489 22.609483 180.708156 17.224066 185.051906 12.812607 C 189.390448 8.401149 194.614407 6.198024 200.723782 6.198024 C 206.880033 6.198024 212.103991 8.39594 216.400867 12.786566 C 220.708159 17.177191 222.8592 22.573025 222.8592 28.968858 C 222.8592 35.411567 220.739409 40.828234 216.505033 45.21886 C 212.281075 49.604276 207.020658 51.791777 200.723782 51.791777 C 194.29149 51.791777 188.984198 49.619901 184.801906 45.270943 C 180.624823 40.911568 178.541489 35.479276 178.541489 28.968858 Z M 189.374823 28.968858 C 189.374823 31.286567 189.72899 33.395942 190.437323 35.296984 C 191.150865 37.198026 192.390448 38.807401 194.161282 40.130318 C 195.942532 41.437609 198.130032 42.093859 200.723782 42.093859 C 204.458157 42.093859 207.275866 40.812609 209.176908 38.255317 C 211.07795 35.692817 212.025866 32.599067 212.025866 28.968858 C 212.025866 25.385525 211.057116 22.302191 209.124824 19.724066 C 207.187324 17.145941 204.390449 15.859483 200.723782 15.859483 C 197.098782 15.859483 194.296698 17.145941 192.327948 19.724066 C 190.359198 22.302191 189.374823 25.385525 189.374823 28.968858 Z M 189.374823 28.968858 " stroke="#000000" stroke-width="3.999998" stroke-opacity="1" stroke-miterlimit="4"/><g fill="#ffffff" fill-opacity="1"><g transform="translate(105.050923, 63.933511)"><g><path d="M 29.6875 0 L 28.125 -19.5625 L 27.921875 -19.5625 L 21.15625 -0.203125 L 16.6875 -0.203125 L 9.921875 -19.5625 L 9.71875 -19.5625 L 8.15625 0 L 0.640625 0 L 3.59375 -33 L 11.59375 -33 L 18.921875 -13.953125 L 26.234375 -33 L 34.234375 -33 L 37.203125 0 Z M 29.6875 0 "/></g></g></g><g fill="#ffffff" fill-opacity="1"><g transform="translate(142.887159, 63.933511)"><g><path d="M 6.875 -39.046875 L 15 -46.078125 L 18.640625 -41.484375 L 9.125 -35.953125 Z M 21.28125 -33 L 21.28125 -26.40625 L 9.921875 -26.40625 L 9.921875 -19.84375 L 20.796875 -19.84375 L 20.796875 -13.234375 L 9.921875 -13.234375 L 9.921875 -6.59375 L 21.28125 -6.59375 L 21.28125 0 L 2.40625 0 L 2.40625 -33 Z M 21.28125 -33 "/></g></g></g><g fill="#ffffff" fill-opacity="1"><g transform="translate(166.084858, 63.933511)"><g><path d="M 2.40625 -33 L 11.953125 -33 C 16.546875 -33 20.46875 -31.429688 23.71875 -28.296875 C 26.96875 -25.160156 28.59375 -21.234375 28.59375 -16.515625 C 28.59375 -11.773438 26.972656 -7.835938 23.734375 -4.703125 C 20.492188 -1.566406 16.566406 0 11.953125 0 L 2.40625 0 Z M 9.921875 -6.71875 L 11.078125 -6.71875 C 13.828125 -6.71875 16.070312 -7.644531 17.8125 -9.5 C 19.5625 -11.351562 20.453125 -13.679688 20.484375 -16.484375 C 20.484375 -19.285156 19.609375 -21.617188 17.859375 -23.484375 C 16.109375 -25.347656 13.847656 -26.28125 11.078125 -26.28125 L 9.921875 -26.28125 Z M 9.921875 -6.71875 "/></g></g></g><g fill="#ffffff" fill-opacity="1"><g transform="translate(195.601927, 63.933511)"><g><path d="M 9.921875 -33 L 9.921875 0 L 2.40625 0 L 2.40625 -33 Z M 9.921875 -33 "/></g></g></g><g fill="#ffffff" fill-opacity="1"><g transform="translate(207.920701, 63.933511)"><g><path d="M 19.953125 -6.796875 C 21.109375 -6.796875 22.222656 -6.96875 23.296875 -7.3125 C 24.378906 -7.664062 25.175781 -8 25.6875 -8.3125 L 26.4375 -8.84375 L 29.640625 -2.4375 C 29.535156 -2.351562 29.390625 -2.242188 29.203125 -2.109375 C 29.015625 -1.984375 28.578125 -1.738281 27.890625 -1.375 C 27.210938 -1.019531 26.488281 -0.707031 25.71875 -0.4375 C 24.945312 -0.175781 23.929688 0.0546875 22.671875 0.265625 C 21.421875 0.484375 20.128906 0.59375 18.796875 0.59375 C 15.734375 0.59375 12.828125 -0.15625 10.078125 -1.65625 C 7.328125 -3.164062 5.113281 -5.238281 3.4375 -7.875 C 1.757812 -10.519531 0.921875 -13.375 0.921875 -16.4375 C 0.921875 -18.757812 1.410156 -20.984375 2.390625 -23.109375 C 3.378906 -25.242188 4.691406 -27.070312 6.328125 -28.59375 C 7.972656 -30.113281 9.890625 -31.328125 12.078125 -32.234375 C 14.265625 -33.140625 16.503906 -33.59375 18.796875 -33.59375 C 20.929688 -33.59375 22.898438 -33.335938 24.703125 -32.828125 C 26.503906 -32.328125 27.773438 -31.820312 28.515625 -31.3125 L 29.640625 -30.5625 L 26.4375 -24.15625 C 26.25 -24.320312 25.96875 -24.515625 25.59375 -24.734375 C 25.226562 -24.960938 24.484375 -25.265625 23.359375 -25.640625 C 22.242188 -26.015625 21.109375 -26.203125 19.953125 -26.203125 C 18.140625 -26.203125 16.515625 -25.90625 15.078125 -25.3125 C 13.640625 -24.726562 12.5 -23.957031 11.65625 -23 C 10.820312 -22.039062 10.179688 -21.003906 9.734375 -19.890625 C 9.296875 -18.785156 9.078125 -17.660156 9.078125 -16.515625 C 9.078125 -14.015625 10.015625 -11.769531 11.890625 -9.78125 C 13.773438 -7.789062 16.460938 -6.796875 19.953125 -6.796875 Z M 19.953125 -6.796875 "/></g></g></g><g fill="#ffffff" fill-opacity="1"><g transform="translate(238.037703, 63.933511)"><g><path d="M 0.921875 -16.515625 C 0.921875 -21.296875 2.546875 -25.335938 5.796875 -28.640625 C 9.054688 -31.941406 12.976562 -33.59375 17.5625 -33.59375 C 22.175781 -33.59375 26.09375 -31.945312 29.3125 -28.65625 C 32.539062 -25.363281 34.15625 -21.316406 34.15625 -16.515625 C 34.15625 -11.691406 32.566406 -7.632812 29.390625 -4.34375 C 26.222656 -1.050781 22.28125 0.59375 17.5625 0.59375 C 12.726562 0.59375 8.742188 -1.035156 5.609375 -4.296875 C 2.484375 -7.566406 0.921875 -11.640625 0.921875 -16.515625 Z M 9.046875 -16.515625 C 9.046875 -14.785156 9.3125 -13.207031 9.84375 -11.78125 C 10.375 -10.351562 11.304688 -9.144531 12.640625 -8.15625 C 13.972656 -7.175781 15.613281 -6.6875 17.5625 -6.6875 C 20.363281 -6.6875 22.476562 -7.644531 23.90625 -9.5625 C 25.332031 -11.476562 26.046875 -13.796875 26.046875 -16.515625 C 26.046875 -19.210938 25.316406 -21.523438 23.859375 -23.453125 C 22.410156 -25.390625 20.3125 -26.359375 17.5625 -26.359375 C 14.84375 -26.359375 12.742188 -25.390625 11.265625 -23.453125 C 9.785156 -21.523438 9.046875 -19.210938 9.046875 -16.515625 Z M 9.046875 -16.515625 "/></g></g></g></svg>