<svg xmlns="http://www.w3.org/2000/svg" xmlns:xlink="http://www.w3.org/1999/xlink" width="500" zoomAndPan="magnify" viewBox="0 0 375 374.999991" height="500" preserveAspectRatio="xMidYMid meet" version="1.0"><defs><g/><clipPath id="ba4e3d6ef9"><path d="M 0 332.050781 L 375 332.050781 L 375 375 L 0 375 Z M 0 332.050781 " clip-rule="nonzero"/></clipPath><clipPath id="b5244db20a"><path d="M 30.679688 332.050781 L 344.320312 332.050781 L 385.949219 406.148438 L -10.949219 406.148438 Z M 30.679688 332.050781 " clip-rule="nonzero"/></clipPath><clipPath id="63971898a3"><path d="M 97.617188 316.117188 L 116.699219 316.117188 L 116.699219 344.261719 L 97.617188 344.261719 Z M 97.617188 316.117188 " clip-rule="nonzero"/></clipPath><clipPath id="b2dd699ffd"><path d="M 116.699219 316.117188 L 116.699219 340.828125 L 107.160156 344.261719 L 97.617188 340.828125 L 97.617188 316.117188 Z M 116.699219 316.117188 " clip-rule="nonzero"/></clipPath><clipPath id="d727bfd57b"><path d="M 249.5 319.839844 L 268.582031 319.839844 L 268.582031 344.261719 L 249.5 344.261719 Z M 249.5 319.839844 " clip-rule="nonzero"/></clipPath><clipPath id="0c8abe68e9"><path d="M 268.582031 319.839844 L 268.582031 340.828125 L 259.039062 344.261719 L 249.5 340.828125 L 249.5 319.839844 Z M 268.582031 319.839844 " clip-rule="nonzero"/></clipPath><clipPath id="13db8fa241"><path d="M 37.5 289.480469 L 337.5 289.480469 L 337.5 319.839844 L 37.5 319.839844 Z M 37.5 289.480469 " clip-rule="nonzero"/></clipPath><clipPath id="98f78eade5"><path d="M 52.679688 289.480469 L 322.320312 289.480469 C 326.347656 289.480469 330.207031 291.082031 333.054688 293.925781 C 335.902344 296.773438 337.5 300.632812 337.5 304.660156 C 337.5 308.683594 335.902344 312.546875 333.054688 315.394531 C 330.207031 318.238281 326.347656 319.839844 322.320312 319.839844 L 52.679688 319.839844 C 48.652344 319.839844 44.792969 318.238281 41.945312 315.394531 C 39.097656 312.546875 37.5 308.683594 37.5 304.660156 C 37.5 300.632812 39.097656 296.773438 41.945312 293.925781 C 44.792969 291.082031 48.652344 289.480469 52.679688 289.480469 Z M 52.679688 289.480469 " clip-rule="nonzero"/></clipPath><clipPath id="081f838b21"><path d="M 196.632812 289.480469 L 337.5 289.480469 L 337.5 319.839844 L 196.632812 319.839844 Z M 196.632812 289.480469 " clip-rule="nonzero"/></clipPath><clipPath id="8d15bbd057"><path d="M 211.808594 289.480469 L 322.320312 289.480469 C 326.347656 289.480469 330.207031 291.082031 333.054688 293.925781 C 335.902344 296.773438 337.5 300.632812 337.5 304.660156 C 337.5 308.683594 335.902344 312.546875 333.054688 315.394531 C 330.207031 318.238281 326.347656 319.839844 322.320312 319.839844 L 211.808594 319.839844 C 207.785156 319.839844 203.921875 318.238281 201.078125 315.394531 C 198.230469 312.546875 196.632812 308.683594 196.632812 304.660156 C 196.632812 300.632812 198.230469 296.773438 201.078125 293.925781 C 203.921875 291.082031 207.785156 289.480469 211.808594 289.480469 Z M 211.808594 289.480469 " clip-rule="nonzero"/></clipPath><clipPath id="217b240b61"><path d="M 129.035156 289.480469 L 237.164062 289.480469 L 237.164062 319.839844 L 129.035156 319.839844 Z M 129.035156 289.480469 " clip-rule="nonzero"/></clipPath><clipPath id="393ad99ac6"><path d="M 144.214844 289.480469 L 221.988281 289.480469 C 226.011719 289.480469 229.875 291.082031 232.71875 293.925781 C 235.566406 296.773438 237.164062 300.632812 237.164062 304.660156 C 237.164062 308.683594 235.566406 312.546875 232.71875 315.394531 C 229.875 318.238281 226.011719 319.839844 221.988281 319.839844 L 144.214844 319.839844 C 140.1875 319.839844 136.328125 318.238281 133.480469 315.394531 C 130.632812 312.546875 129.035156 308.683594 129.035156 304.660156 C 129.035156 300.632812 130.632812 296.773438 133.480469 293.925781 C 136.328125 291.082031 140.1875 289.480469 144.214844 289.480469 Z M 144.214844 289.480469 " clip-rule="nonzero"/></clipPath><clipPath id="e3e42a7935"><path d="M 354 242 L 375 242 L 375 290 L 354 290 Z M 354 242 " clip-rule="nonzero"/></clipPath><clipPath id="d1ca93a743"><path d="M 352.34375 285.296875 L 415.910156 239.875 L 420.597656 246.433594 L 357.03125 291.851562 Z M 352.34375 285.296875 " clip-rule="nonzero"/></clipPath><clipPath id="6a5059fda5"><path d="M 400.019531 251.230469 C 408.796875 244.957031 416.957031 241.34375 418.253906 243.152344 C 419.546875 244.964844 413.480469 251.515625 404.703125 257.789062 L 372.921875 280.5 C 364.144531 286.769531 355.980469 290.386719 354.6875 288.574219 C 353.394531 286.761719 359.460938 280.210938 368.234375 273.941406 Z M 400.019531 251.230469 " clip-rule="nonzero"/></clipPath><clipPath id="342c5c365f"><path d="M 341 218 L 375 218 L 375 280 L 341 280 Z M 341 218 " clip-rule="nonzero"/></clipPath><clipPath id="e4ffe529f1"><path d="M 338.972656 276.539062 L 388.101562 215.796875 L 394.367188 220.863281 L 345.238281 281.609375 Z M 338.972656 276.539062 " clip-rule="nonzero"/></clipPath><clipPath id="0b00a5a9e2"><path d="M 375.820312 230.980469 C 382.601562 222.59375 389.503906 216.929688 391.234375 218.328125 C 392.964844 219.730469 388.871094 227.664062 382.085938 236.050781 L 357.519531 266.421875 C 350.738281 274.808594 343.835938 280.472656 342.105469 279.074219 C 340.375 277.671875 344.46875 269.738281 351.253906 261.351562 Z M 375.820312 230.980469 " clip-rule="nonzero"/></clipPath><clipPath id="e0c3f59cd2"><path d="M 331 201 L 364 201 L 364 274 L 331 274 Z M 331 201 " clip-rule="nonzero"/></clipPath><clipPath id="6f8b8b574c"><path d="M 328.667969 271.535156 L 359.253906 199.644531 L 366.667969 202.800781 L 336.085938 274.6875 Z M 328.667969 271.535156 " clip-rule="nonzero"/></clipPath><clipPath id="61fd7a9647"><path d="M 351.605469 217.617188 C 355.828125 207.691406 360.914062 200.351562 362.960938 201.222656 C 365.007812 202.09375 363.246094 210.847656 359.023438 220.773438 L 343.730469 256.71875 C 339.507812 266.644531 334.425781 273.984375 332.375 273.113281 C 330.328125 272.238281 332.089844 263.488281 336.3125 253.5625 Z M 351.605469 217.617188 " clip-rule="nonzero"/></clipPath><clipPath id="d975992c6e"><path d="M 0 201 L 44 201 L 44 267 L 0 267 Z M 0 201 " clip-rule="nonzero"/></clipPath><clipPath id="97221bb56f"><path d="M 39.382812 268.855469 L -4.410156 204.160156 L 2.265625 199.640625 L 46.058594 264.335938 Z M 39.382812 268.855469 " clip-rule="nonzero"/></clipPath><clipPath id="2318415d5c"><path d="M 6.539062 220.332031 C 0.492188 211.398438 -2.914062 203.148438 -1.074219 201.898438 C 0.769531 200.652344 7.167969 206.882812 13.214844 215.816406 L 35.109375 248.164062 C 41.15625 257.097656 44.5625 265.347656 42.71875 266.597656 C 40.875 267.84375 34.480469 261.613281 28.433594 252.679688 Z M 6.539062 220.332031 " clip-rule="nonzero"/></clipPath><clipPath id="cb6f37cd1a"><path d="M 0 227 L 34 227 L 34 280 L 0 280 Z M 0 227 " clip-rule="nonzero"/></clipPath><clipPath id="ea03510209"><path d="M 30.289062 282.003906 L -29.1875 231.347656 L -23.960938 225.210938 L 35.515625 275.867188 Z M 30.289062 282.003906 " clip-rule="nonzero"/></clipPath><clipPath id="ed1abbb983"><path d="M -14.316406 244.011719 C -22.53125 237.015625 -28.015625 229.972656 -26.574219 228.277344 C -25.132812 226.585938 -17.304688 230.878906 -9.089844 237.875 L 20.648438 263.203125 C 28.859375 270.195312 34.347656 277.238281 32.902344 278.933594 C 31.460938 280.628906 23.632812 276.332031 15.421875 269.339844 Z M -14.316406 244.011719 " clip-rule="nonzero"/></clipPath><clipPath id="708a500138"><path d="M 0 255 L 27 255 L 27 290 L 0 290 Z M 0 255 " clip-rule="nonzero"/></clipPath><clipPath id="bb07659c28"><path d="M 25.023438 292.175781 L -46.066406 259.777344 L -42.722656 252.441406 L 28.367188 284.839844 Z M 25.023438 292.175781 " clip-rule="nonzero"/></clipPath><clipPath id="5f2e7305af"><path d="M -28.292969 267.875 C -38.109375 263.402344 -45.316406 258.132812 -44.394531 256.109375 C -43.46875 254.082031 -34.765625 256.066406 -24.949219 260.542969 L 10.59375 276.742188 C 20.410156 281.214844 27.621094 286.484375 26.695312 288.507812 C 25.773438 290.535156 17.066406 288.550781 7.253906 284.078125 Z M -28.292969 267.875 " clip-rule="nonzero"/></clipPath><clipPath id="e5f472e828"><path d="M 99.875 109.445312 L 266.324219 109.445312 L 266.324219 156.335938 L 99.875 156.335938 Z M 99.875 109.445312 " clip-rule="nonzero"/></clipPath><clipPath id="8c414b52ea"><path d="M 117.085938 109.445312 L 249.113281 109.445312 L 266.324219 156.335938 L 99.875 156.335938 Z M 117.085938 109.445312 " clip-rule="nonzero"/></clipPath><clipPath id="c0ef4f2249"><path d="M 106.796875 119.453125 L 259.402344 119.453125 L 259.402344 160.882812 L 106.796875 160.882812 Z M 106.796875 119.453125 " clip-rule="nonzero"/></clipPath><clipPath id="aabe4c737f"><path d="M 124.003906 119.453125 L 242.195312 119.453125 L 259.402344 160.882812 L 106.796875 160.882812 Z M 124.003906 119.453125 " clip-rule="nonzero"/></clipPath><clipPath id="d54343aaa7"><path d="M 86.613281 153.78125 L 279.597656 153.78125 L 279.597656 268.859375 L 86.613281 268.859375 Z M 86.613281 153.78125 " clip-rule="nonzero"/></clipPath><clipPath id="8fcbcdf1d2"><path d="M 94.125 268.859375 L 86.613281 211.320312 L 94.125 153.78125 L 272.085938 153.78125 L 279.597656 211.320312 L 272.085938 268.859375 Z M 94.125 268.859375 " clip-rule="nonzero"/></clipPath><clipPath id="efadb54042"><path d="M 132.65625 160.882812 L 233.542969 160.882812 L 233.542969 261.769531 L 132.65625 261.769531 Z M 132.65625 160.882812 " clip-rule="nonzero"/></clipPath><clipPath id="de4b5b295c"><path d="M 183.101562 160.882812 C 155.242188 160.882812 132.65625 183.46875 132.65625 211.328125 C 132.65625 239.1875 155.242188 261.769531 183.101562 261.769531 C 210.960938 261.769531 233.542969 239.1875 233.542969 211.328125 C 233.542969 183.46875 210.960938 160.882812 183.101562 160.882812 Z M 183.101562 160.882812 " clip-rule="nonzero"/></clipPath><clipPath id="9cce5f9a8c"><path d="M 174.292969 172.203125 L 191.90625 172.203125 L 191.90625 250.449219 L 174.292969 250.449219 Z M 174.292969 172.203125 " clip-rule="nonzero"/></clipPath><clipPath id="51e184f999"><path d="M 143.976562 202.511719 L 222.222656 202.511719 L 222.222656 220.121094 L 143.976562 220.121094 Z M 143.976562 202.511719 " clip-rule="nonzero"/></clipPath><clipPath id="bbc9eb7f3d"><path d="M 183.101562 211.320312 L 222.222656 211.320312 L 222.222656 220.128906 L 183.101562 220.128906 Z M 183.101562 211.320312 " clip-rule="nonzero"/></clipPath><clipPath id="055e1a00df"><path d="M 183.101562 211.328125 L 191.90625 211.328125 L 191.90625 250.449219 L 183.101562 250.449219 Z M 183.101562 211.328125 " clip-rule="nonzero"/></clipPath></defs><rect x="-37.5" width="450" fill="#ffffff" y="-37.499999" height="449.999989" fill-opacity="1"/><rect x="-37.5" width="450" fill="#ff7676" y="-37.499999" height="449.999989" fill-opacity="1"/><g clip-path="url(#ba4e3d6ef9)"><g clip-path="url(#b5244db20a)"><path fill="#ededed" d="M -10.949219 332.050781 L 385.949219 332.050781 L 385.949219 406.148438 L -10.949219 406.148438 Z M -10.949219 332.050781 " fill-opacity="1" fill-rule="nonzero"/></g></g><g clip-path="url(#63971898a3)"><g clip-path="url(#b2dd699ffd)"><path fill="#393939" d="M 97.617188 316.117188 L 116.699219 316.117188 L 116.699219 344.261719 L 97.617188 344.261719 Z M 97.617188 316.117188 " fill-opacity="1" fill-rule="nonzero"/></g></g><g clip-path="url(#d727bfd57b)"><g clip-path="url(#0c8abe68e9)"><path fill="#393939" d="M 249.5 319.839844 L 268.582031 319.839844 L 268.582031 344.261719 L 249.5 344.261719 Z M 249.5 319.839844 " fill-opacity="1" fill-rule="nonzero"/></g></g><g clip-path="url(#13db8fa241)"><g clip-path="url(#98f78eade5)"><path fill="#ff0000" d="M 37.5 289.480469 L 337.5 289.480469 L 337.5 319.839844 L 37.5 319.839844 Z M 37.5 289.480469 " fill-opacity="1" fill-rule="nonzero"/></g></g><g clip-path="url(#081f838b21)"><g clip-path="url(#8d15bbd057)"><path fill="#ff0000" d="M 196.632812 289.480469 L 337.5 289.480469 L 337.5 319.839844 L 196.632812 319.839844 Z M 196.632812 289.480469 " fill-opacity="1" fill-rule="nonzero"/></g></g><g clip-path="url(#217b240b61)"><g clip-path="url(#393ad99ac6)"><path fill="#fafafa" d="M 129.035156 289.480469 L 237.164062 289.480469 L 237.164062 319.839844 L 129.035156 319.839844 Z M 129.035156 289.480469 " fill-opacity="1" fill-rule="nonzero"/></g></g><g clip-path="url(#e3e42a7935)"><g clip-path="url(#d1ca93a743)"><g clip-path="url(#6a5059fda5)"><path fill="#ff0000" d="M 352.34375 285.296875 L 415.910156 239.875 L 420.597656 246.433594 L 357.03125 291.851562 Z M 352.34375 285.296875 " fill-opacity="1" fill-rule="nonzero"/></g></g></g><g clip-path="url(#342c5c365f)"><g clip-path="url(#e4ffe529f1)"><g clip-path="url(#0b00a5a9e2)"><path fill="#ff0000" d="M 338.972656 276.539062 L 388.101562 215.796875 L 394.367188 220.863281 L 345.238281 281.609375 Z M 338.972656 276.539062 " fill-opacity="1" fill-rule="nonzero"/></g></g></g><g clip-path="url(#e0c3f59cd2)"><g clip-path="url(#6f8b8b574c)"><g clip-path="url(#61fd7a9647)"><path fill="#ff0000" d="M 328.667969 271.535156 L 359.253906 199.644531 L 366.667969 202.800781 L 336.085938 274.6875 Z M 328.667969 271.535156 " fill-opacity="1" fill-rule="nonzero"/></g></g></g><path stroke-linecap="butt" transform="matrix(0.75, 0, 0, 0.75, 36.275602, 24.107342)" fill="none" stroke-linejoin="miter" d="M 25.559616 7.007919 L 43.320034 50.997505 L 32.554408 50.997505 L 29.2992 42.20063 L 12.554407 42.20063 L 9.299199 50.997505 L -1.482052 50.997505 L 16.278366 7.007919 Z M 25.887741 33.398546 L 20.976283 20.596462 L 20.872116 20.596462 L 15.965866 33.398546 Z M 81.392953 50.997505 L 79.30962 24.919379 L 79.049203 24.919379 L 70.038786 50.737089 L 64.064827 50.737089 L 55.05441 24.919379 L 54.778368 24.919379 L 52.71066 50.997505 L 42.684617 50.997505 L 46.627326 7.007919 L 57.293993 7.007919 L 67.043994 32.382921 L 76.80962 7.007919 L 87.471079 7.007919 L 91.418996 50.997505 Z M 95.476288 7.007919 L 109.122122 7.007919 C 113.241914 7.007919 116.533581 7.888128 118.991914 9.648544 C 121.445039 11.403753 122.674206 14.252711 122.674206 18.200628 C 122.674206 22.612087 120.840873 25.75792 117.179414 27.643337 C 123.439831 28.742296 126.57004 32.440212 126.57004 38.737088 C 126.57004 42.435005 125.288789 45.403755 122.726289 47.643338 C 120.163789 49.877714 116.648164 50.997505 112.168997 50.997505 L 95.476288 50.997505 Z M 105.50233 24.231879 L 106.293997 24.231879 C 108.53358 24.231879 110.205455 23.841254 111.309622 23.060004 C 112.40858 22.278753 112.960664 20.997503 112.960664 19.216253 C 112.960664 16.231878 110.741914 14.737086 106.293997 14.737086 L 105.50233 14.737086 Z M 105.50233 43.268338 L 108.637747 43.268338 C 113.554414 43.268338 116.007539 41.627713 116.007539 38.35688 C 116.007539 36.403754 115.392956 35.002713 114.15858 34.153754 C 112.934622 33.294379 111.09608 32.862087 108.637747 32.862087 L 105.50233 32.862087 Z M 164.804417 7.007919 L 164.804417 35.377713 C 164.804417 40.773546 163.346084 44.862088 160.429417 47.643338 C 157.51275 50.408964 153.247125 51.79438 147.632541 51.79438 C 142.017957 51.79438 137.752332 50.408964 134.835665 47.643338 C 131.918998 44.862088 130.460665 40.773546 130.460665 35.377713 L 130.460665 7.007919 L 140.486707 7.007919 L 140.486707 32.445421 C 140.486707 35.997504 141.043999 38.466255 142.163791 39.85688 C 143.283582 41.242296 145.106499 41.940213 147.632541 41.940213 C 150.158583 41.940213 151.9815 41.242296 153.101291 39.85688 C 154.221083 38.466255 154.778375 35.997504 154.778375 32.445421 L 154.778375 7.007919 Z M 180.695043 7.007919 L 180.695043 42.20063 L 195.835669 42.20063 L 195.835669 50.997505 L 170.669001 50.997505 L 170.669001 7.007919 Z M 206.71067 -1.794165 L 218.507546 -10.439999 L 230.288796 -1.794165 L 226.658588 3.060002 L 218.507546 -2.913957 L 210.340878 3.060002 Z M 223.142963 7.007919 L 240.898172 50.997505 L 230.132546 50.997505 L 226.877338 42.20063 L 210.132545 42.20063 L 206.877337 50.997505 L 196.101294 50.997505 L 213.856504 7.007919 Z M 223.465879 33.398546 L 218.559629 20.596462 L 218.455462 20.596462 L 213.544004 33.398546 Z M 252.632548 23.69542 L 252.632548 50.997505 L 242.606506 50.997505 L 242.606506 7.007919 L 252.632548 7.007919 L 270.116924 34.310004 L 270.221091 34.310004 L 270.221091 7.007919 L 280.262758 7.007919 L 280.262758 50.997505 L 270.221091 50.997505 L 252.736715 23.69542 Z M 310.064843 41.940213 C 311.596093 41.940213 313.080468 41.705838 314.517969 41.247505 C 315.960677 40.778755 317.017969 40.330838 317.695052 39.908963 L 318.700261 39.216255 L 322.971094 47.747505 C 322.830469 47.851672 322.637761 47.992297 322.382552 48.174588 C 322.132552 48.346463 321.554427 48.679797 320.653386 49.164172 C 319.747136 49.643339 318.783594 50.060005 317.747135 50.414172 C 316.715885 50.768339 315.361719 51.086047 313.684635 51.362089 C 312.017968 51.648547 310.299218 51.79438 308.517968 51.79438 C 304.429426 51.79438 300.554426 50.789172 296.892967 48.789172 C 293.226301 46.783963 290.278384 44.023547 288.0388 40.507921 C 285.799217 36.981879 284.679425 33.174588 284.679425 29.086046 C 284.679425 25.987087 285.335675 23.018337 286.642967 20.179795 C 287.965883 17.336045 289.715884 14.898545 291.903384 12.877711 C 294.090884 10.846461 296.642967 9.226669 299.559634 8.018336 C 302.476301 6.804794 305.460676 6.200627 308.517968 6.200627 C 311.366927 6.200627 313.986719 6.539169 316.382552 7.216252 C 318.783594 7.888128 320.481511 8.565211 321.471094 9.242294 L 322.971094 10.257919 L 318.700261 18.78917 C 318.455469 18.57042 318.085677 18.315212 317.580469 18.018337 C 317.085677 17.716253 316.090885 17.315211 314.596094 16.82042 C 313.10651 16.32042 311.596093 16.065211 310.064843 16.065211 C 307.642968 16.065211 305.476301 16.455836 303.559635 17.237086 C 301.637759 18.018337 300.122134 19.054795 299.002343 20.336045 C 297.882551 21.612087 297.023176 22.987087 296.434634 24.466254 C 295.851301 25.940212 295.564842 27.440212 295.564842 28.971462 C 295.564842 32.310004 296.814842 35.310004 299.314843 37.966254 C 301.820051 40.612088 305.403385 41.940213 310.064843 41.940213 Z M 336.840887 7.007919 L 336.840887 50.997505 L 326.814844 50.997505 L 326.814844 7.007919 Z M 365.580472 7.007919 L 383.34089 50.997505 L 372.570056 50.997505 L 369.314847 42.20063 L 352.575263 42.20063 L 349.320054 50.997505 L 338.538803 50.997505 L 356.299221 7.007919 Z M 365.908597 33.398546 L 360.997138 20.596462 L 360.892972 20.596462 L 355.986721 33.398546 Z M 365.908597 33.398546 " stroke="#000000" stroke-width="3.999998" stroke-opacity="1" stroke-miterlimit="4"/><g fill="#ffffff" fill-opacity="1"><g transform="translate(36.28732, 62.35734)"><g><path d="M 19.15625 -33 L 32.484375 0 L 24.40625 0 L 21.953125 -6.59375 L 9.40625 -6.59375 L 6.953125 0 L -1.125 0 L 12.203125 -33 Z M 19.40625 -13.203125 L 15.71875 -22.796875 L 15.640625 -22.796875 L 11.953125 -13.203125 Z M 19.40625 -13.203125 "/></g></g></g><g fill="#ffffff" fill-opacity="1"><g transform="translate(67.64421, 62.35734)"><g><path d="M 29.6875 0 L 28.125 -19.5625 L 27.921875 -19.5625 L 21.15625 -0.203125 L 16.6875 -0.203125 L 9.921875 -19.5625 L 9.71875 -19.5625 L 8.15625 0 L 0.640625 0 L 3.59375 -33 L 11.59375 -33 L 18.921875 -13.953125 L 26.234375 -33 L 34.234375 -33 L 37.203125 0 Z M 29.6875 0 "/></g></g></g><g fill="#ffffff" fill-opacity="1"><g transform="translate(105.480446, 62.35734)"><g><path d="M 2.40625 -33 L 12.640625 -33 C 15.734375 -33 18.195312 -32.335938 20.03125 -31.015625 C 21.875 -29.703125 22.796875 -27.5625 22.796875 -24.59375 C 22.796875 -21.289062 21.425781 -18.929688 18.6875 -17.515625 C 23.375 -16.691406 25.71875 -13.921875 25.71875 -9.203125 C 25.71875 -6.429688 24.753906 -4.203125 22.828125 -2.515625 C 20.910156 -0.835938 18.273438 0 14.921875 0 L 2.40625 0 Z M 9.921875 -20.078125 L 10.515625 -20.078125 C 12.203125 -20.078125 13.457031 -20.367188 14.28125 -20.953125 C 15.101562 -21.546875 15.515625 -22.507812 15.515625 -23.84375 C 15.515625 -26.082031 13.847656 -27.203125 10.515625 -27.203125 L 9.921875 -27.203125 Z M 9.921875 -5.796875 L 12.28125 -5.796875 C 15.957031 -5.796875 17.796875 -7.023438 17.796875 -9.484375 C 17.796875 -10.953125 17.335938 -12.003906 16.421875 -12.640625 C 15.503906 -13.273438 14.125 -13.59375 12.28125 -13.59375 L 9.921875 -13.59375 Z M 9.921875 -5.796875 "/></g></g></g><g fill="#ffffff" fill-opacity="1"><g transform="translate(132.117804, 62.35734)"><g><path d="M 27.765625 -33 L 27.765625 -11.71875 C 27.765625 -7.664062 26.671875 -4.597656 24.484375 -2.515625 C 22.296875 -0.441406 19.09375 0.59375 14.875 0.59375 C 10.664062 0.59375 7.46875 -0.441406 5.28125 -2.515625 C 3.09375 -4.597656 2 -7.664062 2 -11.71875 L 2 -33 L 9.515625 -33 L 9.515625 -13.921875 C 9.515625 -11.253906 9.9375 -9.398438 10.78125 -8.359375 C 11.625 -7.316406 12.988281 -6.796875 14.875 -6.796875 C 16.769531 -6.796875 18.132812 -7.316406 18.96875 -8.359375 C 19.8125 -9.398438 20.234375 -11.253906 20.234375 -13.921875 L 20.234375 -33 Z M 27.765625 -33 "/></g></g></g><g fill="#ffffff" fill-opacity="1"><g transform="translate(161.874844, 62.35734)"><g><path d="M 9.921875 -33 L 9.921875 -6.59375 L 21.28125 -6.59375 L 21.28125 0 L 2.40625 0 L 2.40625 -33 Z M 9.921875 -33 "/></g></g></g><g fill="#ffffff" fill-opacity="1"><g transform="translate(184.472598, 62.35734)"><g><path d="M 6.84375 -39.59375 L 15.6875 -46.078125 L 24.515625 -39.59375 L 21.796875 -35.953125 L 15.6875 -40.4375 L 9.5625 -35.953125 Z M 19.15625 -33 L 32.484375 0 L 24.40625 0 L 21.953125 -6.59375 L 9.40625 -6.59375 L 6.953125 0 L -1.125 0 L 12.203125 -33 Z M 19.40625 -13.203125 L 15.71875 -22.796875 L 15.640625 -22.796875 L 11.953125 -13.203125 Z M 19.40625 -13.203125 "/></g></g></g><g fill="#ffffff" fill-opacity="1"><g transform="translate(215.829488, 62.35734)"><g><path d="M 9.921875 -20.484375 L 9.921875 0 L 2.40625 0 L 2.40625 -33 L 9.921875 -33 L 23.046875 -12.515625 L 23.125 -12.515625 L 23.125 -33 L 30.640625 -33 L 30.640625 0 L 23.125 0 L 10 -20.484375 Z M 9.921875 -20.484375 "/></g></g></g><g fill="#ffffff" fill-opacity="1"><g transform="translate(248.866209, 62.35734)"><g><path d="M 19.953125 -6.796875 C 21.109375 -6.796875 22.222656 -6.96875 23.296875 -7.3125 C 24.378906 -7.664062 25.175781 -8 25.6875 -8.3125 L 26.4375 -8.84375 L 29.640625 -2.4375 C 29.535156 -2.351562 29.390625 -2.242188 29.203125 -2.109375 C 29.015625 -1.984375 28.578125 -1.738281 27.890625 -1.375 C 27.210938 -1.019531 26.488281 -0.707031 25.71875 -0.4375 C 24.945312 -0.175781 23.929688 0.0546875 22.671875 0.265625 C 21.421875 0.484375 20.128906 0.59375 18.796875 0.59375 C 15.734375 0.59375 12.828125 -0.15625 10.078125 -1.65625 C 7.328125 -3.164062 5.113281 -5.238281 3.4375 -7.875 C 1.757812 -10.519531 0.921875 -13.375 0.921875 -16.4375 C 0.921875 -18.757812 1.410156 -20.984375 2.390625 -23.109375 C 3.378906 -25.242188 4.691406 -27.070312 6.328125 -28.59375 C 7.972656 -30.113281 9.890625 -31.328125 12.078125 -32.234375 C 14.265625 -33.140625 16.503906 -33.59375 18.796875 -33.59375 C 20.929688 -33.59375 22.898438 -33.335938 24.703125 -32.828125 C 26.503906 -32.328125 27.773438 -31.820312 28.515625 -31.3125 L 29.640625 -30.5625 L 26.4375 -24.15625 C 26.25 -24.320312 25.96875 -24.515625 25.59375 -24.734375 C 25.226562 -24.960938 24.484375 -25.265625 23.359375 -25.640625 C 22.242188 -26.015625 21.109375 -26.203125 19.953125 -26.203125 C 18.140625 -26.203125 16.515625 -25.90625 15.078125 -25.3125 C 13.640625 -24.726562 12.5 -23.957031 11.65625 -23 C 10.820312 -22.039062 10.179688 -21.003906 9.734375 -19.890625 C 9.296875 -18.785156 9.078125 -17.660156 9.078125 -16.515625 C 9.078125 -14.015625 10.015625 -11.769531 11.890625 -9.78125 C 13.773438 -7.789062 16.460938 -6.796875 19.953125 -6.796875 Z M 19.953125 -6.796875 "/></g></g></g><g fill="#ffffff" fill-opacity="1"><g transform="translate(278.983212, 62.35734)"><g><path d="M 9.921875 -33 L 9.921875 0 L 2.40625 0 L 2.40625 -33 Z M 9.921875 -33 "/></g></g></g><g fill="#ffffff" fill-opacity="1"><g transform="translate(291.301997, 62.35734)"><g><path d="M 19.15625 -33 L 32.484375 0 L 24.40625 0 L 21.953125 -6.59375 L 9.40625 -6.59375 L 6.953125 0 L -1.125 0 L 12.203125 -33 Z M 19.40625 -13.203125 L 15.71875 -22.796875 L 15.640625 -22.796875 L 11.953125 -13.203125 Z M 19.40625 -13.203125 "/></g></g></g><g clip-path="url(#d975992c6e)"><g clip-path="url(#97221bb56f)"><g clip-path="url(#2318415d5c)"><path fill="#ff0000" d="M 39.382812 268.855469 L -4.410156 204.160156 L 2.265625 199.640625 L 46.058594 264.335938 Z M 39.382812 268.855469 " fill-opacity="1" fill-rule="nonzero"/></g></g></g><g clip-path="url(#cb6f37cd1a)"><g clip-path="url(#ea03510209)"><g clip-path="url(#ed1abbb983)"><path fill="#ff0000" d="M 30.289062 282.003906 L -29.1875 231.347656 L -23.960938 225.210938 L 35.515625 275.867188 Z M 30.289062 282.003906 " fill-opacity="1" fill-rule="nonzero"/></g></g></g><g clip-path="url(#708a500138)"><g clip-path="url(#bb07659c28)"><g clip-path="url(#5f2e7305af)"><path fill="#ff0000" d="M 25.023438 292.175781 L -46.066406 259.777344 L -42.722656 252.441406 L 28.367188 284.839844 Z M 25.023438 292.175781 " fill-opacity="1" fill-rule="nonzero"/></g></g></g><g clip-path="url(#e5f472e828)"><g clip-path="url(#8c414b52ea)"><path fill="#393939" d="M 99.875 109.445312 L 266.324219 109.445312 L 266.324219 156.335938 L 99.875 156.335938 Z M 99.875 109.445312 " fill-opacity="1" fill-rule="nonzero"/></g></g><g clip-path="url(#c0ef4f2249)"><g clip-path="url(#aabe4c737f)"><path fill="#ff7676" d="M 106.796875 119.453125 L 259.402344 119.453125 L 259.402344 160.882812 L 106.796875 160.882812 Z M 106.796875 119.453125 " fill-opacity="1" fill-rule="nonzero"/></g></g><g clip-path="url(#d54343aaa7)"><g clip-path="url(#8fcbcdf1d2)"><path fill="#d1d1d1" d="M 86.613281 268.859375 L 86.613281 153.78125 L 279.597656 153.78125 L 279.597656 268.859375 Z M 86.613281 268.859375 " fill-opacity="1" fill-rule="nonzero"/></g></g><g clip-path="url(#efadb54042)"><g clip-path="url(#de4b5b295c)"><path fill="#ededed" d="M 132.65625 160.882812 L 233.542969 160.882812 L 233.542969 261.769531 L 132.65625 261.769531 Z M 132.65625 160.882812 " fill-opacity="1" fill-rule="nonzero"/></g></g><g clip-path="url(#9cce5f9a8c)"><path fill="#ff0000" d="M 174.292969 172.203125 L 191.90625 172.203125 L 191.90625 250.449219 L 174.292969 250.449219 Z M 174.292969 172.203125 " fill-opacity="1" fill-rule="nonzero"/></g><g clip-path="url(#51e184f999)"><path fill="#ff0000" d="M 143.976562 220.121094 L 143.976562 202.511719 L 222.222656 202.511719 L 222.222656 220.121094 Z M 143.976562 220.121094 " fill-opacity="1" fill-rule="nonzero"/></g><g clip-path="url(#bbc9eb7f3d)"><path fill="#a80000" d="M 183.101562 220.128906 L 183.101562 211.320312 L 222.222656 211.320312 L 222.222656 220.128906 Z M 183.101562 220.128906 " fill-opacity="1" fill-rule="nonzero"/></g><g clip-path="url(#055e1a00df)"><path fill="#a80000" d="M 183.101562 211.328125 L 191.90625 211.328125 L 191.90625 250.449219 L 183.101562 250.449219 Z M 183.101562 211.328125 " fill-opacity="1" fill-rule="nonzero"/></g></svg>