<svg xmlns="http://www.w3.org/2000/svg" xmlns:xlink="http://www.w3.org/1999/xlink" width="500" zoomAndPan="magnify" viewBox="0 0 375 374.999991" height="500" preserveAspectRatio="xMidYMid meet" version="1.0"><defs><g/><clipPath id="207461850b"><path d="M 37.5 67.96875 L 338 67.96875 L 338 307.03125 L 37.5 307.03125 Z M 37.5 67.96875 " clip-rule="nonzero"/></clipPath><clipPath id="48454058a4"><path d="M 233.257812 67.96875 L 141.734375 67.96875 C 84.164062 67.96875 37.5 113.554688 37.5 157.03125 C 37.5 187.0625 61.964844 222.179688 97.308594 238.472656 L 97.308594 307.03125 L 168.101562 248.171875 L 233.257812 248.171875 C 290.832031 248.171875 337.5 202.585938 337.5 157.03125 C 337.503906 113.554688 290.832031 67.96875 233.257812 67.96875 Z M 233.257812 67.96875 " clip-rule="nonzero"/></clipPath></defs><rect x="-37.5" width="450" fill="#ffffff" y="-37.499999" height="449.999989" fill-opacity="1"/><rect x="-37.5" width="450" fill="#ff7676" y="-37.499999" height="449.999989" fill-opacity="1"/><g clip-path="url(#207461850b)"><g clip-path="url(#48454058a4)"><path fill="#140074" d="M 37.5 67.96875 L 337.5 67.96875 L 337.5 307.03125 L 37.5 307.03125 Z M 37.5 67.96875 " fill-opacity="1" fill-rule="nonzero"/></g></g><path stroke-linecap="butt" transform="matrix(1.066009, 0, 0, 1.066009, 67.609483, 123.576203)" fill="none" stroke-linejoin="miter" d="M 25.56253 7.00441 L 43.320058 50.998813 L 32.554144 50.998813 L 29.296521 42.197001 L 12.554023 42.197001 L 9.300065 50.998813 L -1.480506 50.998813 L 16.277021 7.00441 Z M 25.884995 33.395189 L 20.978406 20.599216 L 20.872139 20.599216 L 15.96555 33.395189 Z M 64.166648 7.00441 L 64.166648 38.58027 C 64.166648 42.874909 62.983057 46.150854 60.612211 48.408105 C 58.252358 50.665356 54.870146 51.793981 50.46924 51.793981 C 49.289313 51.793981 48.131373 51.651071 46.995419 51.36525 C 45.855801 51.086758 44.895736 50.742308 44.115226 50.335563 C 43.334715 49.928818 42.631157 49.51108 42.008214 49.086013 C 41.3926 48.653618 40.938219 48.29451 40.652398 48.019682 L 40.172366 47.587287 L 43.375023 39.21787 C 45.467378 41.203958 47.36552 42.197001 49.07678 42.197001 C 50.604822 42.197001 51.828721 41.694983 52.748477 40.687282 C 53.675562 39.672252 54.140937 38.114895 54.140937 36.015212 L 54.140937 7.00441 Z M 103.851754 7.00441 L 103.851754 35.377612 C 103.851754 40.775226 102.393336 44.864661 99.476499 47.642252 C 96.559662 50.40885 92.294337 51.793981 86.676861 51.793981 C 81.063049 51.793981 76.797725 50.40885 73.880888 47.642252 C 70.964051 44.864661 69.505632 40.775226 69.505632 35.377612 L 69.505632 7.00441 L 79.531343 7.00441 L 79.531343 32.446118 C 79.531343 35.996891 80.088327 38.466675 81.209624 39.85547 C 82.33092 41.244266 84.152111 41.936831 86.676861 41.936831 C 89.205275 41.936831 91.026466 41.244266 92.147762 39.85547 C 93.265395 38.466675 93.826043 35.996891 93.826043 32.446118 L 93.826043 7.00441 Z M 109.714743 7.00441 L 122.459415 7.00441 C 128.571581 7.00441 133.79697 9.0931 138.135582 13.266815 C 142.477858 17.444195 144.647164 22.676913 144.647164 28.968633 C 144.647164 35.296996 142.485187 40.555364 138.164897 44.736408 C 133.840942 48.913788 128.608225 50.998813 122.459415 50.998813 L 109.714743 50.998813 Z M 119.740454 42.043098 L 121.290482 42.043098 C 124.943857 42.043098 127.933981 40.808206 130.260855 38.34575 C 132.595057 35.872302 133.778648 32.764918 133.815292 29.023598 C 133.815292 25.289607 132.650023 22.182223 130.326813 19.701446 C 127.99994 17.209675 124.987829 15.96379 121.290482 15.96379 L 119.740454 15.96379 Z M 171.411708 7.00441 L 189.1729 50.998813 L 178.403323 50.998813 L 175.149364 42.197001 L 158.406866 42.197001 L 155.152907 50.998813 L 144.372336 50.998813 L 162.129864 7.00441 Z M 171.737837 33.395189 L 166.831248 20.599216 L 166.724982 20.599216 L 161.818393 33.395189 Z M 193.548156 36.601511 L 192.258298 5.131918 L 201.701375 5.131918 L 200.42251 36.601511 Z M 196.959682 39.580642 C 198.659949 39.580642 200.107375 40.181599 201.29463 41.379847 C 202.492878 42.567102 203.093835 44.010863 203.093835 45.714795 C 203.093835 47.389411 202.492878 48.822179 201.29463 50.009434 C 200.107375 51.200354 198.659949 51.793981 196.959682 51.793981 C 195.285066 51.793981 193.852298 51.200354 192.665043 50.009434 C 191.474123 48.822179 190.880496 47.389411 190.880496 45.714795 C 190.880496 44.010863 191.474123 42.567102 192.665043 41.379847 C 193.852298 40.181599 195.285066 39.580642 196.959682 39.580642 Z M 212.159481 36.601511 L 210.873288 5.131918 L 220.3127 5.131918 L 219.033836 36.601511 Z M 215.571008 39.580642 C 217.271275 39.580642 218.7187 40.181599 219.905955 41.379847 C 221.104204 42.567102 221.70516 44.010863 221.70516 45.714795 C 221.70516 47.389411 221.104204 48.822179 219.905955 50.009434 C 218.7187 51.200354 217.271275 51.793981 215.571008 51.793981 C 213.896392 51.793981 212.463624 51.200354 211.276369 50.009434 C 210.085449 48.822179 209.491821 47.389411 209.491821 45.714795 C 209.491821 44.010863 210.085449 42.567102 211.276369 41.379847 C 212.463624 40.181599 213.896392 39.580642 215.571008 39.580642 Z M 215.571008 39.580642 " stroke="#000000" stroke-width="3.999998" stroke-opacity="1" stroke-miterlimit="4"/><g fill="#ffffff" fill-opacity="1"><g transform="translate(67.62614, 177.942671)"><g><path d="M 27.234375 -46.890625 L 46.15625 0 L 34.671875 0 L 31.203125 -9.375 L 13.359375 -9.375 L 9.890625 0 L -1.59375 0 L 17.34375 -46.890625 Z M 27.5625 -18.765625 L 22.34375 -32.40625 L 22.21875 -32.40625 L 17 -18.765625 Z M 27.5625 -18.765625 "/></g></g></g><g fill="#ffffff" fill-opacity="1"><g transform="translate(112.195119, 177.942671)"><g><path d="M 23.8125 -46.890625 L 23.8125 -13.25 C 23.8125 -8.65625 22.550781 -5.15625 20.03125 -2.75 C 17.507812 -0.34375 13.898438 0.859375 9.203125 0.859375 C 7.953125 0.859375 6.71875 0.703125 5.5 0.390625 C 4.289062 0.0859375 3.269531 -0.273438 2.4375 -0.703125 C 1.601562 -1.140625 0.851562 -1.585938 0.1875 -2.046875 C -0.46875 -2.503906 -0.945312 -2.882812 -1.25 -3.1875 L -1.765625 -3.640625 L 1.65625 -12.5625 C 3.882812 -10.4375 5.910156 -9.375 7.734375 -9.375 C 9.359375 -9.375 10.660156 -9.914062 11.640625 -11 C 12.628906 -12.082031 13.125 -13.738281 13.125 -15.96875 L 13.125 -46.890625 Z M 23.8125 -46.890625 "/></g></g></g><g fill="#ffffff" fill-opacity="1"><g transform="translate(138.856913, 177.942671)"><g><path d="M 39.453125 -46.890625 L 39.453125 -16.65625 C 39.453125 -10.894531 37.894531 -6.535156 34.78125 -3.578125 C 31.675781 -0.617188 27.128906 0.859375 21.140625 0.859375 C 15.160156 0.859375 10.613281 -0.617188 7.5 -3.578125 C 4.394531 -6.535156 2.84375 -10.894531 2.84375 -16.65625 L 2.84375 -46.890625 L 13.53125 -46.890625 L 13.53125 -19.78125 C 13.53125 -15.988281 14.125 -13.351562 15.3125 -11.875 C 16.507812 -10.394531 18.453125 -9.65625 21.140625 -9.65625 C 23.835938 -9.65625 25.78125 -10.394531 26.96875 -11.875 C 28.164062 -13.351562 28.765625 -15.988281 28.765625 -19.78125 L 28.765625 -46.890625 Z M 39.453125 -46.890625 "/></g></g></g><g fill="#ffffff" fill-opacity="1"><g transform="translate(181.151953, 177.942671)"><g><path d="M 3.40625 -46.890625 L 17 -46.890625 C 23.507812 -46.890625 29.078125 -44.660156 33.703125 -40.203125 C 38.328125 -35.753906 40.640625 -30.175781 40.640625 -23.46875 C 40.640625 -16.726562 38.335938 -11.128906 33.734375 -6.671875 C 29.128906 -2.222656 23.550781 0 17 0 L 3.40625 0 Z M 14.09375 -9.546875 L 15.75 -9.546875 C 19.644531 -9.546875 22.832031 -10.863281 25.3125 -13.5 C 27.800781 -16.132812 29.066406 -19.441406 29.109375 -23.421875 C 29.109375 -27.398438 27.863281 -30.710938 25.375 -33.359375 C 22.894531 -36.015625 19.6875 -37.34375 15.75 -37.34375 L 14.09375 -37.34375 Z M 14.09375 -9.546875 "/></g></g></g><g fill="#ffffff" fill-opacity="1"><g transform="translate(223.105911, 177.942671)"><g><path d="M 27.234375 -46.890625 L 46.15625 0 L 34.671875 0 L 31.203125 -9.375 L 13.359375 -9.375 L 9.890625 0 L -1.59375 0 L 17.34375 -46.890625 Z M 27.5625 -18.765625 L 22.34375 -32.40625 L 22.21875 -32.40625 L 17 -18.765625 Z M 27.5625 -18.765625 "/></g></g></g><g fill="#ffffff" fill-opacity="1"><g transform="translate(267.67489, 177.942671)"><g><path d="M 6.25 -15.34375 L 4.890625 -48.890625 L 14.953125 -48.890625 L 13.578125 -15.34375 Z M 9.890625 -12.171875 C 11.710938 -12.171875 13.253906 -11.535156 14.515625 -10.265625 C 15.785156 -8.992188 16.421875 -7.445312 16.421875 -5.625 C 16.421875 -3.84375 15.785156 -2.316406 14.515625 -1.046875 C 13.253906 0.222656 11.710938 0.859375 9.890625 0.859375 C 8.109375 0.859375 6.582031 0.222656 5.3125 -1.046875 C 4.039062 -2.316406 3.40625 -3.84375 3.40625 -5.625 C 3.40625 -7.445312 4.039062 -8.992188 5.3125 -10.265625 C 6.582031 -11.535156 8.109375 -12.171875 9.890625 -12.171875 Z M 9.890625 -12.171875 "/></g></g></g><g fill="#ffffff" fill-opacity="1"><g transform="translate(287.514899, 177.942671)"><g><path d="M 6.25 -15.34375 L 4.890625 -48.890625 L 14.953125 -48.890625 L 13.578125 -15.34375 Z M 9.890625 -12.171875 C 11.710938 -12.171875 13.253906 -11.535156 14.515625 -10.265625 C 15.785156 -8.992188 16.421875 -7.445312 16.421875 -5.625 C 16.421875 -3.84375 15.785156 -2.316406 14.515625 -1.046875 C 13.253906 0.222656 11.710938 0.859375 9.890625 0.859375 C 8.109375 0.859375 6.582031 0.222656 5.3125 -1.046875 C 4.039062 -2.316406 3.40625 -3.84375 3.40625 -5.625 C 3.40625 -7.445312 4.039062 -8.992188 5.3125 -10.265625 C 6.582031 -11.535156 8.109375 -12.171875 9.890625 -12.171875 Z M 9.890625 -12.171875 "/></g></g></g></svg>