<svg xmlns="http://www.w3.org/2000/svg" xmlns:xlink="http://www.w3.org/1999/xlink" width="500" zoomAndPan="magnify" viewBox="0 0 375 374.999991" height="500" preserveAspectRatio="xMidYMid meet" version="1.0"><defs><g/><clipPath id="b514d4a4ac"><path d="M 84 89.484375 L 120 89.484375 L 120 159 L 84 159 Z M 84 89.484375 " clip-rule="nonzero"/></clipPath><clipPath id="5d3da8237d"><path d="M 84 89.484375 L 89 89.484375 L 89 97 L 84 97 Z M 84 89.484375 " clip-rule="nonzero"/></clipPath></defs><rect x="-37.5" width="450" fill="#ffffff" y="-37.499999" height="449.999989" fill-opacity="1"/><rect x="-37.5" width="450" fill="#38b6ff" y="-37.499999" height="449.999989" fill-opacity="1"/><path fill="#f9ad27" d="M 268.300781 154.449219 C 269.269531 149.480469 270.425781 144.203125 270.984375 139.179688 C 271.277344 136.523438 271.546875 135.246094 269.261719 133.671875 C 268.175781 132.925781 264.605469 130.9375 263.332031 131.90625 C 262.121094 132.820312 255.132812 164.570312 253.882812 169.0625 C 252.730469 173.203125 251.980469 177.453125 250.9375 181.621094 C 249.9375 185.617188 248.867188 189.589844 248.226562 193.664062 C 248.097656 194.480469 247.367188 196.714844 247.625 197.425781 C 248.027344 198.523438 250.027344 198.5 250.933594 198.644531 C 253.257812 199.007812 256.207031 200.40625 257.457031 197.519531 C 258.054688 196.132812 258.847656 194.746094 259.222656 193.300781 C 260.097656 189.902344 266.425781 164.03125 268.300781 154.449219 " fill-opacity="1" fill-rule="nonzero"/><path fill="#fbd23d" d="M 263.332031 131.90625 C 263.351562 131.890625 263.375 131.875 263.398438 131.859375 C 263.375 131.875 263.351562 131.890625 263.332031 131.90625 " fill-opacity="1" fill-rule="nonzero"/><path fill="#f69516" d="M 257.0625 162.707031 C 256.960938 161.941406 256.847656 161.179688 256.722656 160.417969 C 256.644531 159.949219 256.609375 158.984375 256.503906 158.128906 C 256.5625 157.882812 256.621094 157.628906 256.679688 157.378906 C 256.761719 159.234375 256.921875 161.089844 257.0625 162.707031 M 261.503906 147.296875 C 260.996094 147.148438 260.496094 147.09375 260.089844 147.09375 C 259.996094 147.09375 259.90625 147.097656 259.820312 147.105469 C 259.550781 147.121094 259.300781 147.179688 259.070312 147.269531 C 260.96875 139.378906 262.769531 132.332031 263.332031 131.90625 C 263.351562 131.890625 263.375 131.875 263.398438 131.859375 C 263.628906 131.707031 263.929688 131.644531 264.269531 131.644531 C 264.644531 131.644531 265.070312 131.726562 265.515625 131.851562 C 264.632812 134.46875 263.078125 140.707031 261.503906 147.296875 " fill-opacity="1" fill-rule="nonzero"/><path fill="#f9ad27" d="M 223.351562 179.683594 C 223.992188 184.703125 224.558594 190.074219 225.613281 195.019531 C 226.171875 197.636719 226.320312 198.929688 228.984375 199.707031 C 230.25 200.074219 234.265625 200.839844 235.171875 199.519531 C 236.027344 198.273438 232.660156 165.9375 232.429688 161.28125 C 232.21875 156.988281 231.585938 152.71875 231.269531 148.433594 C 230.957031 144.328125 230.722656 140.222656 230.046875 136.152344 C 229.910156 135.335938 229.902344 132.988281 229.429688 132.394531 C 228.703125 131.476562 226.8125 132.125 225.910156 132.273438 C 223.585938 132.664062 220.347656 132.261719 220.070312 135.390625 C 219.9375 136.898438 222.109375 170 223.351562 179.683594 " fill-opacity="1" fill-rule="nonzero"/><path fill="#fbd23d" d="M 220.070312 135.382812 C 220.070312 135.382812 220.070312 135.378906 220.070312 135.375 C 220.070312 135.378906 220.070312 135.382812 220.070312 135.382812 M 220.070312 135.375 C 220.070312 135.371094 220.070312 135.371094 220.070312 135.367188 C 220.070312 135.371094 220.070312 135.371094 220.070312 135.375 M 220.074219 135.363281 C 220.074219 135.363281 220.074219 135.359375 220.074219 135.355469 C 220.074219 135.359375 220.074219 135.363281 220.074219 135.363281 M 220.074219 135.355469 C 220.097656 135.125 220.132812 134.914062 220.1875 134.722656 C 220.132812 134.914062 220.097656 135.125 220.074219 135.355469 M 220.1875 134.71875 C 220.1875 134.71875 220.1875 134.71875 220.1875 134.714844 C 220.1875 134.71875 220.1875 134.71875 220.1875 134.71875 M 220.1875 134.710938 C 220.191406 134.710938 220.191406 134.710938 220.191406 134.707031 C 220.191406 134.710938 220.191406 134.710938 220.1875 134.710938 M 220.191406 134.703125 C 220.195312 134.703125 220.195312 134.699219 220.195312 134.699219 C 220.195312 134.699219 220.195312 134.703125 220.191406 134.703125 " fill-opacity="1" fill-rule="nonzero"/><path fill="#f69516" d="M 224.234375 159.039062 C 223.488281 155.453125 222.691406 151.816406 221.675781 148.40625 C 221.308594 147.171875 221.058594 146.238281 220.59375 145.539062 C 220.273438 140.472656 220.0625 136.632812 220.0625 135.609375 C 220.0625 135.507812 220.066406 135.4375 220.070312 135.390625 C 220.070312 135.390625 220.070312 135.386719 220.070312 135.382812 C 220.070312 135.382812 220.070312 135.378906 220.070312 135.375 C 220.070312 135.371094 220.070312 135.371094 220.070312 135.367188 C 220.070312 135.367188 220.074219 135.363281 220.074219 135.363281 C 220.074219 135.363281 220.074219 135.359375 220.074219 135.355469 C 220.097656 135.125 220.132812 134.914062 220.1875 134.722656 L 220.1875 134.71875 C 220.1875 134.71875 220.1875 134.71875 220.1875 134.714844 C 220.1875 134.714844 220.1875 134.710938 220.1875 134.710938 C 220.191406 134.710938 220.191406 134.710938 220.191406 134.707031 C 220.191406 134.703125 220.191406 134.703125 220.191406 134.703125 C 220.195312 134.703125 220.195312 134.699219 220.195312 134.699219 C 220.195312 134.699219 220.195312 134.695312 220.195312 134.691406 C 220.558594 133.417969 221.566406 132.921875 222.746094 132.675781 C 222.691406 132.878906 222.644531 133.09375 222.625 133.335938 C 222.542969 134.257812 223.328125 147.042969 224.234375 159.039062 " fill-opacity="1" fill-rule="nonzero"/><path fill="#fbd23d" d="M 280.011719 147.707031 C 280.226562 143.421875 277.027344 141.367188 274.953125 140.742188 C 271.921875 139.828125 270.597656 142.46875 269.746094 150.082031 C 268.652344 159.800781 263.339844 182.824219 261.578125 192.507812 C 260.808594 196.742188 259.320312 203.386719 260.429688 207.640625 C 260.839844 209.222656 262.582031 209.996094 263.550781 210.1875 C 268.273438 211.136719 269.671875 198.488281 270.804688 193.230469 C 271.644531 189.304688 279.625 155.328125 280.011719 147.707031 " fill-opacity="1" fill-rule="nonzero"/><path fill="#fbd23d" d="M 269.746094 150.082031 C 269.847656 149.160156 269.957031 148.3125 270.078125 147.535156 C 269.957031 148.3125 269.847656 149.160156 269.746094 150.082031 " fill-opacity="1" fill-rule="nonzero"/><path fill="#f8b417" d="M 267.136719 175.507812 C 266.96875 172.664062 266.808594 169.996094 266.652344 167.683594 C 268.050781 160.773438 269.28125 154.222656 269.746094 150.082031 C 269.847656 149.160156 269.957031 148.3125 270.078125 147.535156 C 270.820312 142.695312 271.917969 140.578125 273.890625 140.578125 C 274.152344 140.578125 274.425781 140.613281 274.71875 140.6875 C 273.292969 141.691406 272.488281 144.570312 271.902344 149.789062 C 271.253906 155.539062 269.128906 165.957031 267.136719 175.507812 " fill-opacity="1" fill-rule="nonzero"/><path fill="#f9ad27" d="M 257.125 134.910156 C 256.785156 130.628906 253.34375 129.011719 251.203125 128.660156 C 248.082031 128.144531 247.113281 130.9375 247.257812 138.59375 C 247.441406 148.371094 245.171875 171.894531 244.6875 181.722656 C 244.476562 186.019531 243.867188 192.800781 245.519531 196.875 C 246.136719 198.390625 247.964844 198.929688 248.945312 199 C 253.753906 199.320312 253.496094 186.601562 253.925781 181.242188 C 254.253906 177.238281 257.738281 142.515625 257.125 134.910156 " fill-opacity="1" fill-rule="nonzero"/><path fill="#fbd23d" d="M 247.269531 139.800781 C 247.269531 139.378906 247.265625 138.976562 247.257812 138.59375 C 247.253906 138.476562 247.253906 138.355469 247.253906 138.238281 C 247.253906 138.355469 247.253906 138.476562 247.257812 138.59375 C 247.265625 138.976562 247.269531 139.378906 247.269531 139.800781 " fill-opacity="1" fill-rule="nonzero"/><path fill="#f69516" d="M 247.640625 196.351562 L 247 196.351562 C 247.0625 195.910156 247.128906 195.464844 247.191406 195.011719 C 247.3125 195.464844 247.457031 195.898438 247.621094 196.300781 C 247.628906 196.320312 247.632812 196.332031 247.640625 196.351562 M 249.175781 146.042969 C 248.621094 145.78125 247.890625 145.472656 247.136719 145.234375 C 247.21875 143.210938 247.269531 141.371094 247.269531 139.800781 C 247.269531 139.378906 247.265625 138.976562 247.257812 138.59375 C 247.253906 138.476562 247.253906 138.355469 247.253906 138.238281 C 247.152344 131.421875 247.992188 128.609375 250.53125 128.609375 C 250.671875 128.609375 250.8125 128.617188 250.964844 128.632812 C 249.683594 129.816406 249.261719 132.773438 249.359375 138.023438 C 249.398438 140.144531 249.324219 142.910156 249.175781 146.042969 " fill-opacity="1" fill-rule="nonzero"/><path fill="#fbd23d" d="M 260.28125 211.707031 C 261.199219 215.902344 264.820312 217.046875 266.988281 217.113281 C 270.152344 217.203125 270.738281 214.308594 269.574219 206.738281 C 268.082031 197.074219 267.1875 173.460938 266.351562 163.652344 C 265.984375 159.363281 265.683594 152.566406 263.5 148.75 C 262.6875 147.328125 260.804688 147.035156 259.820312 147.105469 C 255.015625 147.421875 256.972656 159.996094 257.257812 165.363281 C 257.472656 169.375 258.660156 204.25 260.28125 211.707031 " fill-opacity="1" fill-rule="nonzero"/><path fill="#f8b417" d="M 260.285156 196.351562 L 260.027344 196.351562 C 259.5625 191.230469 259.179688 187.015625 259.105469 185.546875 C 258.894531 181.253906 258.265625 176.988281 257.945312 172.699219 C 257.695312 169.367188 257.492188 166.035156 257.0625 162.71875 C 256.625 157.535156 255.929688 149.914062 258.375 147.714844 C 257.421875 151.894531 258.402344 158.964844 258.597656 162.648438 C 258.746094 165.449219 259.371094 183.296875 260.285156 196.351562 " fill-opacity="1" fill-rule="nonzero"/><path fill="#f9ad27" d="M 223.683594 193.558594 C 223.386719 197.84375 226.542969 199.957031 228.605469 200.625 C 231.613281 201.597656 232.992188 198.984375 233.996094 191.390625 C 235.277344 181.695312 241.039062 158.777344 242.992188 149.128906 C 243.839844 144.910156 245.460938 138.296875 244.4375 134.027344 C 244.054688 132.433594 242.328125 131.625 241.367188 131.414062 C 236.664062 130.378906 235.015625 142.992188 233.785156 148.226562 C 232.863281 152.136719 224.21875 185.949219 223.683594 193.558594 " fill-opacity="1" fill-rule="nonzero"/><path fill="#f69516" d="M 227.792969 177.699219 C 227.632812 176.777344 227.472656 175.863281 227.3125 174.96875 C 227.453125 174.351562 227.597656 173.734375 227.742188 173.113281 C 227.757812 174.648438 227.769531 176.1875 227.792969 177.699219 M 234.046875 147.039062 C 235.101562 142.046875 236.554688 133.164062 239.804688 131.597656 C 237.71875 135.34375 236.675781 142.402344 235.832031 145.996094 C 235.785156 146.199219 235.714844 146.484375 235.625 146.839844 C 235.058594 146.867188 234.480469 146.980469 234.046875 147.039062 " fill-opacity="1" fill-rule="nonzero"/><path fill="#fbd23d" d="M 225.160156 163.511719 C 224.117188 158.5625 223.121094 153.25 221.675781 148.40625 C 220.90625 145.84375 220.660156 144.5625 217.9375 144.003906 C 216.648438 143.738281 212.585938 143.296875 211.785156 144.6875 C 211.03125 145.996094 216.980469 177.957031 217.582031 182.582031 C 218.136719 186.84375 219.109375 191.046875 219.769531 195.292969 C 220.40625 199.359375 220.972656 203.4375 221.972656 207.441406 C 222.171875 208.242188 222.371094 210.582031 222.886719 211.136719 C 223.683594 211.992188 225.519531 211.191406 226.40625 210.972656 C 228.691406 210.402344 231.949219 210.542969 231.976562 207.398438 C 231.992188 205.886719 232.175781 204.304688 231.957031 202.828125 C 231.441406 199.355469 227.171875 173.066406 225.160156 163.511719 " fill-opacity="1" fill-rule="nonzero"/><path fill="#fbd23d" d="M 211.789062 144.679688 C 211.789062 144.679688 211.789062 144.679688 211.792969 144.679688 C 211.789062 144.679688 211.789062 144.679688 211.789062 144.679688 M 211.796875 144.667969 L 211.796875 144.667969 " fill-opacity="1" fill-rule="nonzero"/><path fill="#f8b417" d="M 219.804688 181.71875 L 217.457031 181.710938 C 216.476562 175.320312 211.722656 149.472656 211.722656 145.234375 C 211.722656 144.949219 211.742188 144.765625 211.785156 144.6875 C 211.785156 144.683594 211.789062 144.679688 211.789062 144.679688 C 211.789062 144.679688 211.789062 144.679688 211.792969 144.679688 C 211.792969 144.675781 211.792969 144.675781 211.792969 144.675781 C 211.792969 144.671875 211.796875 144.667969 211.796875 144.667969 C 211.796875 144.664062 211.796875 144.664062 211.800781 144.660156 C 211.804688 144.65625 211.804688 144.652344 211.808594 144.648438 C 212.125 144.148438 212.886719 143.890625 213.78125 143.785156 C 214.257812 150.203125 219.0625 176.15625 219.605469 180.285156 C 219.667969 180.765625 219.734375 181.242188 219.804688 181.71875 " fill-opacity="1" fill-rule="nonzero"/><path fill="#fbd23d" d="M 250.839844 167.152344 C 251.335938 162.113281 251.988281 156.753906 252.066406 151.699219 C 252.109375 149.023438 252.253906 147.726562 249.832031 146.378906 C 248.679688 145.738281 244.9375 144.09375 243.757812 145.179688 C 242.644531 146.203125 238.6875 178.472656 237.867188 183.0625 C 237.113281 187.292969 236.773438 191.589844 236.125 195.84375 C 235.507812 199.910156 234.816406 203.96875 234.5625 208.085938 C 234.511719 208.914062 233.996094 211.203125 234.320312 211.886719 C 234.828125 212.941406 236.816406 212.730469 237.730469 212.789062 C 240.082031 212.929688 243.144531 214.042969 244.117188 211.054688 C 244.585938 209.613281 245.238281 208.160156 245.476562 206.683594 C 246.027344 203.222656 249.878906 176.867188 250.839844 167.152344 " fill-opacity="1" fill-rule="nonzero"/><path fill="#f8b417" d="M 238.863281 193.453125 C 238.722656 187.644531 238.558594 182.066406 238.503906 178.804688 C 239.914062 168.691406 242.828125 146.035156 243.757812 145.179688 C 244.035156 144.921875 244.460938 144.820312 244.960938 144.820312 C 245.261719 144.820312 245.589844 144.855469 245.929688 144.921875 C 244.453125 151.183594 241.21875 177.378906 240.484375 181.480469 C 239.777344 185.441406 239.433594 189.464844 238.863281 193.453125 " fill-opacity="1" fill-rule="nonzero"/><path fill="#fbd23d" d="M 228.234375 194.207031 C 228.550781 199.257812 228.773438 204.65625 229.503906 209.65625 C 229.890625 212.304688 229.957031 213.605469 232.566406 214.550781 C 233.804688 215 237.761719 216.023438 238.753906 214.761719 C 239.6875 213.570312 238.410156 181.089844 238.484375 176.429688 C 238.550781 172.128906 238.195312 167.832031 238.148438 163.53125 C 238.105469 159.417969 238.136719 155.300781 237.726562 151.195312 C 237.640625 150.371094 237.785156 148.03125 237.351562 147.40625 C 236.6875 146.445312 234.757812 146.972656 233.84375 147.0625 C 231.503906 147.296875 228.300781 146.691406 227.820312 149.796875 C 227.589844 151.292969 227.625 184.460938 228.234375 194.207031 " fill-opacity="1" fill-rule="nonzero"/><path fill="#f8b417" d="M 231.15625 196.351562 L 228.363281 196.351562 C 228.320312 195.632812 228.277344 194.914062 228.234375 194.207031 C 227.84375 187.960938 227.6875 172.082031 227.6875 161.097656 C 227.6875 154.949219 227.738281 150.335938 227.820312 149.796875 C 228.09375 148.011719 229.269531 147.457031 230.664062 147.257812 C 230.59375 147.457031 230.539062 147.667969 230.5 147.90625 C 230.269531 149.402344 230.304688 182.570312 230.917969 192.316406 C 231 193.640625 231.074219 194.992188 231.15625 196.351562 " fill-opacity="1" fill-rule="nonzero"/><path fill="#fbd23d" d="M 250.027344 203.949219 C 250.667969 208.96875 251.234375 214.339844 252.292969 219.285156 C 252.847656 221.902344 252.996094 223.195312 255.664062 223.972656 C 256.925781 224.339844 260.941406 225.105469 261.847656 223.785156 C 262.707031 222.539062 259.335938 190.203125 259.105469 185.546875 C 258.894531 181.253906 258.265625 176.988281 257.945312 172.699219 C 257.636719 168.59375 257.402344 164.488281 256.722656 160.417969 C 256.589844 159.601562 256.578125 157.253906 256.109375 156.65625 C 255.378906 155.742188 253.488281 156.390625 252.585938 156.539062 C 250.261719 156.929688 247.023438 156.527344 246.746094 159.65625 C 246.613281 161.164062 248.789062 194.265625 250.027344 203.949219 " fill-opacity="1" fill-rule="nonzero"/><path fill="#f8b417" d="M 251.992188 196.351562 L 249.25 196.351562 C 248.976562 193.308594 248.695312 189.832031 248.421875 186.25 C 247.53125 174.582031 246.738281 161.851562 246.738281 159.871094 C 246.738281 159.773438 246.742188 159.703125 246.746094 159.65625 C 246.90625 157.859375 248.046875 157.226562 249.421875 156.941406 C 249.367188 157.140625 249.320312 157.355469 249.300781 157.597656 C 249.1875 158.886719 250.757812 183.25 251.992188 196.351562 " fill-opacity="1" fill-rule="nonzero"/><path fill="#a3db7b" d="M 215.917969 181.703125 L 225.820312 181.746094 L 225.820312 196.351562 L 264.828125 196.351562 L 264.828125 181.921875 L 275.328125 181.96875 C 275.328125 194.46875 276.128906 219.71875 274.757812 232 C 273.140625 246.492188 220.183594 245.226562 214.972656 233.460938 C 212.980469 228.964844 215.917969 181.703125 215.917969 181.703125 " fill-opacity="1" fill-rule="nonzero"/><path fill="#d1edb8" d="M 217.457031 181.710938 L 215.917969 181.703125 L 217.457031 181.710938 C 217.457031 181.710938 217.457031 181.707031 217.457031 181.710938 " fill-opacity="1" fill-rule="nonzero"/><path fill="#cfc637" d="M 220.128906 181.722656 L 219.804688 181.71875 L 220.128906 181.71875 " fill-opacity="1" fill-rule="nonzero"/><path fill="#ceab1e" d="M 219.804688 181.71875 L 217.457031 181.710938 C 217.457031 181.707031 217.457031 181.710938 217.457031 181.710938 L 219.804688 181.71875 " fill-opacity="1" fill-rule="nonzero"/><path fill="#85d166" d="M 246.054688 242.578125 C 243.410156 242.578125 240.753906 242.460938 238.164062 242.234375 C 237.964844 240.898438 237.738281 239.921875 237.515625 239.558594 C 237.105469 238.890625 236.335938 237.980469 235.472656 237.085938 C 240.132812 237.933594 245.351562 238.375 250.511719 238.375 C 259.722656 238.375 268.765625 236.972656 274.175781 233.988281 C 271.300781 239.878906 258.839844 242.578125 246.054688 242.578125 M 223.574219 233.25 C 220.457031 233.070312 217.324219 232.921875 215.84375 232.796875 C 215.480469 232.761719 215.113281 232.734375 214.753906 232.707031 C 214.414062 231.046875 214.28125 227.625 214.28125 223.296875 C 214.28125 208.082031 215.917969 181.703125 215.917969 181.703125 L 217.457031 181.710938 L 219.804688 181.71875 L 220.128906 181.722656 C 219.464844 193.40625 217.804688 225.585938 219.429688 229.257812 C 220.097656 230.761719 221.546875 232.097656 223.574219 233.25 " fill-opacity="1" fill-rule="nonzero"/><path fill="#ef3644" d="M 267.949219 181.9375 L 267.949219 199.003906 L 221.890625 199.003906 L 221.890625 181.703125 L 225.492188 181.703125 L 225.492188 195.257812 L 264.347656 195.257812 L 264.347656 181.921875 L 267.949219 181.9375 " fill-opacity="1" fill-rule="nonzero"/><path fill="#fbd23d" d="M 220.617188 217.113281 C 220.617188 223.140625 231.496094 228.027344 244.917969 228.027344 C 258.34375 228.027344 269.226562 223.140625 269.226562 217.113281 C 269.226562 211.085938 258.34375 206.203125 244.917969 206.203125 C 231.496094 206.203125 220.617188 211.085938 220.617188 217.113281 " fill-opacity="1" fill-rule="nonzero"/><path fill="#ef3644" d="M 89.285156 268.167969 C 89.480469 269.863281 99.480469 276.847656 115.867188 276.847656 C 133.039062 276.847656 142.253906 269.863281 142.449219 268.167969 L 152.003906 165.199219 C 152.394531 161.8125 150.363281 159.042969 147.484375 159.042969 L 84.253906 159.042969 C 81.375 159.042969 79.339844 161.8125 79.730469 165.199219 L 89.285156 268.167969 " fill-opacity="1" fill-rule="nonzero"/><path fill="#bdbcbc" d="M 156.476562 159.800781 L 156.476562 167.636719 C 156.476562 171.964844 138.296875 175.472656 115.867188 175.472656 C 93.4375 175.472656 75.257812 171.964844 75.257812 167.636719 L 75.257812 159.800781 L 156.476562 159.800781 " fill-opacity="1" fill-rule="nonzero"/><path fill="#d5d4d5" d="M 75.257812 159.800781 C 75.257812 164.128906 93.4375 167.636719 115.867188 167.636719 C 138.296875 167.636719 156.476562 164.128906 156.476562 159.800781 C 156.476562 155.472656 138.296875 151.96875 115.867188 151.96875 C 93.4375 151.96875 75.257812 155.472656 75.257812 159.800781 " fill-opacity="1" fill-rule="nonzero"/><path fill="#989696" d="M 91.351562 159.800781 C 91.351562 161.601562 102.328125 163.058594 115.867188 163.058594 C 129.40625 163.058594 140.382812 161.601562 140.382812 159.800781 C 140.382812 158.003906 129.40625 156.546875 115.867188 156.546875 C 102.328125 156.546875 91.351562 158.003906 91.351562 159.800781 " fill-opacity="1" fill-rule="nonzero"/><path fill="#351f17" d="M 106.863281 159.800781 C 106.863281 160.464844 110.894531 161 115.867188 161 C 120.839844 161 124.871094 160.464844 124.871094 159.800781 C 124.871094 159.144531 120.839844 158.605469 115.867188 158.605469 C 110.894531 158.605469 106.863281 159.144531 106.863281 159.800781 " fill-opacity="1" fill-rule="nonzero"/><g clip-path="url(#b514d4a4ac)"><path fill="#ffffff" d="M 87.980469 93.734375 C 88.988281 92.011719 87.839844 89.925781 87.839844 89.925781 L 117.792969 107.683594 C 119.140625 108.46875 119.777344 109.988281 119.519531 111.4375 C 119.550781 111.628906 119.578125 111.816406 119.578125 112.015625 L 119.578125 158.75 C 118.523438 158.839844 117.285156 158.886719 115.957031 158.886719 C 114.628906 158.886719 113.386719 158.839844 112.335938 158.75 L 112.335938 112.855469 L 84.1875 96.171875 C 84.1875 96.171875 86.972656 95.457031 87.980469 93.734375 " fill-opacity="1" fill-rule="nonzero"/></g><path fill="#ef3644" d="M 112.335938 144.722656 C 114.886719 143.632812 117.328125 142.074219 119.578125 140.109375 L 119.578125 149.574219 C 117.332031 150.972656 114.90625 152.089844 112.335938 152.953125 L 112.335938 144.722656 " fill-opacity="1" fill-rule="nonzero"/><path fill="#ef3644" d="M 119.578125 118.53125 L 119.578125 127.714844 C 117.429688 130.40625 115.058594 132.914062 112.335938 134.605469 L 112.335938 123.484375 C 114.984375 122.292969 117.425781 120.566406 119.578125 118.53125 " fill-opacity="1" fill-rule="nonzero"/><path fill="#ef3644" d="M 102.5625 98.652344 L 111.148438 103.746094 C 110.445312 106.050781 109.449219 108.292969 108.207031 110.410156 L 100.890625 106.070312 C 101.691406 103.660156 102.25 101.175781 102.5625 98.652344 " fill-opacity="1" fill-rule="nonzero"/><path fill="#d3d2d2" d="M 115.957031 158.886719 C 114.628906 158.886719 113.386719 158.839844 112.335938 158.75 L 112.335938 152.953125 C 113.628906 152.519531 114.890625 152.019531 116.105469 151.453125 L 116.105469 158.886719 L 115.957031 158.886719 M 112.335938 144.722656 L 112.335938 134.605469 C 113.671875 133.773438 114.921875 132.746094 116.105469 131.597656 L 116.105469 142.722656 C 114.886719 143.503906 113.621094 144.171875 112.335938 144.722656 M 112.335938 123.484375 L 112.335938 112.855469 L 105.984375 109.09375 L 108.207031 110.410156 C 108.652344 109.652344 109.0625 108.878906 109.441406 108.09375 L 116.105469 112.042969 L 116.105469 121.347656 C 114.90625 122.171875 113.644531 122.894531 112.335938 123.484375 " fill-opacity="1" fill-rule="nonzero"/><path fill="#c62b37" d="M 112.335938 152.953125 L 112.335938 144.722656 C 113.621094 144.171875 114.886719 143.503906 116.105469 142.722656 L 116.105469 151.453125 C 114.890625 152.019531 113.628906 152.519531 112.335938 152.953125 " fill-opacity="1" fill-rule="nonzero"/><path fill="#c62b37" d="M 112.335938 134.605469 L 112.335938 123.484375 C 113.644531 122.894531 114.90625 122.171875 116.105469 121.347656 L 116.105469 131.597656 C 114.921875 132.746094 113.671875 133.773438 112.335938 134.605469 " fill-opacity="1" fill-rule="nonzero"/><path fill="#d3d2d2" d="M 84.1875 96.171875 C 84.191406 96.167969 85.804688 95.753906 87.015625 94.796875 L 87.019531 94.796875 C 85.804688 95.757812 84.191406 96.167969 84.1875 96.171875 " fill-opacity="1" fill-rule="nonzero"/><path fill="#d3d2d2" d="M 100.890625 106.070312 L 84.1875 96.171875 C 84.191406 96.167969 85.804688 95.757812 87.019531 94.796875 L 101.652344 103.476562 C 101.429688 104.347656 101.171875 105.214844 100.890625 106.070312 " fill-opacity="1" fill-rule="nonzero"/><path fill="#c62b37" d="M 108.207031 110.410156 L 105.984375 109.09375 L 100.890625 106.070312 C 101.171875 105.214844 101.429688 104.347656 101.652344 103.476562 L 109.441406 108.09375 C 109.0625 108.878906 108.652344 109.652344 108.207031 110.410156 " fill-opacity="1" fill-rule="nonzero"/><g clip-path="url(#5d3da8237d)"><path fill="#992128" d="M 84.601562 92.304688 C 83.796875 94.039062 83.8125 95.75 84.628906 96.128906 C 85.453125 96.503906 86.769531 95.40625 87.570312 93.675781 C 88.375 91.941406 88.359375 90.230469 87.539062 89.851562 C 86.722656 89.472656 85.40625 90.570312 84.601562 92.304688 " fill-opacity="1" fill-rule="nonzero"/></g><path fill="#fbd23d" d="M 148.855469 199.117188 L 144.667969 244.242188 C 135.089844 245.976562 124.703125 247.015625 113.84375 247.015625 C 104.519531 247.015625 95.542969 246.25 87.132812 244.933594 L 82.945312 199.835938 C 92.539062 201.429688 102.953125 202.542969 113.84375 202.542969 C 126.304688 202.542969 138.148438 201.082031 148.855469 199.117188 " fill-opacity="1" fill-rule="nonzero"/><path fill="#feecad" d="M 138.480469 231.871094 C 138.285156 230.546875 139.054688 229.054688 140.785156 229.054688 C 142.179688 229.054688 142.953125 230.019531 143.097656 231.089844 C 141.535156 231.164062 139.992188 231.351562 138.550781 231.84375 C 138.527344 231.855469 138.503906 231.863281 138.480469 231.871094 " fill-opacity="1" fill-rule="nonzero"/><path fill="#f8a039" d="M 224.742188 255.109375 C 226.992188 255.441406 229.035156 255.226562 230.742188 255.011719 C 233.914062 254.613281 235.941406 254.214844 236.0625 257.320312 C 236.207031 261.089844 233.503906 273.582031 228.527344 275.984375 C 211.117188 284.371094 178.0625 285.207031 155.566406 281.054688 C 142.941406 278.722656 133.597656 272.140625 132.957031 263.355469 C 132.527344 257.507812 134.480469 251.738281 144.324219 249.773438 C 158.480469 246.945312 212.382812 253.28125 224.742188 255.109375 " fill-opacity="1" fill-rule="nonzero"/><path fill="#671317" d="M 231.890625 234.070312 C 233.199219 234.679688 236.484375 237.886719 237.515625 239.558594 C 238.554688 241.246094 239.695312 256.453125 237.855469 258.914062 C 236.367188 260.898438 239.351562 265.226562 184.546875 264.917969 C 134.722656 264.636719 132.882812 259.417969 132.039062 257.652344 C 131.339844 256.179688 131.441406 242.628906 131.464844 241.039062 C 131.519531 237.257812 134.960938 233.078125 138.550781 231.84375 C 141.402344 230.867188 144.664062 231.101562 147.632812 230.996094 C 151.03125 230.875 154.46875 231.039062 157.871094 231.058594 C 166.433594 231.109375 174.96875 232.050781 183.566406 232.097656 C 185.949219 232.113281 188.339844 232.109375 190.730469 232.105469 C 199.105469 232.09375 207.523438 232.078125 215.84375 232.796875 C 219.140625 233.078125 230.585938 233.460938 231.890625 234.070312 " fill-opacity="1" fill-rule="nonzero"/><path fill="#d09f91" d="M 235.667969 261.363281 C 236.300781 261.023438 236.695312 260.6875 236.972656 260.363281 C 236.695312 260.6875 236.300781 261.023438 235.667969 261.363281 " fill-opacity="1" fill-rule="nonzero"/><path fill="#cd6b2d" d="M 189.964844 264.933594 C 188.226562 264.933594 186.421875 264.929688 184.546875 264.917969 C 145.226562 264.699219 135.789062 261.398438 133.144531 259.152344 C 135.789062 261.398438 145.226562 264.699219 184.546875 264.917969 C 186.421875 264.929688 188.226562 264.933594 189.964844 264.933594 C 222.546875 264.933594 232.347656 263.132812 235.667969 261.363281 C 232.347656 263.132812 222.550781 264.933594 189.964844 264.933594 " fill-opacity="1" fill-rule="nonzero"/><path fill="#581115" d="M 189.964844 264.933594 C 188.226562 264.933594 186.421875 264.929688 184.546875 264.917969 C 145.226562 264.699219 135.789062 261.398438 133.144531 259.152344 C 132.4375 258.550781 132.21875 258.023438 132.039062 257.652344 C 131.585938 256.699219 131.46875 250.671875 131.449219 246.113281 C 131.449219 245.578125 131.445312 245.066406 131.445312 244.582031 C 131.445312 244.578125 131.445312 244.574219 131.445312 244.570312 C 131.445312 244.566406 131.445312 244.566406 131.445312 244.5625 C 131.445312 242.816406 131.457031 241.476562 131.464844 241.039062 C 131.519531 237.257812 134.960938 233.078125 138.550781 231.84375 C 138.804688 231.757812 139.058594 231.691406 139.320312 231.621094 C 137.503906 233.46875 136.207031 235.917969 136.175781 238.21875 C 136.152344 239.808594 136.050781 253.363281 136.753906 254.835938 C 137.589844 256.597656 139.433594 261.820312 189.257812 262.101562 C 191.128906 262.109375 192.941406 262.117188 194.679688 262.117188 C 220.730469 262.117188 232.210938 260.96875 237.464844 259.597656 C 237.34375 259.839844 237.199219 260.09375 236.972656 260.363281 C 236.695312 260.6875 236.300781 261.023438 235.667969 261.363281 C 232.347656 263.132812 222.546875 264.933594 189.964844 264.933594 " fill-opacity="1" fill-rule="nonzero"/><path fill="#fbd23d" d="M 181.15625 237.636719 C 175.019531 237.707031 160.914062 247.894531 155.765625 250.917969 C 148.636719 255.109375 134.964844 263.683594 127.175781 263.671875 C 122.828125 263.664062 126.675781 253.144531 127.324219 249.953125 C 128.398438 244.667969 131.242188 239.417969 135.832031 234.6875 C 138.046875 232.402344 139.015625 232.050781 144.070312 232.269531 C 149.429688 232.503906 155.109375 232.769531 160.425781 233.351562 C 166.457031 234.007812 177.074219 234.617188 181.15625 237.125 L 181.15625 237.636719 " fill-opacity="1" fill-rule="nonzero"/><path fill="#fbd23d" d="M 189.847656 236.34375 C 195.984375 236.410156 210.089844 246.597656 215.238281 249.628906 C 222.367188 253.816406 236.039062 262.390625 243.828125 262.378906 C 248.179688 262.371094 244.328125 251.847656 243.679688 248.660156 C 242.609375 243.375 239.761719 238.125 235.171875 233.390625 C 232.957031 231.109375 231.992188 230.757812 226.929688 230.976562 C 221.574219 231.210938 215.894531 231.476562 210.574219 232.054688 C 204.550781 232.714844 193.929688 233.324219 189.847656 235.828125 L 189.847656 236.34375 " fill-opacity="1" fill-rule="nonzero"/><path fill="#ef3644" d="M 195.355469 248.367188 C 195.355469 254.128906 204.730469 258.792969 216.296875 258.792969 C 227.863281 258.792969 237.242188 254.128906 237.242188 248.367188 C 237.242188 242.605469 227.863281 237.941406 216.296875 237.941406 C 204.730469 237.941406 195.355469 242.605469 195.355469 248.367188 " fill-opacity="1" fill-rule="nonzero"/><path fill="#ef3644" d="M 198.804688 246.648438 C 198.804688 251.460938 206.632812 255.359375 216.296875 255.359375 C 225.957031 255.359375 233.789062 251.460938 233.789062 246.648438 C 233.789062 241.839844 225.957031 237.941406 216.296875 237.941406 C 206.632812 237.941406 198.804688 241.839844 198.804688 246.648438 " fill-opacity="1" fill-rule="nonzero"/><path fill="#ef3644" d="M 153.546875 251.691406 C 153.546875 257.449219 162.925781 262.117188 174.492188 262.117188 C 186.058594 262.117188 195.4375 257.449219 195.4375 251.691406 C 195.4375 245.929688 186.058594 241.261719 174.492188 241.261719 C 162.925781 241.261719 153.546875 245.929688 153.546875 251.691406 " fill-opacity="1" fill-rule="nonzero"/><path fill="#ef3644" d="M 157 249.972656 C 157 254.78125 164.832031 258.679688 174.492188 258.679688 C 184.152344 258.679688 191.984375 254.78125 191.984375 249.972656 C 191.984375 245.160156 184.152344 241.261719 174.492188 241.261719 C 164.832031 241.261719 157 245.160156 157 249.972656 " fill-opacity="1" fill-rule="nonzero"/><path fill="#5bc354" d="M 239.769531 235.234375 C 240.554688 236.378906 241.15625 237.363281 242.203125 238.265625 C 243.375 239.28125 244.375 239.765625 244.792969 241.429688 C 246.0625 246.453125 242.023438 245.882812 239.136719 244.46875 C 237.84375 243.835938 235.339844 242.78125 233.886719 243.460938 C 232.453125 244.136719 232.519531 246.558594 231.234375 247.609375 C 226.609375 251.410156 223.238281 244.691406 218.699219 245.535156 C 216.222656 245.996094 215.761719 249.171875 214.089844 250.863281 C 212.59375 252.378906 210.144531 251.828125 208.503906 250.886719 C 207.375 250.242188 207.175781 249.203125 206.257812 248.378906 C 205.253906 247.472656 203.792969 247.53125 202.554688 247.605469 C 199.988281 247.765625 200.25 249.53125 198.359375 250.855469 C 196.203125 252.367188 193.257812 252.058594 191.222656 250.554688 C 188.542969 248.574219 185.484375 248 182.417969 249.085938 C 179.957031 249.957031 178.636719 252.394531 176.078125 252.777344 C 172.601562 253.296875 170.289062 252.589844 167.371094 250.710938 C 165.707031 249.636719 163.484375 249.15625 161.710938 250.183594 C 159.371094 251.539062 156.929688 251.523438 154.207031 251.3125 C 150.117188 250.996094 146.898438 247.75 142.933594 247.457031 C 139.566406 247.207031 136.257812 248.980469 132.863281 249.085938 C 130.46875 249.15625 126.980469 247.753906 126.339844 244.691406 C 126.082031 243.457031 126.007812 241.375 126.054688 240.085938 C 126.128906 237.988281 127.753906 237.605469 129.121094 236.492188 C 130.601562 235.292969 134.234375 231.988281 134.5 230.019531 C 135.179688 224.902344 152.390625 227.113281 159.027344 227.957031 C 163.277344 228.496094 167.316406 229.46875 171.632812 229.113281 C 177.464844 228.632812 183.246094 228 189.097656 227.695312 C 191.871094 227.554688 194.652344 227.757812 197.425781 227.632812 C 200.796875 227.480469 204.132812 226.84375 207.503906 226.664062 C 210.847656 226.484375 214.285156 226.476562 217.636719 226.628906 C 222.28125 226.84375 226.824219 228.0625 231.308594 229.402344 C 232.8125 229.855469 234.714844 230.0625 236.113281 230.886719 C 237.550781 231.738281 238.792969 233.800781 239.769531 235.234375 " fill-opacity="1" fill-rule="nonzero"/><path fill="#f8a039" d="M 144.664062 237.046875 C 132.484375 233.808594 129.082031 213.574219 139.839844 202.863281 C 158.664062 184.128906 193.585938 184.976562 217.421875 192.65625 C 239.691406 199.835938 251.539062 230.371094 225.824219 237.394531 C 211.050781 241.433594 157.742188 240.515625 144.664062 237.046875 " fill-opacity="1" fill-rule="nonzero"/><path fill="#fbd23d" d="M 226.191406 204.800781 C 224.539062 203.25 223.503906 202.265625 221.542969 200.648438 C 221.359375 200.496094 221.710938 199.835938 221.941406 199.785156 C 223.238281 199.503906 224.800781 201.3125 225.792969 202.191406 C 226.121094 202.476562 226.6875 203.042969 226.742188 203.503906 C 226.757812 203.625 226.449219 205.039062 226.191406 204.800781 " fill-opacity="1" fill-rule="nonzero"/><path fill="#fbd23d" d="M 159.734375 192.929688 C 157.5 193.316406 156.089844 193.550781 153.617188 194.140625 C 153.386719 194.195312 153.066406 193.519531 153.164062 193.308594 C 153.722656 192.101562 156.109375 191.945312 157.40625 191.679688 C 157.832031 191.589844 158.625 191.480469 159.027344 191.714844 C 159.132812 191.777344 160.078125 192.871094 159.734375 192.929688 " fill-opacity="1" fill-rule="nonzero"/><path fill="#fbd23d" d="M 221.035156 192.417969 C 218.902344 193.183594 217.554688 193.65625 215.21875 194.664062 C 215 194.757812 214.570312 194.144531 214.628906 193.917969 C 214.972656 192.636719 217.292969 192.070312 218.527344 191.585938 C 218.929688 191.425781 219.695312 191.179688 220.128906 191.339844 C 220.242188 191.382812 221.367188 192.296875 221.035156 192.417969 " fill-opacity="1" fill-rule="nonzero"/><path fill="#fbd23d" d="M 167.792969 201.546875 C 165.703125 200.664062 164.394531 200.09375 161.996094 199.25 C 161.769531 199.171875 161.867188 198.429688 162.066406 198.304688 C 163.191406 197.59375 165.28125 198.753906 166.515625 199.234375 C 166.921875 199.394531 167.648438 199.730469 167.859375 200.140625 C 167.914062 200.253906 168.113281 201.683594 167.792969 201.546875 " fill-opacity="1" fill-rule="nonzero"/><path fill="#fbd23d" d="M 208.019531 199.429688 C 205.867188 198.710938 204.515625 198.246094 202.054688 197.59375 C 201.824219 197.535156 201.867188 196.789062 202.054688 196.648438 C 203.117188 195.851562 205.292969 196.839844 206.5625 197.222656 C 206.980469 197.347656 207.734375 197.628906 207.972656 198.019531 C 208.039062 198.125 208.351562 199.539062 208.019531 199.429688 " fill-opacity="1" fill-rule="nonzero"/><path fill="#fbd23d" d="M 152.800781 202.152344 C 150.652344 201.4375 149.300781 200.972656 146.839844 200.320312 C 146.609375 200.257812 146.648438 199.511719 146.835938 199.371094 C 147.902344 198.578125 150.078125 199.566406 151.347656 199.949219 C 151.761719 200.070312 152.515625 200.347656 152.757812 200.742188 C 152.824219 200.851562 153.136719 202.261719 152.800781 202.152344 " fill-opacity="1" fill-rule="nonzero"/><path fill="#fbd23d" d="M 172.105469 191.234375 C 169.871094 190.847656 168.464844 190.59375 165.933594 190.316406 C 165.699219 190.292969 165.625 189.550781 165.789062 189.382812 C 166.722656 188.433594 169.023438 189.085938 170.332031 189.273438 C 170.765625 189.335938 171.550781 189.496094 171.847656 189.847656 C 171.929688 189.945312 172.449219 191.292969 172.105469 191.234375 " fill-opacity="1" fill-rule="nonzero"/><path fill="#fbd23d" d="M 193.898438 196.3125 C 191.648438 196.585938 190.226562 196.746094 187.726562 197.210938 C 187.492188 197.257812 187.207031 196.566406 187.316406 196.359375 C 187.9375 195.183594 190.328125 195.144531 191.636719 194.941406 C 192.066406 194.878906 192.863281 194.808594 193.253906 195.058594 C 193.359375 195.128906 194.25 196.269531 193.898438 196.3125 " fill-opacity="1" fill-rule="nonzero"/><path fill="#fbd23d" d="M 203.976562 190.207031 C 201.714844 190.363281 200.289062 190.449219 197.765625 190.78125 C 197.527344 190.816406 197.28125 190.109375 197.402344 189.910156 C 198.082031 188.765625 200.46875 188.851562 201.789062 188.722656 C 202.222656 188.679688 203.027344 188.648438 203.398438 188.921875 C 203.5 188.996094 204.328125 190.183594 203.976562 190.207031 " fill-opacity="1" fill-rule="nonzero"/><path fill="#fbd23d" d="M 180.410156 195.1875 C 178.5 196.40625 177.285156 197.164062 175.230469 198.660156 C 175.039062 198.804688 174.484375 198.300781 174.492188 198.066406 C 174.542969 196.738281 176.683594 195.675781 177.777344 194.929688 C 178.136719 194.6875 178.828125 194.277344 179.285156 194.335938 C 179.410156 194.355469 180.707031 195 180.410156 195.1875 " fill-opacity="1" fill-rule="nonzero"/><path fill="#fbd23d" d="M 188.3125 188.621094 C 186.0625 188.324219 184.648438 188.125 182.113281 187.949219 C 181.871094 187.933594 181.773438 187.191406 181.929688 187.019531 C 182.824219 186.035156 185.148438 186.597656 186.464844 186.730469 C 186.898438 186.777344 187.691406 186.910156 188 187.25 C 188.085938 187.339844 188.660156 188.667969 188.3125 188.621094 " fill-opacity="1" fill-rule="nonzero"/><path fill="#f8a039" d="M 262.199219 247.953125 L 299.378906 247.953125 C 299.378906 247.953125 291.125 259.203125 287.636719 268.015625 C 285.300781 273.921875 284.148438 284.8125 262.199219 284.8125 C 240.246094 284.8125 239.097656 273.921875 236.757812 268.015625 C 233.269531 259.203125 225.019531 247.953125 225.019531 247.953125 L 262.199219 247.953125 " fill-opacity="1" fill-rule="nonzero"/><path fill="#f0d681" d="M 298.085938 247.953125 L 299.378906 247.953125 C 299.378906 247.953125 298.925781 248.574219 298.1875 249.625 C 298.171875 249.066406 298.136719 248.507812 298.085938 247.953125 " fill-opacity="1" fill-rule="nonzero"/><path fill="#f0d681" d="M 224.65625 246.09375 C 224.65625 253.449219 241.464844 259.410156 262.199219 259.410156 C 282.933594 259.410156 299.746094 253.449219 299.746094 246.09375 C 299.746094 238.738281 282.933594 232.777344 262.199219 232.777344 C 241.464844 232.777344 224.65625 238.738281 224.65625 246.09375 " fill-opacity="1" fill-rule="nonzero"/><path fill="#ef3644" d="M 229.632812 246.09375 C 229.632812 251.296875 244.214844 255.519531 262.199219 255.519531 C 280.179688 255.519531 294.761719 251.296875 294.761719 246.09375 C 294.761719 240.890625 280.179688 236.667969 262.199219 236.667969 C 244.214844 236.667969 229.632812 240.890625 229.632812 246.09375 " fill-opacity="1" fill-rule="nonzero"/><path fill="#80cc28" d="M 266.675781 245.375 C 266.675781 245.375 265.742188 242.683594 264.28125 241.527344 C 264.28125 241.527344 264.464844 238.109375 260.5625 236.285156 C 260.5625 236.285156 260.726562 237.347656 260.730469 238.183594 C 260.730469 238.183594 259.152344 236.066406 257.164062 236.035156 C 257.164062 236.035156 258.636719 237.484375 258.195312 238.390625 C 258.195312 238.390625 256.984375 238.082031 256.195312 238.1875 C 256.195312 238.1875 258.757812 240.234375 258.992188 241.320312 C 259.234375 242.414062 260.71875 244.035156 262.292969 242.988281 C 262.292969 242.988281 264.851562 243.246094 265.722656 245.792969 L 266.675781 245.375 " fill-opacity="1" fill-rule="nonzero"/><path fill="#80cc28" d="M 264.375 243.257812 C 264.375 243.257812 261.757812 242.117188 259.917969 242.398438 C 259.917969 242.398438 257.527344 239.949219 253.539062 241.570312 C 253.539062 241.570312 254.433594 242.167969 255.046875 242.730469 C 255.046875 242.730469 252.417969 242.453125 251.050781 243.886719 C 251.050781 243.886719 253.109375 243.792969 253.476562 244.734375 C 253.476562 244.734375 252.429688 245.410156 251.96875 246.0625 C 251.96875 246.0625 255.214844 245.570312 256.179688 246.136719 C 257.136719 246.703125 259.339844 246.714844 259.640625 244.851562 C 259.640625 244.851562 261.574219 243.148438 264.03125 244.238281 L 264.375 243.257812 " fill-opacity="1" fill-rule="nonzero"/><path fill="#80cc28" d="M 260.007812 243.964844 C 260.007812 243.964844 262.582031 245.195312 264.429688 244.976562 C 264.429688 244.976562 266.734375 247.515625 270.777344 246.03125 C 270.777344 246.03125 269.90625 245.398438 269.3125 244.816406 C 269.3125 244.816406 271.929688 245.1875 273.347656 243.800781 C 273.347656 243.800781 271.285156 243.820312 270.949219 242.871094 C 270.949219 242.871094 272.019531 242.234375 272.503906 241.597656 C 272.503906 241.597656 269.242188 241.976562 268.300781 241.375 C 267.359375 240.773438 265.160156 240.683594 264.792969 242.535156 C 264.792969 242.535156 262.808594 244.171875 260.382812 242.996094 L 260.007812 243.964844 " fill-opacity="1" fill-rule="nonzero"/><path stroke-linecap="butt" transform="matrix(0.75, 0, 0, 0.75, 114.226557, 23.142854)" fill="none" stroke-linejoin="miter" d="M 13.229175 7.007445 L 13.229175 42.200155 L 28.369801 42.200155 L 28.369801 51.002239 L 3.203133 51.002239 L 3.203133 7.007445 Z M 35.192718 47.616822 C 32.635426 44.819947 31.354176 41.398072 31.354176 37.34078 C 31.354176 33.288696 32.635426 29.861613 35.192718 27.054321 C 37.755218 24.241821 41.010427 22.835571 44.958344 22.835571 C 48.578136 22.835571 51.567719 23.976196 53.916678 26.247029 L 53.916678 23.642862 L 63.359386 23.642862 L 63.359386 51.002239 L 54.020844 51.002239 L 54.020844 47.903281 L 53.916678 47.903281 C 51.567719 50.497031 48.578136 51.793906 44.958344 51.793906 C 41.010427 51.793906 37.755218 50.403281 35.192718 47.616822 Z M 43.213552 32.705363 C 41.989593 33.913696 41.380218 35.460572 41.380218 37.356405 C 41.380218 39.236613 41.963552 40.773072 43.135427 41.96578 C 44.317719 43.15328 45.869802 43.74703 47.786469 43.74703 C 49.635427 43.74703 51.151052 43.142864 52.343761 41.939739 C 53.531261 40.720989 54.125011 39.189738 54.125011 37.34078 C 54.125011 35.460572 53.515636 33.913696 52.291677 32.705363 C 51.067719 31.502238 49.562511 30.898071 47.786469 30.898071 C 45.973969 30.898071 44.447927 31.502238 43.213552 32.705363 Z M 69.75522 51.002239 L 69.75522 23.642862 L 79.197929 23.642862 L 79.197929 26.523071 L 79.302096 26.523071 C 81.755221 24.064737 84.369805 22.835571 87.140638 22.835571 C 88.489596 22.835571 89.833347 23.017862 91.161472 23.372029 C 92.500013 23.726196 93.776055 24.278279 95.000014 25.023071 C 96.234389 25.773071 97.234389 26.830363 97.994805 28.200154 C 98.76043 29.575155 99.140639 31.163696 99.140639 32.981405 L 99.140639 51.002239 L 89.703138 51.002239 L 89.703138 35.533488 C 89.703138 34.106405 89.244805 32.866821 88.333346 31.80953 C 87.432305 30.741821 86.255221 30.205363 84.796888 30.205363 C 83.369804 30.205363 82.083346 30.757446 80.927096 31.861613 C 79.770846 32.960571 79.197929 34.18453 79.197929 35.533488 L 79.197929 51.002239 Z M 119.562515 30.569946 C 117.781265 30.569946 116.250015 31.231405 114.968765 32.549113 C 113.692723 33.861613 113.052098 35.439738 113.052098 37.288697 C 113.052098 39.174113 113.692723 40.773072 114.968765 42.095989 C 116.250015 43.413697 117.781265 44.075155 119.562515 44.075155 C 120.411474 44.075155 121.218765 43.96578 121.98439 43.74703 C 122.750015 43.52828 123.307307 43.319947 123.661474 43.111614 L 124.145849 42.783489 L 127.348974 49.345989 C 127.098974 49.528281 126.750016 49.752239 126.307307 50.023073 C 125.864599 50.283489 124.848974 50.642864 123.260432 51.106406 C 121.682307 51.564739 119.98439 51.793906 118.17189 51.793906 C 114.161473 51.793906 110.630223 50.382448 107.583348 47.564739 C 104.546889 44.731406 103.026056 41.345989 103.026056 37.408488 C 103.026056 33.424113 104.546889 29.99703 107.583348 27.132446 C 110.630223 24.267862 114.161473 22.835571 118.17189 22.835571 C 119.98439 22.835571 121.656265 23.054321 123.182307 23.486612 C 124.718766 23.913696 125.802099 24.340779 126.437516 24.762654 L 127.348974 25.403279 L 124.145849 31.861613 C 122.973974 31.002238 121.447932 30.569946 119.562515 30.569946 Z M 131.192724 51.002239 L 131.192724 5.132445 L 140.630225 5.132445 L 140.630225 26.523071 L 140.734392 26.523071 C 143.192725 24.064737 145.8021 22.835571 148.572934 22.835571 C 149.927101 22.835571 151.265642 23.017862 152.593767 23.372029 C 153.932309 23.726196 155.213559 24.278279 156.437518 25.023071 C 157.666684 25.773071 158.666684 26.830363 159.432309 28.200154 C 160.192726 29.575155 160.578143 31.163696 160.578143 32.981405 L 160.578143 51.002239 L 151.135434 51.002239 L 151.135434 35.533488 C 151.135434 34.106405 150.682309 32.866821 149.770851 31.80953 C 148.8646 30.741821 147.687517 30.205363 146.229184 30.205363 C 144.807309 30.205363 143.515642 30.757446 142.359392 31.861613 C 141.20835 32.960571 140.630225 34.18453 140.630225 35.533488 L 140.630225 51.002239 Z M 194.119812 38.632447 L 174.27606 38.632447 C 174.27606 40.549114 174.90106 41.970989 176.140644 42.90328 C 177.390644 43.819947 178.744811 44.283489 180.203144 44.283489 C 181.729186 44.283489 182.937519 44.075155 183.822936 43.668905 C 184.708353 43.262655 185.723978 42.450155 186.869811 41.236614 L 193.692728 44.658489 C 190.84377 49.413697 186.114603 51.793906 179.500019 51.793906 C 175.375019 51.793906 171.83856 50.382448 168.885435 47.564739 C 165.937518 44.731406 164.46356 41.330364 164.46356 37.356405 C 164.46356 33.37203 165.937518 29.955363 168.885435 27.106404 C 171.83856 24.262654 175.375019 22.835571 179.500019 22.835571 C 183.838561 22.835571 187.369811 24.090779 190.083353 26.601196 C 192.81252 29.106404 194.171895 32.689738 194.171895 37.34078 C 194.171895 37.986613 194.15627 38.413697 194.119812 38.632447 Z M 174.536477 33.398071 L 184.942728 33.398071 C 184.723978 31.970988 184.166686 30.877238 183.260436 30.116821 C 182.359394 29.351196 181.197936 28.970988 179.770852 28.970988 C 178.208352 28.970988 176.963561 29.382446 176.036477 30.205363 C 175.114602 31.023071 174.614602 32.085571 174.536477 33.398071 Z M 174.536477 33.398071 " stroke="#ffffff" stroke-width="3.999998" stroke-opacity="1" stroke-miterlimit="4"/><g fill="#000000" fill-opacity="1"><g transform="translate(114.226557, 61.392852)"><g><path d="M 9.921875 -33 L 9.921875 -6.59375 L 21.28125 -6.59375 L 21.28125 0 L 2.40625 0 L 2.40625 -33 Z M 9.921875 -33 "/></g></g></g><g fill="#000000" fill-opacity="1"><g transform="translate(136.824311, 61.392852)"><g><path d="M 3.796875 -2.546875 C 1.878906 -4.640625 0.921875 -7.203125 0.921875 -10.234375 C 0.921875 -13.273438 1.878906 -15.847656 3.796875 -17.953125 C 5.722656 -20.066406 8.164062 -21.125 11.125 -21.125 C 13.84375 -21.125 16.082031 -20.269531 17.84375 -18.5625 L 17.84375 -20.515625 L 24.921875 -20.515625 L 24.921875 0 L 17.921875 0 L 17.921875 -2.3125 L 17.84375 -2.3125 C 16.082031 -0.375 13.84375 0.59375 11.125 0.59375 C 8.164062 0.59375 5.722656 -0.453125 3.796875 -2.546875 Z M 9.8125 -13.71875 C 8.894531 -12.8125 8.4375 -11.648438 8.4375 -10.234375 C 8.4375 -8.828125 8.875 -7.675781 9.75 -6.78125 C 10.632812 -5.882812 11.796875 -5.4375 13.234375 -5.4375 C 14.617188 -5.4375 15.757812 -5.890625 16.65625 -6.796875 C 17.550781 -7.703125 18 -8.847656 18 -10.234375 C 18 -11.648438 17.535156 -12.8125 16.609375 -13.71875 C 15.691406 -14.625 14.566406 -15.078125 13.234375 -15.078125 C 11.878906 -15.078125 10.738281 -14.625 9.8125 -13.71875 Z M 9.8125 -13.71875 "/></g></g></g><g fill="#000000" fill-opacity="1"><g transform="translate(164.141597, 61.392852)"><g><path d="M 2.40625 0 L 2.40625 -20.515625 L 9.484375 -20.515625 L 9.484375 -18.359375 L 9.5625 -18.359375 C 11.394531 -20.203125 13.351562 -21.125 15.4375 -21.125 C 16.445312 -21.125 17.453125 -20.988281 18.453125 -20.71875 C 19.453125 -20.445312 20.410156 -20.03125 21.328125 -19.46875 C 22.253906 -18.914062 23.003906 -18.125 23.578125 -17.09375 C 24.148438 -16.070312 24.4375 -14.878906 24.4375 -13.515625 L 24.4375 0 L 17.359375 0 L 17.359375 -11.59375 C 17.359375 -12.664062 17.015625 -13.597656 16.328125 -14.390625 C 15.648438 -15.191406 14.769531 -15.59375 13.6875 -15.59375 C 12.613281 -15.59375 11.644531 -15.179688 10.78125 -14.359375 C 9.914062 -13.535156 9.484375 -12.613281 9.484375 -11.59375 L 9.484375 0 Z M 2.40625 0 "/></g></g></g><g fill="#000000" fill-opacity="1"><g transform="translate(190.578969, 61.392852)"><g><path d="M 13.3125 -15.3125 C 11.976562 -15.3125 10.832031 -14.816406 9.875 -13.828125 C 8.914062 -12.847656 8.4375 -11.664062 8.4375 -10.28125 C 8.4375 -8.863281 8.914062 -7.660156 9.875 -6.671875 C 10.832031 -5.691406 11.976562 -5.203125 13.3125 -5.203125 C 13.957031 -5.203125 14.566406 -5.28125 15.140625 -5.4375 C 15.710938 -5.601562 16.132812 -5.765625 16.40625 -5.921875 L 16.765625 -6.15625 L 19.15625 -1.234375 C 18.96875 -1.109375 18.707031 -0.941406 18.375 -0.734375 C 18.039062 -0.535156 17.28125 -0.265625 16.09375 0.078125 C 14.90625 0.421875 13.632812 0.59375 12.28125 0.59375 C 9.269531 0.59375 6.625 -0.460938 4.34375 -2.578125 C 2.0625 -4.703125 0.921875 -7.242188 0.921875 -10.203125 C 0.921875 -13.191406 2.0625 -15.757812 4.34375 -17.90625 C 6.625 -20.050781 9.269531 -21.125 12.28125 -21.125 C 13.632812 -21.125 14.882812 -20.960938 16.03125 -20.640625 C 17.1875 -20.316406 18.003906 -20 18.484375 -19.6875 L 19.15625 -19.203125 L 16.765625 -14.359375 C 15.878906 -14.992188 14.726562 -15.3125 13.3125 -15.3125 Z M 13.3125 -15.3125 "/></g></g></g><g fill="#000000" fill-opacity="1"><g transform="translate(210.217018, 61.392852)"><g><path d="M 2.40625 0 L 2.40625 -34.40625 L 9.484375 -34.40625 L 9.484375 -18.359375 L 9.5625 -18.359375 C 11.394531 -20.203125 13.351562 -21.125 15.4375 -21.125 C 16.445312 -21.125 17.453125 -20.988281 18.453125 -20.71875 C 19.453125 -20.445312 20.410156 -20.03125 21.328125 -19.46875 C 22.253906 -18.914062 23.003906 -18.125 23.578125 -17.09375 C 24.148438 -16.070312 24.4375 -14.878906 24.4375 -13.515625 L 24.4375 0 L 17.359375 0 L 17.359375 -11.59375 C 17.359375 -12.664062 17.015625 -13.597656 16.328125 -14.390625 C 15.648438 -15.191406 14.769531 -15.59375 13.6875 -15.59375 C 12.613281 -15.59375 11.644531 -15.179688 10.78125 -14.359375 C 9.914062 -13.535156 9.484375 -12.613281 9.484375 -11.59375 L 9.484375 0 Z M 2.40625 0 "/></g></g></g><g fill="#000000" fill-opacity="1"><g transform="translate(236.65439, 61.392852)"><g><path d="M 23.15625 -9.28125 L 8.28125 -9.28125 C 8.28125 -7.84375 8.742188 -6.773438 9.671875 -6.078125 C 10.609375 -5.390625 11.625 -5.046875 12.71875 -5.046875 C 13.863281 -5.046875 14.769531 -5.195312 15.4375 -5.5 C 16.101562 -5.800781 16.863281 -6.40625 17.71875 -7.3125 L 22.84375 -4.765625 C 20.707031 -1.191406 17.160156 0.59375 12.203125 0.59375 C 9.109375 0.59375 6.453125 -0.460938 4.234375 -2.578125 C 2.023438 -4.703125 0.921875 -7.253906 0.921875 -10.234375 C 0.921875 -13.222656 2.023438 -15.785156 4.234375 -17.921875 C 6.453125 -20.054688 9.109375 -21.125 12.203125 -21.125 C 15.453125 -21.125 18.097656 -20.179688 20.140625 -18.296875 C 22.179688 -16.421875 23.203125 -13.734375 23.203125 -10.234375 C 23.203125 -9.753906 23.1875 -9.4375 23.15625 -9.28125 Z M 8.484375 -13.203125 L 16.28125 -13.203125 C 16.125 -14.265625 15.703125 -15.082031 15.015625 -15.65625 C 14.335938 -16.226562 13.46875 -16.515625 12.40625 -16.515625 C 11.226562 -16.515625 10.289062 -16.207031 9.59375 -15.59375 C 8.90625 -14.988281 8.535156 -14.191406 8.484375 -13.203125 Z M 8.484375 -13.203125 "/></g></g></g></svg>