<svg xmlns="http://www.w3.org/2000/svg" xmlns:xlink="http://www.w3.org/1999/xlink" width="500" zoomAndPan="magnify" viewBox="0 0 375 374.999991" height="500" preserveAspectRatio="xMidYMid meet" version="1.0"><defs><g/><clipPath id="af45684e27"><path d="M 209 109 L 281.070312 109 L 281.070312 281.070312 L 209 281.070312 Z M 209 109 " clip-rule="nonzero"/></clipPath><clipPath id="b0b1eff95c"><path d="M 209 129 L 281.070312 129 L 281.070312 281.070312 L 209 281.070312 Z M 209 129 " clip-rule="nonzero"/></clipPath><clipPath id="b58bb876ce"><path d="M 209 161 L 281.070312 161 L 281.070312 281.070312 L 209 281.070312 Z M 209 161 " clip-rule="nonzero"/></clipPath><clipPath id="f12dd559be"><path d="M 209 164 L 281.070312 164 L 281.070312 210 L 209 210 Z M 209 164 " clip-rule="nonzero"/></clipPath><clipPath id="6dbcf2ed7b"><path d="M 241 164 L 281.070312 164 L 281.070312 210 L 241 210 Z M 241 164 " clip-rule="nonzero"/></clipPath><clipPath id="11ef6b44f2"><path d="M 232 93.570312 L 259 93.570312 L 259 110 L 232 110 Z M 232 93.570312 " clip-rule="nonzero"/></clipPath><clipPath id="e54786738b"><path d="M 93.570312 109 L 165 109 L 165 281.070312 L 93.570312 281.070312 Z M 93.570312 109 " clip-rule="nonzero"/></clipPath><clipPath id="4b344f4744"><path d="M 93.570312 129 L 165 129 L 165 281.070312 L 93.570312 281.070312 Z M 93.570312 129 " clip-rule="nonzero"/></clipPath><clipPath id="536fa85928"><path d="M 93.570312 161 L 165 161 L 165 281.070312 L 93.570312 281.070312 Z M 93.570312 161 " clip-rule="nonzero"/></clipPath><clipPath id="b9ed1b84f8"><path d="M 93.570312 164 L 165 164 L 165 210 L 93.570312 210 Z M 93.570312 164 " clip-rule="nonzero"/></clipPath><clipPath id="23d653e7cf"><path d="M 116 93.570312 L 143 93.570312 L 143 110 L 116 110 Z M 116 93.570312 " clip-rule="nonzero"/></clipPath><clipPath id="8032a2d56f"><path d="M 151 109 L 223 109 L 223 281.070312 L 151 281.070312 Z M 151 109 " clip-rule="nonzero"/></clipPath><clipPath id="676dbcabec"><path d="M 151 129 L 223 129 L 223 281.070312 L 151 281.070312 Z M 151 129 " clip-rule="nonzero"/></clipPath><clipPath id="8a9f0fea4a"><path d="M 151 161 L 223 161 L 223 281.070312 L 151 281.070312 Z M 151 161 " clip-rule="nonzero"/></clipPath><clipPath id="6bc19fb5e5"><path d="M 174 93.570312 L 201 93.570312 L 201 110 L 174 110 Z M 174 93.570312 " clip-rule="nonzero"/></clipPath><clipPath id="0c14f86b3e"><path d="M 190 184 L 256 184 L 256 281.070312 L 190 281.070312 Z M 190 184 " clip-rule="nonzero"/></clipPath><clipPath id="5b347d9993"><path d="M 190 200 L 256 200 L 256 281.070312 L 190 281.070312 Z M 190 200 " clip-rule="nonzero"/></clipPath><clipPath id="788fd15943"><path d="M 202 212 L 256 212 L 256 281.070312 L 202 281.070312 Z M 202 212 " clip-rule="nonzero"/></clipPath></defs><rect x="-37.5" width="450" fill="#ffffff" y="-37.499999" height="449.999989" fill-opacity="1"/><rect x="-37.5" width="450" fill="#38b6ff" y="-37.499999" height="449.999989" fill-opacity="1"/><g clip-path="url(#af45684e27)"><path fill="#edeeea" d="M 278.953125 222.769531 C 277.542969 227.003906 276.835938 231.410156 276.835938 235.8125 C 276.835938 240.21875 277.542969 244.621094 278.953125 248.859375 C 280.355469 253.0625 281.070312 257.46875 281.070312 261.90625 L 281.070312 269.644531 C 281.070312 272.800781 279.792969 275.65625 277.726562 277.726562 C 275.65625 279.792969 272.800781 281.070312 269.644531 281.070312 C 266.609375 281.070312 263.703125 279.867188 261.5625 277.726562 L 258.441406 274.605469 L 256.546875 276.5 C 255.082031 277.964844 253.359375 279.109375 251.484375 279.882812 C 249.609375 280.660156 247.582031 281.070312 245.511719 281.070312 C 241.375 281.070312 237.402344 279.425781 234.472656 276.5 L 232.578125 274.605469 L 229.460938 277.726562 C 228.390625 278.796875 227.128906 279.632812 225.753906 280.203125 C 224.382812 280.773438 222.898438 281.070312 221.378906 281.070312 C 215.066406 281.070312 209.949219 275.957031 209.949219 269.644531 L 209.949219 261.90625 C 209.949219 259.6875 210.128906 257.476562 210.484375 255.292969 C 210.839844 253.113281 211.363281 250.957031 212.066406 248.859375 C 213.480469 244.621094 214.1875 240.21875 214.1875 235.8125 C 214.1875 231.410156 213.480469 227.003906 212.066406 222.769531 C 210.691406 218.632812 209.976562 214.308594 209.957031 209.949219 C 209.949219 209.875 209.949219 209.796875 209.949219 209.71875 L 209.949219 164.691406 C 209.949219 156.414062 213.242188 148.472656 219.09375 142.617188 L 223.4375 138.277344 C 226.105469 135.605469 228.242188 132.507812 229.773438 129.132812 C 231.164062 126.074219 232.0625 122.804688 232.410156 119.433594 C 232.523438 118.363281 232.578125 117.285156 232.578125 116.199219 L 232.578125 109.734375 L 258.441406 109.734375 L 258.441406 116.199219 C 258.441406 117.285156 258.5 118.363281 258.613281 119.433594 C 258.960938 122.804688 259.855469 126.074219 261.25 129.132812 C 262.78125 132.507812 264.914062 135.605469 267.585938 138.277344 L 271.925781 142.617188 C 274.855469 145.546875 277.140625 148.992188 278.695312 152.746094 C 280.246094 156.496094 281.070312 160.554688 281.070312 164.691406 L 281.070312 209.71875 C 281.070312 209.796875 281.070312 209.875 281.066406 209.949219 C 281.058594 212.09375 280.882812 214.226562 280.539062 216.332031 C 280.183594 218.511719 279.65625 220.667969 278.953125 222.769531 " fill-opacity="1" fill-rule="nonzero"/></g><g clip-path="url(#b0b1eff95c)"><path fill="#71ba45" d="M 278.953125 222.769531 C 277.542969 227.003906 276.835938 231.410156 276.835938 235.8125 C 276.835938 240.21875 277.542969 244.621094 278.953125 248.859375 C 280.355469 253.0625 281.070312 257.46875 281.070312 261.90625 L 281.070312 269.644531 C 281.070312 272.800781 279.792969 275.65625 277.726562 277.726562 C 275.65625 279.792969 272.800781 281.070312 269.644531 281.070312 C 266.609375 281.070312 263.703125 279.867188 261.5625 277.726562 L 258.441406 274.605469 L 256.546875 276.5 C 255.082031 277.964844 253.359375 279.109375 251.484375 279.882812 C 249.609375 280.660156 247.582031 281.070312 245.511719 281.070312 C 241.375 281.070312 237.402344 279.425781 234.472656 276.5 L 232.578125 274.605469 L 229.460938 277.726562 C 228.390625 278.796875 227.128906 279.632812 225.753906 280.203125 C 224.382812 280.773438 222.898438 281.070312 221.378906 281.070312 C 215.066406 281.070312 209.949219 275.957031 209.949219 269.644531 L 209.949219 261.90625 C 209.949219 259.6875 210.128906 257.476562 210.484375 255.292969 C 210.839844 253.113281 211.363281 250.957031 212.066406 248.859375 C 213.480469 244.621094 214.1875 240.21875 214.1875 235.8125 C 214.1875 233.960938 214.0625 232.117188 213.808594 230.277344 C 213.464844 227.738281 212.886719 225.226562 212.066406 222.769531 C 210.691406 218.632812 209.976562 214.308594 209.957031 209.949219 L 209.949219 209.949219 L 209.949219 164.691406 C 209.949219 156.414062 213.242188 148.472656 219.09375 142.617188 L 223.4375 138.277344 C 226.105469 135.605469 228.242188 132.507812 229.773438 129.132812 L 261.25 129.132812 C 262.78125 132.507812 264.914062 135.605469 267.585938 138.277344 L 271.925781 142.617188 C 274.855469 145.546875 277.140625 148.992188 278.695312 152.746094 C 279.789062 155.394531 280.523438 158.195312 280.855469 161.066406 C 281 162.261719 281.070312 163.476562 281.070312 164.691406 L 281.070312 209.949219 L 281.066406 209.949219 C 281.058594 212.09375 280.882812 214.226562 280.539062 216.332031 C 280.183594 218.511719 279.65625 220.667969 278.953125 222.769531 " fill-opacity="1" fill-rule="nonzero"/></g><g clip-path="url(#b58bb876ce)"><path fill="#6db244" d="M 278.953125 222.769531 C 277.542969 227.003906 276.835938 231.410156 276.835938 235.8125 C 276.835938 240.21875 277.542969 244.621094 278.953125 248.859375 C 280.355469 253.0625 281.070312 257.46875 281.070312 261.90625 L 281.070312 269.644531 C 281.070312 272.800781 279.792969 275.65625 277.726562 277.726562 C 275.65625 279.792969 272.800781 281.070312 269.644531 281.070312 C 266.609375 281.070312 263.703125 279.867188 261.5625 277.726562 L 258.441406 274.605469 L 256.546875 276.5 C 255.082031 277.964844 253.359375 279.109375 251.484375 279.882812 C 249.609375 280.660156 247.582031 281.070312 245.511719 281.070312 C 241.375 281.070312 237.402344 279.425781 234.472656 276.5 L 232.578125 274.605469 L 229.460938 277.726562 C 228.390625 278.796875 227.128906 279.632812 225.753906 280.203125 C 224.382812 280.773438 222.898438 281.070312 221.378906 281.070312 C 215.066406 281.070312 209.949219 275.957031 209.949219 269.644531 L 209.949219 261.90625 C 209.949219 259.6875 210.128906 257.476562 210.484375 255.292969 C 210.839844 253.113281 211.363281 250.957031 212.066406 248.859375 C 213.480469 244.621094 214.1875 240.21875 214.1875 235.8125 C 214.1875 233.960938 214.0625 232.117188 213.808594 230.277344 C 239.371094 215.332031 262.621094 193.015625 280.855469 161.066406 C 281 162.261719 281.070312 163.476562 281.070312 164.691406 L 281.070312 209.949219 L 281.066406 209.949219 C 281.058594 212.09375 280.882812 214.226562 280.539062 216.332031 C 280.183594 218.511719 279.65625 220.667969 278.953125 222.769531 " fill-opacity="1" fill-rule="nonzero"/></g><g clip-path="url(#f12dd559be)"><path fill="#c7d631" d="M 281.070312 164.691406 L 281.070312 209.949219 L 209.949219 209.949219 L 209.949219 164.691406 L 281.070312 164.691406 " fill-opacity="1" fill-rule="nonzero"/></g><g clip-path="url(#6dbcf2ed7b)"><path fill="#bccc1d" d="M 281.070312 164.691406 L 281.070312 209.949219 L 241.765625 209.949219 C 255.398438 197.800781 267.902344 182.867188 278.746094 164.691406 L 281.070312 164.691406 " fill-opacity="1" fill-rule="nonzero"/></g><path fill="#d6e535" d="M 226.113281 180.855469 L 219.648438 180.855469 L 219.648438 174.390625 L 226.113281 174.390625 L 226.113281 180.855469 " fill-opacity="1" fill-rule="nonzero"/><path fill="#d6e535" d="M 226.113281 200.253906 L 219.648438 200.253906 L 219.648438 187.320312 L 226.113281 187.320312 L 226.113281 200.253906 " fill-opacity="1" fill-rule="nonzero"/><path fill="#e2e2de" d="M 258.613281 119.433594 L 232.410156 119.433594 C 232.523438 118.363281 232.578125 117.285156 232.578125 116.199219 L 232.578125 109.734375 L 258.441406 109.734375 L 258.441406 116.199219 C 258.441406 117.285156 258.5 118.363281 258.613281 119.433594 " fill-opacity="1" fill-rule="nonzero"/><g clip-path="url(#11ef6b44f2)"><path fill="#71ba45" d="M 255.210938 93.570312 L 235.8125 93.570312 C 234.027344 93.570312 232.578125 95.019531 232.578125 96.804688 L 232.578125 109.734375 L 258.441406 109.734375 L 258.441406 96.804688 C 258.441406 95.019531 256.996094 93.570312 255.210938 93.570312 " fill-opacity="1" fill-rule="nonzero"/></g><path fill="#edeeea" d="M 261.675781 112.96875 L 229.347656 112.96875 L 229.347656 106.503906 L 261.675781 106.503906 L 261.675781 112.96875 " fill-opacity="1" fill-rule="nonzero"/><g clip-path="url(#e54786738b)"><path fill="#edeeea" d="M 162.574219 222.769531 C 161.164062 227.003906 160.457031 231.410156 160.457031 235.8125 C 160.457031 240.21875 161.164062 244.621094 162.574219 248.859375 C 163.976562 253.0625 164.691406 257.46875 164.691406 261.90625 L 164.691406 269.644531 C 164.691406 272.800781 163.414062 275.65625 161.347656 277.726562 C 159.277344 279.792969 156.421875 281.070312 153.265625 281.070312 C 150.230469 281.070312 147.324219 279.867188 145.183594 277.726562 L 142.0625 274.605469 L 140.167969 276.5 C 138.703125 277.964844 136.980469 279.109375 135.105469 279.882812 C 133.230469 280.660156 131.203125 281.070312 129.132812 281.070312 C 124.996094 281.070312 121.019531 279.425781 118.097656 276.5 L 116.199219 274.605469 L 113.082031 277.726562 C 112.011719 278.796875 110.75 279.632812 109.375 280.203125 C 108.003906 280.773438 106.519531 281.070312 105 281.070312 C 98.6875 281.070312 93.570312 275.957031 93.570312 269.644531 L 93.570312 261.90625 C 93.570312 259.6875 93.75 257.476562 94.105469 255.292969 C 94.460938 253.113281 94.984375 250.957031 95.6875 248.859375 C 97.097656 244.621094 97.804688 240.21875 97.804688 235.8125 C 97.804688 231.410156 97.097656 227.003906 95.6875 222.769531 C 94.3125 218.632812 93.59375 214.308594 93.574219 209.949219 C 93.570312 209.875 93.570312 209.796875 93.570312 209.71875 L 93.570312 164.691406 C 93.570312 156.414062 96.859375 148.472656 102.714844 142.617188 L 107.054688 138.277344 C 109.726562 135.605469 111.863281 132.507812 113.394531 129.132812 C 114.785156 126.074219 115.683594 122.804688 116.03125 119.433594 C 116.144531 118.363281 116.199219 117.285156 116.199219 116.199219 L 116.199219 109.734375 L 142.0625 109.734375 L 142.0625 116.199219 C 142.0625 117.285156 142.121094 118.363281 142.234375 119.433594 C 142.582031 122.804688 143.476562 126.074219 144.871094 129.132812 C 146.402344 132.507812 148.535156 135.605469 151.207031 138.277344 L 155.546875 142.617188 C 158.476562 145.546875 160.761719 148.992188 162.316406 152.746094 C 163.867188 156.496094 164.691406 160.554688 164.691406 164.691406 L 164.691406 209.71875 C 164.691406 209.796875 164.691406 209.875 164.6875 209.949219 C 164.679688 212.09375 164.503906 214.226562 164.160156 216.332031 C 163.804688 218.511719 163.277344 220.667969 162.574219 222.769531 " fill-opacity="1" fill-rule="nonzero"/></g><g clip-path="url(#4b344f4744)"><path fill="#f25b19" d="M 162.574219 222.769531 C 161.164062 227.003906 160.457031 231.410156 160.457031 235.8125 C 160.457031 240.21875 161.164062 244.621094 162.574219 248.859375 C 163.976562 253.0625 164.691406 257.46875 164.691406 261.90625 L 164.691406 269.644531 C 164.691406 272.800781 163.414062 275.65625 161.347656 277.726562 C 159.277344 279.792969 156.421875 281.070312 153.265625 281.070312 C 150.230469 281.070312 147.324219 279.867188 145.183594 277.726562 L 142.0625 274.605469 L 140.167969 276.5 C 138.703125 277.964844 136.980469 279.109375 135.105469 279.882812 C 133.230469 280.660156 131.203125 281.070312 129.132812 281.070312 C 124.996094 281.070312 121.019531 279.425781 118.097656 276.5 L 116.199219 274.605469 L 113.082031 277.726562 C 112.011719 278.796875 110.75 279.632812 109.375 280.203125 C 108.003906 280.773438 106.519531 281.070312 105 281.070312 C 98.6875 281.070312 93.570312 275.957031 93.570312 269.644531 L 93.570312 261.90625 C 93.570312 259.6875 93.75 257.476562 94.105469 255.292969 C 94.460938 253.113281 94.984375 250.957031 95.6875 248.859375 C 97.097656 244.621094 97.804688 240.21875 97.804688 235.8125 C 97.804688 233.960938 97.679688 232.117188 97.429688 230.277344 C 97.085938 227.738281 96.503906 225.226562 95.6875 222.769531 C 94.3125 218.632812 93.59375 214.308594 93.574219 209.949219 L 93.570312 209.949219 L 93.570312 164.691406 C 93.570312 156.414062 96.859375 148.472656 102.714844 142.617188 L 107.054688 138.277344 C 109.726562 135.605469 111.863281 132.507812 113.394531 129.132812 L 144.871094 129.132812 C 146.402344 132.507812 148.535156 135.605469 151.207031 138.277344 L 155.546875 142.617188 C 158.476562 145.546875 160.761719 148.992188 162.316406 152.746094 C 163.410156 155.394531 164.144531 158.195312 164.476562 161.066406 C 164.621094 162.261719 164.691406 163.476562 164.691406 164.691406 L 164.691406 209.949219 L 164.6875 209.949219 C 164.679688 212.09375 164.503906 214.226562 164.160156 216.332031 C 163.804688 218.511719 163.277344 220.667969 162.574219 222.769531 " fill-opacity="1" fill-rule="nonzero"/></g><g clip-path="url(#536fa85928)"><path fill="#f1511b" d="M 162.574219 222.769531 C 161.164062 227.003906 160.457031 231.410156 160.457031 235.8125 C 160.457031 240.21875 161.164062 244.621094 162.574219 248.859375 C 163.976562 253.0625 164.691406 257.46875 164.691406 261.90625 L 164.691406 269.644531 C 164.691406 272.800781 163.414062 275.65625 161.347656 277.726562 C 159.277344 279.792969 156.421875 281.070312 153.265625 281.070312 C 150.230469 281.070312 147.324219 279.867188 145.183594 277.726562 L 142.0625 274.605469 L 140.167969 276.5 C 138.703125 277.964844 136.980469 279.109375 135.105469 279.882812 C 133.230469 280.660156 131.203125 281.070312 129.132812 281.070312 C 124.996094 281.070312 121.019531 279.425781 118.097656 276.5 L 116.199219 274.605469 L 113.082031 277.726562 C 112.011719 278.796875 110.75 279.632812 109.375 280.203125 C 108.003906 280.773438 106.519531 281.070312 105 281.070312 C 98.6875 281.070312 93.570312 275.957031 93.570312 269.644531 L 93.570312 261.90625 C 93.570312 259.6875 93.75 257.476562 94.105469 255.292969 C 94.460938 253.113281 94.984375 250.957031 95.6875 248.859375 C 97.097656 244.621094 97.804688 240.21875 97.804688 235.8125 C 97.804688 233.960938 97.679688 232.117188 97.429688 230.277344 C 122.988281 215.332031 146.242188 193.015625 164.476562 161.066406 C 164.621094 162.261719 164.691406 163.476562 164.691406 164.691406 L 164.691406 209.949219 L 164.6875 209.949219 C 164.679688 212.09375 164.503906 214.226562 164.160156 216.332031 C 163.804688 218.511719 163.277344 220.667969 162.574219 222.769531 " fill-opacity="1" fill-rule="nonzero"/></g><g clip-path="url(#b9ed1b84f8)"><path fill="#f57515" d="M 164.691406 164.691406 L 164.691406 209.949219 L 93.570312 209.949219 L 93.570312 164.691406 L 164.691406 164.691406 " fill-opacity="1" fill-rule="nonzero"/></g><path fill="#f46b17" d="M 164.691406 164.691406 L 164.691406 209.949219 L 125.386719 209.949219 C 139.019531 197.800781 151.523438 182.867188 162.367188 164.691406 L 164.691406 164.691406 " fill-opacity="1" fill-rule="nonzero"/><path fill="#f68616" d="M 109.734375 180.855469 L 103.269531 180.855469 L 103.269531 174.390625 L 109.734375 174.390625 L 109.734375 180.855469 " fill-opacity="1" fill-rule="nonzero"/><path fill="#f68616" d="M 109.734375 200.253906 L 103.269531 200.253906 L 103.269531 187.320312 L 109.734375 187.320312 L 109.734375 200.253906 " fill-opacity="1" fill-rule="nonzero"/><path fill="#e2e2de" d="M 142.234375 119.433594 L 116.03125 119.433594 C 116.144531 118.363281 116.199219 117.285156 116.199219 116.199219 L 116.199219 109.734375 L 142.0625 109.734375 L 142.0625 116.199219 C 142.0625 117.285156 142.121094 118.363281 142.234375 119.433594 " fill-opacity="1" fill-rule="nonzero"/><g clip-path="url(#23d653e7cf)"><path fill="#f25b19" d="M 138.828125 93.570312 L 119.433594 93.570312 C 117.648438 93.570312 116.199219 95.019531 116.199219 96.804688 L 116.199219 109.734375 L 142.0625 109.734375 L 142.0625 96.804688 C 142.0625 95.019531 140.617188 93.570312 138.828125 93.570312 " fill-opacity="1" fill-rule="nonzero"/></g><path fill="#edeeea" d="M 145.296875 112.96875 L 112.96875 112.96875 L 112.96875 106.503906 L 145.296875 106.503906 L 145.296875 112.96875 " fill-opacity="1" fill-rule="nonzero"/><g clip-path="url(#8032a2d56f)"><path fill="#edeeea" d="M 220.765625 222.769531 C 219.355469 227.003906 218.648438 231.410156 218.648438 235.8125 C 218.648438 240.21875 219.355469 244.621094 220.765625 248.859375 C 222.167969 253.0625 222.882812 257.46875 222.882812 261.90625 L 222.882812 269.644531 C 222.882812 272.800781 221.605469 275.65625 219.535156 277.726562 C 217.46875 279.792969 214.609375 281.070312 211.453125 281.070312 C 208.417969 281.070312 205.511719 279.867188 203.371094 277.726562 L 200.253906 274.605469 L 198.359375 276.5 C 196.894531 277.964844 195.167969 279.109375 193.292969 279.882812 C 191.417969 280.660156 189.390625 281.070312 187.320312 281.070312 C 183.183594 281.070312 179.210938 279.425781 176.285156 276.5 L 174.390625 274.605469 L 171.269531 277.726562 C 170.199219 278.796875 168.941406 279.632812 167.566406 280.203125 C 166.191406 280.773438 164.707031 281.070312 163.1875 281.070312 C 156.878906 281.070312 151.761719 275.957031 151.761719 269.644531 L 151.761719 261.90625 C 151.761719 259.6875 151.9375 257.476562 152.292969 255.292969 C 152.648438 253.113281 153.175781 250.957031 153.878906 248.859375 C 155.289062 244.621094 155.996094 240.21875 155.996094 235.8125 C 155.996094 231.410156 155.289062 227.003906 153.878906 222.769531 C 152.5 218.632812 151.785156 214.308594 151.765625 209.949219 C 151.761719 209.875 151.761719 209.796875 151.761719 209.71875 L 151.761719 164.691406 C 151.761719 156.414062 155.050781 148.472656 160.90625 142.617188 L 165.246094 138.277344 C 167.917969 135.605469 170.050781 132.507812 171.582031 129.132812 C 172.976562 126.074219 173.871094 122.804688 174.21875 119.433594 C 174.332031 118.363281 174.390625 117.285156 174.390625 116.199219 L 174.390625 109.734375 L 200.253906 109.734375 L 200.253906 116.199219 C 200.253906 117.285156 200.308594 118.363281 200.421875 119.433594 C 200.769531 122.804688 201.667969 126.074219 203.0625 129.132812 C 204.589844 132.507812 206.726562 135.605469 209.398438 138.277344 L 213.738281 142.617188 C 216.667969 145.546875 218.949219 148.992188 220.507812 152.746094 C 222.058594 156.496094 222.882812 160.554688 222.882812 164.691406 L 222.882812 209.71875 C 222.882812 209.796875 222.882812 209.875 222.878906 209.949219 C 222.871094 212.09375 222.691406 214.226562 222.347656 216.332031 C 221.992188 218.511719 221.46875 220.667969 220.765625 222.769531 " fill-opacity="1" fill-rule="nonzero"/></g><g clip-path="url(#676dbcabec)"><path fill="#643022" d="M 220.765625 222.769531 C 219.355469 227.003906 218.648438 231.410156 218.648438 235.8125 C 218.648438 240.21875 219.355469 244.621094 220.765625 248.859375 C 222.167969 253.0625 222.882812 257.46875 222.882812 261.90625 L 222.882812 269.644531 C 222.882812 272.800781 221.605469 275.65625 219.535156 277.726562 C 217.46875 279.792969 214.609375 281.070312 211.453125 281.070312 C 208.417969 281.070312 205.511719 279.867188 203.371094 277.726562 L 200.253906 274.605469 L 198.359375 276.5 C 196.894531 277.964844 195.167969 279.109375 193.292969 279.882812 C 191.417969 280.660156 189.390625 281.070312 187.320312 281.070312 C 183.183594 281.070312 179.210938 279.425781 176.285156 276.5 L 174.390625 274.605469 L 171.269531 277.726562 C 170.199219 278.796875 168.941406 279.632812 167.566406 280.203125 C 166.191406 280.773438 164.707031 281.070312 163.1875 281.070312 C 156.878906 281.070312 151.761719 275.957031 151.761719 269.644531 L 151.761719 261.90625 C 151.761719 259.6875 151.9375 257.476562 152.292969 255.292969 C 152.648438 253.113281 153.175781 250.957031 153.878906 248.859375 C 155.289062 244.621094 155.996094 240.21875 155.996094 235.8125 C 155.996094 233.960938 155.871094 232.117188 155.621094 230.277344 C 155.277344 227.738281 154.695312 225.226562 153.878906 222.769531 C 152.5 218.632812 151.785156 214.308594 151.765625 209.949219 L 151.761719 209.949219 L 151.761719 164.691406 C 151.761719 156.414062 155.050781 148.472656 160.90625 142.617188 L 165.246094 138.277344 C 167.917969 135.605469 170.050781 132.507812 171.582031 129.132812 L 203.0625 129.132812 C 204.589844 132.507812 206.726562 135.605469 209.398438 138.277344 L 213.738281 142.617188 C 216.667969 145.546875 218.949219 148.992188 220.507812 152.746094 C 221.601562 155.394531 222.332031 158.195312 222.667969 161.066406 C 222.808594 162.261719 222.882812 163.476562 222.882812 164.691406 L 222.882812 209.949219 L 222.878906 209.949219 C 222.871094 212.09375 222.691406 214.226562 222.347656 216.332031 C 221.992188 218.511719 221.46875 220.667969 220.765625 222.769531 " fill-opacity="1" fill-rule="nonzero"/></g><g clip-path="url(#8a9f0fea4a)"><path fill="#56271b" d="M 220.765625 222.769531 C 219.355469 227.003906 218.648438 231.410156 218.648438 235.8125 C 218.648438 240.21875 219.355469 244.621094 220.765625 248.859375 C 222.167969 253.0625 222.882812 257.46875 222.882812 261.90625 L 222.882812 269.644531 C 222.882812 272.800781 221.605469 275.65625 219.535156 277.726562 C 217.46875 279.792969 214.609375 281.070312 211.453125 281.070312 C 208.417969 281.070312 205.511719 279.867188 203.371094 277.726562 L 200.253906 274.605469 L 198.359375 276.5 C 196.894531 277.964844 195.167969 279.109375 193.292969 279.882812 C 191.417969 280.660156 189.390625 281.070312 187.320312 281.070312 C 183.183594 281.070312 179.210938 279.425781 176.285156 276.5 L 174.390625 274.605469 L 171.269531 277.726562 C 170.199219 278.796875 168.941406 279.632812 167.566406 280.203125 C 166.191406 280.773438 164.707031 281.070312 163.1875 281.070312 C 156.878906 281.070312 151.761719 275.957031 151.761719 269.644531 L 151.761719 261.90625 C 151.761719 259.6875 151.9375 257.476562 152.292969 255.292969 C 152.648438 253.113281 153.175781 250.957031 153.878906 248.859375 C 155.289062 244.621094 155.996094 240.21875 155.996094 235.8125 C 155.996094 233.960938 155.871094 232.117188 155.621094 230.277344 C 181.179688 215.332031 204.429688 193.015625 222.667969 161.066406 C 222.808594 162.261719 222.882812 163.476562 222.882812 164.691406 L 222.882812 209.949219 L 222.878906 209.949219 C 222.871094 212.09375 222.691406 214.226562 222.347656 216.332031 C 221.992188 218.511719 221.46875 220.667969 220.765625 222.769531 " fill-opacity="1" fill-rule="nonzero"/></g><path fill="#f03b3d" d="M 222.882812 164.691406 L 222.882812 209.949219 L 151.761719 209.949219 L 151.761719 164.691406 L 222.882812 164.691406 " fill-opacity="1" fill-rule="nonzero"/><path fill="#e73738" d="M 222.882812 164.691406 L 222.882812 209.949219 L 183.574219 209.949219 C 197.210938 197.800781 209.710938 182.867188 220.558594 164.691406 L 222.882812 164.691406 " fill-opacity="1" fill-rule="nonzero"/><path fill="#f14c52" d="M 167.925781 180.855469 L 161.460938 180.855469 L 161.460938 174.390625 L 167.925781 174.390625 L 167.925781 180.855469 " fill-opacity="1" fill-rule="nonzero"/><path fill="#f14c52" d="M 167.925781 200.253906 L 161.460938 200.253906 L 161.460938 187.320312 L 167.925781 187.320312 L 167.925781 200.253906 " fill-opacity="1" fill-rule="nonzero"/><path fill="#e2e2de" d="M 200.421875 119.433594 L 174.21875 119.433594 C 174.332031 118.363281 174.390625 117.285156 174.390625 116.199219 L 174.390625 109.734375 L 200.253906 109.734375 L 200.253906 116.199219 C 200.253906 117.285156 200.308594 118.363281 200.421875 119.433594 " fill-opacity="1" fill-rule="nonzero"/><g clip-path="url(#6bc19fb5e5)"><path fill="#f03b3d" d="M 197.019531 93.570312 L 177.625 93.570312 C 175.835938 93.570312 174.390625 95.019531 174.390625 96.804688 L 174.390625 109.734375 L 200.253906 109.734375 L 200.253906 96.804688 C 200.253906 95.019531 198.804688 93.570312 197.019531 93.570312 " fill-opacity="1" fill-rule="nonzero"/></g><path fill="#edeeea" d="M 203.484375 112.96875 L 171.15625 112.96875 L 171.15625 106.503906 L 203.484375 106.503906 L 203.484375 112.96875 " fill-opacity="1" fill-rule="nonzero"/><g clip-path="url(#0c14f86b3e)"><path fill="#edeeea" d="M 255.210938 184.089844 L 255.210938 207.796875 C 255.210938 215.59375 253.394531 223.277344 249.90625 230.25 C 248.457031 233.15625 247.292969 236.183594 246.433594 239.300781 C 245.566406 242.414062 245.007812 245.617188 244.753906 248.851562 L 242.277344 281.070312 L 203.484375 281.070312 L 201.007812 248.851562 C 200.507812 242.375 198.757812 236.058594 195.855469 230.25 C 194.109375 226.761719 192.785156 223.097656 191.894531 219.332031 C 191.007812 215.5625 190.554688 211.695312 190.554688 207.796875 L 190.554688 184.089844 L 255.210938 184.089844 " fill-opacity="1" fill-rule="nonzero"/></g><g clip-path="url(#5b347d9993)"><path fill="#f57515" d="M 255.210938 200.253906 L 255.210938 207.796875 C 255.210938 209.25 255.144531 210.695312 255.023438 212.132812 C 254.476562 218.429688 252.742188 224.574219 249.90625 230.25 C 248.457031 233.15625 247.292969 236.183594 246.433594 239.300781 C 245.566406 242.414062 245.007812 245.617188 244.753906 248.851562 L 242.277344 281.070312 L 203.484375 281.070312 L 202.214844 264.519531 L 201.007812 248.851562 C 200.507812 242.375 198.757812 236.058594 195.855469 230.25 C 194.109375 226.761719 192.785156 223.097656 191.894531 219.332031 C 191.007812 215.5625 190.554688 211.695312 190.554688 207.796875 L 190.554688 200.253906 L 255.210938 200.253906 " fill-opacity="1" fill-rule="nonzero"/></g><g clip-path="url(#788fd15943)"><path fill="#f46b17" d="M 255.023438 212.132812 C 254.476562 218.429688 252.742188 224.574219 249.90625 230.25 C 248.457031 233.15625 247.292969 236.183594 246.433594 239.300781 C 245.566406 242.414062 245.007812 245.617188 244.753906 248.851562 L 242.277344 281.070312 L 203.484375 281.070312 L 202.214844 264.519531 C 221.324219 252.164062 239.292969 235.066406 255.023438 212.132812 " fill-opacity="1" fill-rule="nonzero"/></g><path fill="#f68616" d="M 219.648438 261.675781 L 213.183594 261.675781 L 213.183594 255.210938 L 219.648438 255.210938 L 219.648438 261.675781 " fill-opacity="1" fill-rule="nonzero"/><path fill="#f68616" d="M 229.347656 248.742188 L 222.882812 248.742188 L 222.882812 242.277344 L 229.347656 242.277344 L 229.347656 248.742188 " fill-opacity="1" fill-rule="nonzero"/><path fill="#f68616" d="M 222.882812 226.113281 L 216.417969 226.113281 L 216.417969 219.648438 L 222.882812 219.648438 L 222.882812 226.113281 " fill-opacity="1" fill-rule="nonzero"/><path stroke-linecap="butt" transform="matrix(0.75, 0, 0, 0.75, 55.113282, 23.142854)" fill="none" stroke-linejoin="miter" d="M 3.203125 7.007445 L 18.932292 7.007445 C 23.166668 7.007445 26.619793 8.132445 29.281251 10.392862 C 31.947918 12.64807 33.281252 15.872029 33.281252 20.064737 C 33.281252 23.304321 32.468752 26.012654 30.843751 28.200154 C 29.229168 30.387655 27.03646 31.924113 24.270834 32.80953 L 39.41146 51.002239 L 26.666668 51.002239 L 13.229167 33.616821 L 13.229167 51.002239 L 3.203125 51.002239 Z M 13.229167 26.523071 L 14.401042 26.523071 C 15.317709 26.523071 16.098959 26.507446 16.744792 26.470988 C 17.385417 26.434529 18.114584 26.314738 18.932292 26.106404 C 19.744792 25.887654 20.401042 25.585571 20.895834 25.194946 C 21.401042 24.793904 21.828126 24.220987 22.187501 23.476196 C 22.541668 22.731404 22.718751 21.825154 22.718751 20.767862 C 22.718751 19.700154 22.541668 18.793904 22.187501 18.043904 C 21.828126 17.299112 21.401042 16.731404 20.895834 16.340779 C 20.401042 15.950154 19.744792 15.64807 18.932292 15.42932 C 18.114584 15.21057 17.385417 15.08557 16.744792 15.05432 C 16.098959 15.017862 15.317709 15.002237 14.401042 15.002237 L 13.229167 15.002237 Z M 69.067712 38.632447 L 49.223961 38.632447 C 49.223961 40.549114 49.843753 41.970989 51.083336 42.90328 C 52.333336 43.819947 53.687503 44.283489 55.145836 44.283489 C 56.677086 44.283489 57.880212 44.075155 58.765628 43.668905 C 59.651045 43.262655 60.66667 42.450155 61.812503 41.236614 L 68.635421 44.658489 C 65.79167 49.413697 61.057295 51.793906 54.442711 51.793906 C 50.322919 51.793906 46.786461 50.382448 43.833336 47.564739 C 40.88021 44.731406 39.406252 41.330364 39.406252 37.356405 C 39.406252 33.37203 40.88021 29.955363 43.833336 27.106404 C 46.786461 24.262654 50.322919 22.835571 54.442711 22.835571 C 58.786462 22.835571 62.312504 24.090779 65.031254 26.601196 C 67.755212 29.106404 69.119796 32.689738 69.119796 37.34078 C 69.119796 37.986613 69.098962 38.413697 69.067712 38.632447 Z M 49.484378 33.398071 L 59.88542 33.398071 C 59.671878 31.970988 59.109378 30.877238 58.208337 30.116821 C 57.307295 29.351196 56.140628 28.970988 54.718753 28.970988 C 53.156253 28.970988 51.911461 29.382446 50.979169 30.205363 C 50.062503 31.023071 49.562503 32.085571 49.484378 33.398071 Z M 75.145838 23.642862 L 75.145838 17.825154 C 75.177088 13.736612 76.135421 10.470987 78.020838 8.02307 C 79.906255 5.564736 82.51563 4.33557 85.85938 4.33557 C 87.281255 4.33557 88.64063 4.538695 89.932297 4.950153 C 91.23438 5.356403 92.17188 5.77307 92.734381 6.200153 L 93.645839 6.783486 L 90.338547 13.450153 C 89.489589 12.955362 88.54688 12.71057 87.51563 12.71057 C 86.343755 12.71057 85.562505 13.106403 85.17188 13.908487 C 84.781255 14.705362 84.583338 16.101195 84.583338 18.095987 L 84.583338 23.642862 L 90.869797 23.642862 L 90.869797 30.845988 L 84.583338 30.845988 L 84.583338 51.002239 L 75.145838 51.002239 L 75.145838 30.845988 L 71.197921 30.845988 L 71.197921 23.642862 Z M 93.541672 51.002239 L 93.541672 23.642862 L 102.979173 23.642862 L 102.979173 27.590779 L 103.08334 27.590779 C 103.156256 27.444946 103.265631 27.262654 103.421881 27.054321 C 103.588548 26.840779 103.937506 26.465779 104.463548 25.934529 C 105.000006 25.398071 105.572923 24.918904 106.171881 24.491821 C 106.776048 24.064737 107.557298 23.684529 108.515632 23.345987 C 109.479173 23.007446 110.45834 22.835571 111.45834 22.835571 C 112.48959 22.835571 113.500007 22.981404 114.48959 23.267862 C 115.48959 23.554321 116.218757 23.840779 116.67709 24.127237 L 117.432299 24.543904 L 113.48959 32.549113 C 112.307298 31.554321 110.671882 31.054321 108.578132 31.054321 C 107.442715 31.054321 106.45834 31.304321 105.635423 31.80953 C 104.817715 32.304321 104.244798 32.908488 103.906256 33.616821 C 103.572923 34.330363 103.338548 34.93453 103.187506 35.429322 C 103.05209 35.924113 102.979173 36.314738 102.979173 36.601197 L 102.979173 51.002239 Z M 120.994799 8.387653 C 122.098966 7.283486 123.411466 6.731403 124.942716 6.731403 C 126.479174 6.731403 127.796883 7.283486 128.90105 8.387653 C 130.000008 9.486612 130.552091 10.809528 130.552091 12.345987 C 130.552091 13.872028 130.000008 15.184529 128.90105 16.288695 C 127.796883 17.382445 126.479174 17.92932 124.942716 17.92932 C 123.411466 17.92932 122.098966 17.382445 120.994799 16.288695 C 119.895841 15.184529 119.343757 13.872028 119.343757 12.345987 C 119.343757 10.809528 119.895841 9.486612 120.994799 8.387653 Z M 120.098966 23.642862 L 120.098966 51.002239 L 129.536466 51.002239 L 129.536466 23.642862 Z M 134.979175 57.715781 L 142.697925 53.929323 C 144.125009 56.28349 146.598967 57.455365 150.119801 57.455365 C 151.755218 57.455365 153.270843 56.934531 154.677093 55.882448 C 156.083343 54.830365 156.786468 53.220989 156.786468 51.054323 L 156.786468 49.023072 C 155.114593 50.872031 152.125009 51.793906 147.828134 51.793906 C 143.880217 51.793906 140.625009 50.403281 138.062508 47.616822 C 135.505217 44.819947 134.223967 41.398072 134.223967 37.34078 C 134.223967 33.288696 135.505217 29.861613 138.062508 27.054321 C 140.625009 24.241821 143.880217 22.835571 147.828134 22.835571 C 151.343759 22.835571 154.28126 23.924112 156.630218 26.090779 L 156.786468 26.090779 L 156.786468 23.642862 L 166.229177 23.642862 L 166.229177 51.741823 C 166.229177 56.184531 164.75001 59.616823 161.802093 62.028282 C 158.848968 64.450157 154.958343 65.65849 150.119801 65.65849 C 142.302092 65.65849 137.255217 63.012657 134.979175 57.715781 Z M 146.083342 32.705363 C 144.859384 33.913696 144.250009 35.460572 144.250009 37.356405 C 144.250009 39.236613 144.833342 40.773072 146.005217 41.96578 C 147.187509 43.15328 148.734384 43.74703 150.656259 43.74703 C 152.505218 43.74703 154.020843 43.142864 155.213551 41.939739 C 156.401051 40.720989 156.994801 39.189738 156.994801 37.34078 C 156.994801 35.460572 156.385426 33.913696 155.161468 32.705363 C 153.93751 31.502238 152.432301 30.898071 150.656259 30.898071 C 148.838551 30.898071 147.317717 31.502238 146.083342 32.705363 Z M 200.307304 38.632447 L 180.463553 38.632447 C 180.463553 40.549114 181.083345 41.970989 182.328136 42.90328 C 183.578136 43.819947 184.932303 44.283489 186.390637 44.283489 C 187.916678 44.283489 189.125012 44.075155 190.010429 43.668905 C 190.890637 43.262655 191.906262 42.450155 193.052095 41.236614 L 199.875013 44.658489 C 197.031262 49.413697 192.296887 51.793906 185.687512 51.793906 C 181.562511 51.793906 178.026053 50.382448 175.072928 47.564739 C 172.125011 44.731406 170.645844 41.330364 170.645844 37.356405 C 170.645844 33.37203 172.125011 29.955363 175.072928 27.106404 C 178.026053 24.262654 181.562511 22.835571 185.687512 22.835571 C 190.026054 22.835571 193.552095 24.090779 196.270846 26.601196 C 198.994804 29.106404 200.359388 32.689738 200.359388 37.34078 C 200.359388 37.986613 200.343763 38.413697 200.307304 38.632447 Z M 180.72397 33.398071 L 191.125012 33.398071 C 190.91147 31.970988 190.34897 30.877238 189.447929 30.116821 C 188.546887 29.351196 187.38022 28.970988 185.958345 28.970988 C 184.395845 28.970988 183.151053 29.382446 182.22397 30.205363 C 181.302095 31.023071 180.802095 32.085571 180.72397 33.398071 Z M 204.781263 51.002239 L 204.781263 23.642862 L 214.223972 23.642862 L 214.223972 27.590779 L 214.328138 27.590779 C 214.395847 27.444946 214.51043 27.262654 214.66668 27.054321 C 214.828139 26.840779 215.177097 26.465779 215.708347 25.934529 C 216.244805 25.398071 216.812514 24.918904 217.411472 24.491821 C 218.020847 24.064737 218.802097 23.684529 219.755222 23.345987 C 220.718764 23.007446 221.697931 22.835571 222.697931 22.835571 C 223.729181 22.835571 224.744806 22.981404 225.734389 23.267862 C 226.729181 23.554321 227.458348 23.840779 227.921889 24.127237 L 228.677098 24.543904 L 224.729181 32.549113 C 223.546889 31.554321 221.911472 31.054321 219.822931 31.054321 C 218.682305 31.054321 217.703139 31.304321 216.880222 31.80953 C 216.062514 32.304321 215.484389 32.908488 215.145847 33.616821 C 214.817722 34.330363 214.578139 34.93453 214.432305 35.429322 C 214.29168 35.924113 214.223972 36.314738 214.223972 36.601197 L 214.223972 51.002239 Z M 233.20314 47.616822 C 230.64064 44.819947 229.359389 41.398072 229.359389 37.34078 C 229.359389 33.288696 230.64064 29.861613 233.20314 27.054321 C 235.760432 24.241821 239.01564 22.835571 242.968765 22.835571 C 246.588557 22.835571 249.572932 23.976196 251.927099 26.247029 L 251.927099 23.642862 L 261.3646 23.642862 L 261.3646 51.002239 L 252.031266 51.002239 L 252.031266 47.903281 L 251.927099 47.903281 C 249.572932 50.497031 246.588557 51.793906 242.968765 51.793906 C 239.01564 51.793906 235.760432 50.403281 233.20314 47.616822 Z M 241.223974 32.705363 C 240.000015 33.913696 239.385432 35.460572 239.385432 37.356405 C 239.385432 39.236613 239.973974 40.773072 241.145849 41.96578 C 242.322932 43.15328 243.875015 43.74703 245.791682 43.74703 C 247.640641 43.74703 249.161474 43.142864 250.348974 41.939739 C 251.536474 40.720989 252.135433 39.189738 252.135433 37.34078 C 252.135433 35.460572 251.520849 33.913696 250.296891 32.705363 C 249.072932 31.502238 247.572932 30.898071 245.791682 30.898071 C 243.979182 30.898071 242.45314 31.502238 241.223974 32.705363 Z M 267.765642 51.002239 L 267.765642 23.642862 L 277.203143 23.642862 L 277.203143 26.523071 L 277.307309 26.523071 C 279.765643 24.064737 282.375018 22.835571 285.145851 22.835571 C 286.500018 22.835571 287.83856 23.017862 289.166685 23.372029 C 290.505227 23.726196 291.786477 24.278279 293.010435 25.023071 C 294.239602 25.773071 295.239602 26.830363 296.005227 28.200154 C 296.765644 29.575155 297.151061 31.163696 297.151061 32.981405 L 297.151061 51.002239 L 287.708352 51.002239 L 287.708352 35.533488 C 287.708352 34.106405 287.255227 32.866821 286.343768 31.80953 C 285.437518 30.741821 284.260435 30.205363 282.802101 30.205363 C 281.380226 30.205363 280.088559 30.757446 278.932309 31.861613 C 277.781268 32.960571 277.203143 34.18453 277.203143 35.533488 L 277.203143 51.002239 Z M 304.614603 23.642862 L 304.614603 13.450153 L 314.052103 13.450153 L 314.052103 23.642862 L 319.807312 23.642862 L 319.807312 30.845988 L 314.052103 30.845988 L 314.052103 39.52828 C 314.052103 42.054322 314.760437 43.319947 316.177104 43.319947 C 316.53127 43.319947 316.90627 43.24703 317.296895 43.111614 C 317.697937 42.960572 318.00002 42.819947 318.208354 42.679322 L 318.53127 42.470989 L 320.87502 50.090781 C 318.84377 51.226198 316.53127 51.793906 313.93752 51.793906 C 312.166687 51.793906 310.640645 51.486614 309.354186 50.872031 C 308.078145 50.247031 307.109395 49.408489 306.447936 48.356406 C 305.791686 47.304322 305.317728 46.205364 305.031269 45.049114 C 304.755228 43.892864 304.614603 42.663697 304.614603 41.351197 L 304.614603 30.845988 L 300.671894 30.845988 L 300.671894 23.642862 Z M 351.760439 38.632447 L 331.916688 38.632447 C 331.916688 40.549114 332.53648 41.970989 333.776063 42.90328 C 335.026063 43.819947 336.38023 44.283489 337.838563 44.283489 C 339.369813 44.283489 340.572938 44.075155 341.458355 43.668905 C 342.343772 43.262655 343.359397 42.450155 344.50523 41.236614 L 351.328147 44.658489 C 348.479189 49.413697 343.750022 51.793906 337.135438 51.793906 C 333.015646 51.793906 329.479188 50.382448 326.526063 47.564739 C 323.572937 44.731406 322.098979 41.330364 322.098979 37.356405 C 322.098979 33.37203 323.572937 29.955363 326.526063 27.106404 C 329.479188 24.262654 333.015646 22.835571 337.135438 22.835571 C 341.479189 22.835571 345.00523 24.090779 347.723981 26.601196 C 350.447939 29.106404 351.812523 32.689738 351.812523 37.34078 C 351.812523 37.986613 351.791689 38.413697 351.760439 38.632447 Z M 332.177105 33.398071 L 342.578147 33.398071 C 342.364605 31.970988 341.802105 30.877238 340.901063 30.116821 C 339.994813 29.351196 338.833355 28.970988 337.41148 28.970988 C 335.84898 28.970988 334.604188 29.382446 333.671896 30.205363 C 332.75523 31.023071 332.25523 32.085571 332.177105 33.398071 Z M 332.177105 33.398071 " stroke="#ffffff" stroke-width="3.999998" stroke-opacity="1" stroke-miterlimit="4"/><g fill="#000000" fill-opacity="1"><g transform="translate(55.113282, 61.392852)"><g><path d="M 2.40625 -33 L 14.203125 -33 C 17.367188 -33 19.953125 -32.148438 21.953125 -30.453125 C 23.953125 -28.765625 24.953125 -26.347656 24.953125 -23.203125 C 24.953125 -20.773438 24.34375 -18.738281 23.125 -17.09375 C 21.914062 -15.457031 20.273438 -14.304688 18.203125 -13.640625 L 29.5625 0 L 20 0 L 9.921875 -13.046875 L 9.921875 0 L 2.40625 0 Z M 9.921875 -18.359375 L 10.796875 -18.359375 C 11.492188 -18.359375 12.082031 -18.367188 12.5625 -18.390625 C 13.039062 -18.421875 13.585938 -18.515625 14.203125 -18.671875 C 14.816406 -18.835938 15.304688 -19.066406 15.671875 -19.359375 C 16.046875 -19.648438 16.367188 -20.078125 16.640625 -20.640625 C 16.910156 -21.203125 17.046875 -21.878906 17.046875 -22.671875 C 17.046875 -23.472656 16.910156 -24.15625 16.640625 -24.71875 C 16.367188 -25.28125 16.046875 -25.707031 15.671875 -26 C 15.304688 -26.289062 14.816406 -26.515625 14.203125 -26.671875 C 13.585938 -26.835938 13.039062 -26.929688 12.5625 -26.953125 C 12.082031 -26.984375 11.492188 -27 10.796875 -27 L 9.921875 -27 Z M 9.921875 -18.359375 "/></g></g></g><g fill="#000000" fill-opacity="1"><g transform="translate(83.750438, 61.392852)"><g><path d="M 23.15625 -9.28125 L 8.28125 -9.28125 C 8.28125 -7.84375 8.742188 -6.773438 9.671875 -6.078125 C 10.609375 -5.390625 11.625 -5.046875 12.71875 -5.046875 C 13.863281 -5.046875 14.769531 -5.195312 15.4375 -5.5 C 16.101562 -5.800781 16.863281 -6.40625 17.71875 -7.3125 L 22.84375 -4.765625 C 20.707031 -1.191406 17.160156 0.59375 12.203125 0.59375 C 9.109375 0.59375 6.453125 -0.460938 4.234375 -2.578125 C 2.023438 -4.703125 0.921875 -7.253906 0.921875 -10.234375 C 0.921875 -13.222656 2.023438 -15.785156 4.234375 -17.921875 C 6.453125 -20.054688 9.109375 -21.125 12.203125 -21.125 C 15.453125 -21.125 18.097656 -20.179688 20.140625 -18.296875 C 22.179688 -16.421875 23.203125 -13.734375 23.203125 -10.234375 C 23.203125 -9.753906 23.1875 -9.4375 23.15625 -9.28125 Z M 8.484375 -13.203125 L 16.28125 -13.203125 C 16.125 -14.265625 15.703125 -15.082031 15.015625 -15.65625 C 14.335938 -16.226562 13.46875 -16.515625 12.40625 -16.515625 C 11.226562 -16.515625 10.289062 -16.207031 9.59375 -15.59375 C 8.90625 -14.988281 8.535156 -14.191406 8.484375 -13.203125 Z M 8.484375 -13.203125 "/></g></g></g><g fill="#000000" fill-opacity="1"><g transform="translate(107.868035, 61.392852)"><g><path d="M 3.59375 -20.515625 L 3.59375 -24.875 C 3.625 -27.945312 4.34375 -30.398438 5.75 -32.234375 C 7.164062 -34.078125 9.128906 -35 11.640625 -35 C 12.703125 -35 13.71875 -34.84375 14.6875 -34.53125 C 15.664062 -34.226562 16.367188 -33.914062 16.796875 -33.59375 L 17.484375 -33.15625 L 15 -28.15625 C 14.363281 -28.53125 13.65625 -28.71875 12.875 -28.71875 C 12 -28.71875 11.414062 -28.414062 11.125 -27.8125 C 10.832031 -27.21875 10.6875 -26.175781 10.6875 -24.6875 L 10.6875 -20.515625 L 15.40625 -20.515625 L 15.40625 -15.125 L 10.6875 -15.125 L 10.6875 0 L 3.59375 0 L 3.59375 -15.125 L 0.640625 -15.125 L 0.640625 -20.515625 Z M 3.59375 -20.515625 "/></g></g></g><g fill="#000000" fill-opacity="1"><g transform="translate(122.866546, 61.392852)"><g><path d="M 2.40625 0 L 2.40625 -20.515625 L 9.484375 -20.515625 L 9.484375 -17.5625 L 9.5625 -17.5625 C 9.613281 -17.664062 9.695312 -17.796875 9.8125 -17.953125 C 9.9375 -18.117188 10.195312 -18.398438 10.59375 -18.796875 C 11 -19.203125 11.425781 -19.5625 11.875 -19.875 C 12.332031 -20.195312 12.921875 -20.484375 13.640625 -20.734375 C 14.359375 -20.992188 15.09375 -21.125 15.84375 -21.125 C 16.613281 -21.125 17.367188 -21.015625 18.109375 -20.796875 C 18.859375 -20.585938 19.410156 -20.375 19.765625 -20.15625 L 20.3125 -19.84375 L 17.359375 -13.84375 C 16.484375 -14.582031 15.257812 -14.953125 13.6875 -14.953125 C 12.832031 -14.953125 12.097656 -14.765625 11.484375 -14.390625 C 10.867188 -14.023438 10.429688 -13.570312 10.171875 -13.03125 C 9.921875 -12.5 9.742188 -12.046875 9.640625 -11.671875 C 9.535156 -11.304688 9.484375 -11.015625 9.484375 -10.796875 L 9.484375 0 Z M 2.40625 0 "/></g></g></g><g fill="#000000" fill-opacity="1"><g transform="translate(142.784563, 61.392852)"><g><path d="M 3.078125 -31.953125 C 3.898438 -32.785156 4.882812 -33.203125 6.03125 -33.203125 C 7.1875 -33.203125 8.175781 -32.785156 9 -31.953125 C 9.820312 -31.128906 10.234375 -30.144531 10.234375 -29 C 10.234375 -27.851562 9.820312 -26.863281 9 -26.03125 C 8.175781 -25.207031 7.1875 -24.796875 6.03125 -24.796875 C 4.882812 -24.796875 3.898438 -25.207031 3.078125 -26.03125 C 2.253906 -26.863281 1.84375 -27.851562 1.84375 -29 C 1.84375 -30.144531 2.253906 -31.128906 3.078125 -31.953125 Z M 2.40625 -20.515625 L 2.40625 0 L 9.484375 0 L 9.484375 -20.515625 Z M 2.40625 -20.515625 "/></g></g></g><g fill="#000000" fill-opacity="1"><g transform="translate(154.863367, 61.392852)"><g><path d="M 1.484375 5.046875 L 7.28125 2.203125 C 8.34375 3.960938 10.195312 4.84375 12.84375 4.84375 C 14.070312 4.84375 15.210938 4.445312 16.265625 3.65625 C 17.316406 2.875 17.84375 1.671875 17.84375 0.046875 L 17.84375 -1.484375 C 16.582031 -0.0976562 14.34375 0.59375 11.125 0.59375 C 8.164062 0.59375 5.722656 -0.453125 3.796875 -2.546875 C 1.878906 -4.640625 0.921875 -7.203125 0.921875 -10.234375 C 0.921875 -13.273438 1.878906 -15.847656 3.796875 -17.953125 C 5.722656 -20.066406 8.164062 -21.125 11.125 -21.125 C 13.757812 -21.125 15.957031 -20.3125 17.71875 -18.6875 L 17.84375 -18.6875 L 17.84375 -20.515625 L 24.921875 -20.515625 L 24.921875 0.5625 C 24.921875 3.894531 23.8125 6.46875 21.59375 8.28125 C 19.382812 10.09375 16.46875 11 12.84375 11 C 6.976562 11 3.191406 9.015625 1.484375 5.046875 Z M 9.8125 -13.71875 C 8.894531 -12.8125 8.4375 -11.648438 8.4375 -10.234375 C 8.4375 -8.828125 8.875 -7.675781 9.75 -6.78125 C 10.632812 -5.882812 11.796875 -5.4375 13.234375 -5.4375 C 14.617188 -5.4375 15.757812 -5.890625 16.65625 -6.796875 C 17.550781 -7.703125 18 -8.847656 18 -10.234375 C 18 -11.648438 17.535156 -12.8125 16.609375 -13.71875 C 15.691406 -14.625 14.566406 -15.078125 13.234375 -15.078125 C 11.878906 -15.078125 10.738281 -14.625 9.8125 -13.71875 Z M 9.8125 -13.71875 "/></g></g></g><g fill="#000000" fill-opacity="1"><g transform="translate(182.180652, 61.392852)"><g><path d="M 23.15625 -9.28125 L 8.28125 -9.28125 C 8.28125 -7.84375 8.742188 -6.773438 9.671875 -6.078125 C 10.609375 -5.390625 11.625 -5.046875 12.71875 -5.046875 C 13.863281 -5.046875 14.769531 -5.195312 15.4375 -5.5 C 16.101562 -5.800781 16.863281 -6.40625 17.71875 -7.3125 L 22.84375 -4.765625 C 20.707031 -1.191406 17.160156 0.59375 12.203125 0.59375 C 9.109375 0.59375 6.453125 -0.460938 4.234375 -2.578125 C 2.023438 -4.703125 0.921875 -7.253906 0.921875 -10.234375 C 0.921875 -13.222656 2.023438 -15.785156 4.234375 -17.921875 C 6.453125 -20.054688 9.109375 -21.125 12.203125 -21.125 C 15.453125 -21.125 18.097656 -20.179688 20.140625 -18.296875 C 22.179688 -16.421875 23.203125 -13.734375 23.203125 -10.234375 C 23.203125 -9.753906 23.1875 -9.4375 23.15625 -9.28125 Z M 8.484375 -13.203125 L 16.28125 -13.203125 C 16.125 -14.265625 15.703125 -15.082031 15.015625 -15.65625 C 14.335938 -16.226562 13.46875 -16.515625 12.40625 -16.515625 C 11.226562 -16.515625 10.289062 -16.207031 9.59375 -15.59375 C 8.90625 -14.988281 8.535156 -14.191406 8.484375 -13.203125 Z M 8.484375 -13.203125 "/></g></g></g><g fill="#000000" fill-opacity="1"><g transform="translate(206.29825, 61.392852)"><g><path d="M 2.40625 0 L 2.40625 -20.515625 L 9.484375 -20.515625 L 9.484375 -17.5625 L 9.5625 -17.5625 C 9.613281 -17.664062 9.695312 -17.796875 9.8125 -17.953125 C 9.9375 -18.117188 10.195312 -18.398438 10.59375 -18.796875 C 11 -19.203125 11.425781 -19.5625 11.875 -19.875 C 12.332031 -20.195312 12.921875 -20.484375 13.640625 -20.734375 C 14.359375 -20.992188 15.09375 -21.125 15.84375 -21.125 C 16.613281 -21.125 17.367188 -21.015625 18.109375 -20.796875 C 18.859375 -20.585938 19.410156 -20.375 19.765625 -20.15625 L 20.3125 -19.84375 L 17.359375 -13.84375 C 16.484375 -14.582031 15.257812 -14.953125 13.6875 -14.953125 C 12.832031 -14.953125 12.097656 -14.765625 11.484375 -14.390625 C 10.867188 -14.023438 10.429688 -13.570312 10.171875 -13.03125 C 9.921875 -12.5 9.742188 -12.046875 9.640625 -11.671875 C 9.535156 -11.304688 9.484375 -11.015625 9.484375 -10.796875 L 9.484375 0 Z M 2.40625 0 "/></g></g></g><g fill="#000000" fill-opacity="1"><g transform="translate(226.216267, 61.392852)"><g><path d="M 3.796875 -2.546875 C 1.878906 -4.640625 0.921875 -7.203125 0.921875 -10.234375 C 0.921875 -13.273438 1.878906 -15.847656 3.796875 -17.953125 C 5.722656 -20.066406 8.164062 -21.125 11.125 -21.125 C 13.84375 -21.125 16.082031 -20.269531 17.84375 -18.5625 L 17.84375 -20.515625 L 24.921875 -20.515625 L 24.921875 0 L 17.921875 0 L 17.921875 -2.3125 L 17.84375 -2.3125 C 16.082031 -0.375 13.84375 0.59375 11.125 0.59375 C 8.164062 0.59375 5.722656 -0.453125 3.796875 -2.546875 Z M 9.8125 -13.71875 C 8.894531 -12.8125 8.4375 -11.648438 8.4375 -10.234375 C 8.4375 -8.828125 8.875 -7.675781 9.75 -6.78125 C 10.632812 -5.882812 11.796875 -5.4375 13.234375 -5.4375 C 14.617188 -5.4375 15.757812 -5.890625 16.65625 -6.796875 C 17.550781 -7.703125 18 -8.847656 18 -10.234375 C 18 -11.648438 17.535156 -12.8125 16.609375 -13.71875 C 15.691406 -14.625 14.566406 -15.078125 13.234375 -15.078125 C 11.878906 -15.078125 10.738281 -14.625 9.8125 -13.71875 Z M 9.8125 -13.71875 "/></g></g></g><g fill="#000000" fill-opacity="1"><g transform="translate(253.533542, 61.392852)"><g><path d="M 2.40625 0 L 2.40625 -20.515625 L 9.484375 -20.515625 L 9.484375 -18.359375 L 9.5625 -18.359375 C 11.394531 -20.203125 13.351562 -21.125 15.4375 -21.125 C 16.445312 -21.125 17.453125 -20.988281 18.453125 -20.71875 C 19.453125 -20.445312 20.410156 -20.03125 21.328125 -19.46875 C 22.253906 -18.914062 23.003906 -18.125 23.578125 -17.09375 C 24.148438 -16.070312 24.4375 -14.878906 24.4375 -13.515625 L 24.4375 0 L 17.359375 0 L 17.359375 -11.59375 C 17.359375 -12.664062 17.015625 -13.597656 16.328125 -14.390625 C 15.648438 -15.191406 14.769531 -15.59375 13.6875 -15.59375 C 12.613281 -15.59375 11.644531 -15.179688 10.78125 -14.359375 C 9.914062 -13.535156 9.484375 -12.613281 9.484375 -11.59375 L 9.484375 0 Z M 2.40625 0 "/></g></g></g><g fill="#000000" fill-opacity="1"><g transform="translate(279.970903, 61.392852)"><g><path d="M 3.59375 -20.515625 L 3.59375 -28.15625 L 10.6875 -28.15625 L 10.6875 -20.515625 L 15 -20.515625 L 15 -15.125 L 10.6875 -15.125 L 10.6875 -8.59375 C 10.6875 -6.707031 11.21875 -5.765625 12.28125 -5.765625 C 12.550781 -5.765625 12.832031 -5.816406 13.125 -5.921875 C 13.414062 -6.023438 13.640625 -6.128906 13.796875 -6.234375 L 14.046875 -6.40625 L 15.796875 -0.6875 C 14.273438 0.164062 12.539062 0.59375 10.59375 0.59375 C 9.257812 0.59375 8.113281 0.363281 7.15625 -0.09375 C 6.195312 -0.5625 5.46875 -1.1875 4.96875 -1.96875 C 4.476562 -2.757812 4.125 -3.585938 3.90625 -4.453125 C 3.695312 -5.328125 3.59375 -6.253906 3.59375 -7.234375 L 3.59375 -15.125 L 0.640625 -15.125 L 0.640625 -20.515625 Z M 3.59375 -20.515625 "/></g></g></g><g fill="#000000" fill-opacity="1"><g transform="translate(295.769333, 61.392852)"><g><path d="M 23.15625 -9.28125 L 8.28125 -9.28125 C 8.28125 -7.84375 8.742188 -6.773438 9.671875 -6.078125 C 10.609375 -5.390625 11.625 -5.046875 12.71875 -5.046875 C 13.863281 -5.046875 14.769531 -5.195312 15.4375 -5.5 C 16.101562 -5.800781 16.863281 -6.40625 17.71875 -7.3125 L 22.84375 -4.765625 C 20.707031 -1.191406 17.160156 0.59375 12.203125 0.59375 C 9.109375 0.59375 6.453125 -0.460938 4.234375 -2.578125 C 2.023438 -4.703125 0.921875 -7.253906 0.921875 -10.234375 C 0.921875 -13.222656 2.023438 -15.785156 4.234375 -17.921875 C 6.453125 -20.054688 9.109375 -21.125 12.203125 -21.125 C 15.453125 -21.125 18.097656 -20.179688 20.140625 -18.296875 C 22.179688 -16.421875 23.203125 -13.734375 23.203125 -10.234375 C 23.203125 -9.753906 23.1875 -9.4375 23.15625 -9.28125 Z M 8.484375 -13.203125 L 16.28125 -13.203125 C 16.125 -14.265625 15.703125 -15.082031 15.015625 -15.65625 C 14.335938 -16.226562 13.46875 -16.515625 12.40625 -16.515625 C 11.226562 -16.515625 10.289062 -16.207031 9.59375 -15.59375 C 8.90625 -14.988281 8.535156 -14.191406 8.484375 -13.203125 Z M 8.484375 -13.203125 "/></g></g></g></svg>